<?xml version="1.0" encoding="UTF-8"?><svg xmlns="http://www.w3.org/2000/svg" viewBox="0 0 1229.16 390.68"><defs><style>.d{fill:#f2f7e4;}.e{fill:#0f9;}</style></defs><g id="a"/><g id="b"><g id="c"><g><path class="e" d="M948.9,328.39c.05-.08-.01-.29-.09-.38-.11-.11-.29-.22-.43-.22-1.78,.06-3.35,1-4.04,2.4-1.07,2.17-2.08,5.15-2.32,7.05-.04,.34,.32,.54,.66,.55,.17-.02,.41,.02,.48-.07,.38-.54,.65-1.18,1.09-1.66,1.49-1.63,2.54-3.5,3.38-5.53,.31-.76,.86-1.42,1.28-2.14Zm7.95,16.88c-.67,.98-1.66,1.48-2.54,1.25-1.38-.37-2.59-1.2-3-2.48-.56-1.73-1.57-3.37-1.46-5.3,0-.14-.12-.32-.24-.42-.22-.18-.54-.14-.81,.17-.45,.5-.85,1.05-1.27,1.58-.04-.04-.08-.08-.12-.11-.47,.48-.91,1.01-1.43,1.42-.38,.3-.87,.55-1.34,.62-.99,.15-2.01,.21-3.01,.24-1.11,.04-1.91-.58-2.51-1.45-.38-.55-.62-1.19-.96-1.77-.37-.62-.47-1.33-.27-1.94,.37-1.13,.65-2.24,.64-3.44,0-2.11,.74-3.94,2.19-5.48,.46-.49,.93-.97,1.4-1.45,.49-.5,1.1-.76,1.8-.81,1.67-.14,3.33-.38,4.93,.49,.63,.34,1.26-.18,1.85-.49,.68-.36,1.34-.15,1.82,.33,1.78,1.83,2.24,4.06,2,6.5-.97,1.74-.51,3.62-.53,5.45-.01,1.01,.1,2.02,.16,3.02,.04,.78,.51,1.16,1.21,1.39,.31,.1,.59,.31,.86,.51,.81,.61,1.08,1.54,.64,2.17"/><path class="e" d="M966.06,325.38c.29,2.28,.95,4.5,.76,6.86-.19,2.43-.31,4.84-1,7.21-.4,1.39-.99,2.42-2.94,2.65-.3-.85-.75-1.51-.72-2.15,.14-3.24,.48-6.46,.59-9.7,.08-2.17,1.03-3.86,2.42-5.63,.36,.3,.85,.5,.88,.76m-.02-6.73c.24,.4,.5,.81,.69,1.13-1.92,.89-3.84,1.78-5.68,2.64-.95-.71-1.04-1.59-.56-2.27,1.29-1.83,2.66-3.64,5.52-4.27,.4,.3,.79,.6,1.28,.97-.56,.81-.89,1.29-1.25,1.82"/><path class="e" d="M982.68,322.17c-.25,1.05-.93,1.72-1.58,2.37-.26,.26-.51,.51-.73,.78-.2,.25-.42,.49-.63,.73-.62,.7-1.21,1.36-1.55,2.24-.61,1.61-1.17,3.1-.89,4.75,.44,2.57-.52,4.75-1.4,6.36-.24,.44-.61,.68-1.02,.7-.19,0-.39-.03-.59-.13l-.12-.05c-.42-.19-.93-.43-1.05-.87-.22-.81-.35-1.64-.43-2.2-.03-.16-.05-.31-.07-.42-.04-.55-.11-1.08-.18-1.58-.23-1.65-.44-3.21,.55-4.25,.29-.3,.69-.47,1.05-.61,.54-.23,.78-.35,.78-.6,0-1.02,.4-1.85,.79-2.66,.18-.36,.34-.71,.47-1.07,.57-1.55,1.62-2.65,3.21-3.35,.24-.1,.46-.24,.69-.37,.51-.3,1.04-.61,1.74-.67,.44-.04,.7-.06,.89,.16,.19,.22,.12,.51,.07,.74"/><path class="e" d="M1016.75,329.92c-.25-.13-.56-.24-.84-.23-.82,.02-1.41,.49-1.82,1.17-.94,1.58-1.08,3.44-1.79,5.1-.14,.32-.05,.62,.24,.8,.08,.05,.28-.01,.38-.09,2.02-1.52,3.02-3.71,3.83-5.83,.26-.47,.25-.77,0-.91m7.88-12.74c-.1,.44-.37,.9-.31,1.32,.22,1.74-.48,3.29-.86,4.92-.56,2.37-1.5,4.63-1.65,7.1-.04,.74-.53,1.44-.64,2.18-.19,1.21-.83,2.27-.84,3.55-.01,1.03-.44,2.07-.72,3.09-.32,1.17-.66,2.33-1.02,3.49-.11,.34-.39,.43-.75,.41-.31-.02-.64-.09-.73-.41-.23-.88-.23-1.85-.6-2.66-.36-.81,.04-1.48,.03-2.2,0-.13-.08-.29-.17-.38-.08-.08-.27-.14-.35-.1-.68,.37-1.4,.59-2.16,.73-.56,.11-1.04,.71-1.68,.31-.93-.59-1.69-1.31-1.89-2.46-.05-.3-.03-.61-.04-.66-.24-2.05,.5-3.55,1.42-4.98,.33-.51,.81-.92,1.2-1.39,.73-.88,1.63-1.35,2.8-1.28,.45,.03,.92,.02,1.37-.07,.27-.05,.7-.24,.73-.42,.36-1.96,1.43-3.66,1.89-5.59,.86-3.61,.93-3.59,2.59-6.28,.25-.41,.6-.72,1.09-.67,.67,.07,1.49,.97,1.45,1.54-.02,.3-.09,.59-.16,.88"/><path class="e" d="M1040.1,319.53c-.25,1.05-.93,1.72-1.58,2.37-.26,.26-.51,.51-.73,.78-.2,.25-.42,.49-.63,.73-.62,.7-1.21,1.36-1.55,2.24-.61,1.61-1.17,3.1-.89,4.75,.44,2.57-.52,4.75-1.4,6.37-.24,.44-.6,.68-1.01,.7-.19,0-.39-.03-.59-.13l-.12-.05c-.42-.19-.93-.43-1.06-.87-.22-.81-.35-1.64-.43-2.2-.02-.16-.05-.31-.07-.42-.04-.55-.11-1.08-.18-1.58-.23-1.65-.44-3.21,.55-4.25,.29-.3,.69-.47,1.05-.61,.54-.23,.78-.35,.78-.6,0-1.02,.4-1.85,.79-2.66,.18-.36,.34-.71,.47-1.07,.57-1.55,1.62-2.65,3.21-3.35,.24-.1,.46-.24,.69-.37,.51-.3,1.04-.61,1.74-.67,.44-.04,.7-.06,.89,.16,.19,.22,.12,.51,.07,.74"/><path class="e" d="M1053.18,335.25l.16-.07c1.62-.66,3.15-1.29,3.78-3.11,.17-.48,.49-.89,.8-1.28,.23-.28,.45-.55,.6-.85,.48-.9,.92-1.79,1.11-2.69,.25-1.19,0-2.17-.74-3.01-1.19-1.33-2.76-1.66-4.42-2-.44-.09-.88-.18-1.32-.29-.03,0-.07-.01-.11,0-.12,0-.32,.05-.64,.21-.72,.35-1.25,.65-1.7,.97-.2,.14-.38,.4-.4,.58-.04,.41-.05,.85-.06,1.27-.01,.76-.02,1.54-.24,2.27l-.07,.23c-.31,1.03-.61,2-.45,3.03l.03,.52c.01,.35,.03,.69,.05,1.03,.08,1.39,.84,2.39,2.41,3.16,.32,.16,.86,.17,1.2,.03m9.22-8.06c.03,.73-.11,1.41-.42,2.08-.34,.73-.66,1.49-.96,2.22-.14,.33-.28,.67-.42,1-.61,1.42-1.7,2.38-2.69,3.13-.2,.16-.42,.26-.64,.36-.09,.05-.19,.09-.28,.14l-3.19,1.71-.11-.03c-.34-.08-.69-.15-1.04-.23-.77-.17-1.57-.35-2.35-.55-1.33-.35-2.32-1.48-2.4-2.75-.07-1.06-.11-2.12-.16-3.17l-.09-2.31c-.04-.84-.07-1.7-.13-2.54-.01-.16-.09-.34-.18-.53h0c-.18,.06-.35,.14-.49,.23-.2,.14-.4,.29-.59,.44-.19,.16-.39,.31-.6,.45-.3,.21-.7-.16-.76-.24-.07-.08-.29-.38-.24-.68,.25-1.45,.77-2.55,1.54-3.29,1.9-1.83,4-2.96,6.23-3.34,1.53-.27,2.91-.05,4.11,.63,.61,.35,1.33,.66,2.24,.96,1.03,.34,1.74,1.05,2.42,1.73l.1,.1c.58,.58,.91,1.24,.96,1.95,.06,.84,.1,1.68,.14,2.52"/><path class="e" d="M1076.38,325.5c-.12-1.78-1.16-2.97-2.17-2.97-1.03,0-1.97,1.18-2.02,2.52,0,.2,.02,.4,.02,.6,0,1.67,.38,3.36-.34,5-.08,.19,.16,.76,.25,.76,.34,0,.82-.06,1-.29,.96-1.25,1.9-2.52,2.71-3.87,.39-.64,.47-1.47,.55-1.75m-.96,7.2c-.46,.51-1.01,1.03-1.63,1.26-1.96,.73-2.18,2.34-2.19,4.05,0,1.7,.16,3.41,.15,5.11,0,.77-.21,1.55-.44,2.29-.09,.29-.52,.69-.76,.67-.33-.03-.78-.36-.91-.67-.37-.9-.71-1.84-.88-2.79-.37-2.14-.64-4.3-.94-6.46-.39-2.78-.78-5.55-1.16-8.33,.08,0,.16-.02,.24-.03-.07-1.5-.18-3-.17-4.5,0-.31,.42-.78,.73-.86,.24-.06,.7,.33,.88,.62,.24,.41,.24,.95,.45,1.39,.11,.22,.45,.33,.69,.5,.07-.18,.2-.37,.19-.55-.02-1.29,1.1-1.83,1.72-2.7,.76-1.08,1.88-1.12,2.97-.98,1.88,.24,3.3,2.04,3.89,3.95,1.06,3.46-.78,5.76-2.83,8.03"/><path class="e" d="M1087.81,338.04c.06,.54-.12,1.08-.49,1.48-.37,.4-.89,.62-1.43,.61-.97,.11-1.62-.43-2.2-1.09-.52-.58-.56-1.44-.1-2.06,.41-.5,.85-.97,1.28-1.45,.54-.55,1.33-.77,2.07-.58,.25,.03,.44,.21,.38,.38-.24,.6-.13,1.29,.29,1.79,.14,.29,.21,.6,.2,.92"/><path class="e" d="M949.51,357.16c.47,.14,1.27,1.26,1.05,1.39-.36,.22-.76,.46-1.18,.54-.91,.17-1.82,.32-2.42,1.02-1.28,1.5-2.22,3.2-2.22,5.09,0,2.89,.23,5.78,.42,8.66,.06,.96,.82,1.37,1.8,1.5,.45,.06,.91,.11,1.33,.25,.68,.22,1.11,1.26,.93,2.11-.16,.77-1.18,1.5-1.95,1.42-1.82-.21-3.58-.72-4.96-1.77-1.59-1.2-2.54-2.93-2.79-4.79-.27-2.04-.46-4.15-.2-6.18,.26-2.01,.94-3.99,1.73-5.94,.78-1.91,3.77-3.95,6.94-3.68,.21,.05,.86,.19,1.49,.38"/><path class="e" d="M963.69,374.73l.16-.07c1.62-.66,3.15-1.29,3.78-3.11,.17-.48,.49-.89,.81-1.28,.23-.29,.45-.55,.6-.85,.48-.9,.92-1.79,1.11-2.69,.25-1.19,0-2.18-.74-3.01-1.19-1.33-2.76-1.66-4.42-2-.44-.09-.88-.18-1.32-.3-.03,0-.06-.01-.11,0-.13,0-.32,.05-.64,.21-.72,.35-1.25,.65-1.7,.97-.2,.14-.38,.4-.4,.58-.04,.41-.05,.85-.06,1.27,0,.76-.02,1.54-.24,2.27l-.07,.23c-.31,1.03-.61,2-.45,3.03l.02,.52c.02,.35,.03,.69,.05,1.03,.08,1.39,.84,2.39,2.41,3.15,.32,.16,.86,.17,1.2,.03m9.22-8.06c.03,.73-.11,1.41-.42,2.09-.34,.73-.66,1.49-.96,2.22-.14,.33-.28,.67-.42,1-.61,1.42-1.7,2.38-2.69,3.13-.2,.15-.43,.26-.64,.36-.09,.05-.19,.09-.28,.14l-3.19,1.71-.11-.03c-.34-.08-.69-.16-1.04-.23-.77-.17-1.57-.35-2.35-.55-1.33-.35-2.32-1.48-2.4-2.75-.07-1.06-.11-2.12-.16-3.17l-.09-2.31c-.04-.84-.07-1.7-.13-2.54-.01-.16-.09-.34-.18-.53h0c-.18,.06-.35,.14-.49,.23-.2,.14-.4,.29-.59,.44-.2,.16-.39,.31-.6,.45-.3,.21-.7-.16-.76-.24-.07-.08-.29-.37-.24-.68,.25-1.45,.77-2.55,1.54-3.29,1.9-1.83,4-2.96,6.23-3.35,1.53-.26,2.92-.05,4.11,.63,.61,.35,1.33,.66,2.24,.97,1.03,.34,1.74,1.05,2.42,1.73l.1,.1c.58,.58,.91,1.24,.96,1.95,.06,.84,.1,1.68,.14,2.52"/><path class="e" d="M995.39,369.45c-.07,1.93-.53,3.85-.83,5.78-.1,.62-.38,.5-.8,.24-1.09-.69-1.2-1.75-1.21-2.88,0-.18-.13-.36-.19-.54-.11,.2-.27,.39-.33,.6-.68,2.18-2.42,3.52-3.98,4.97-.98,.91-2.37,.61-3.06-.53-.81-1.33-.81-2.75-.59-4.29,.34-2.33,.44-4.69,.61-7.04,.02-.19-.22-.4-.33-.61-.07,.18-.13,.36-.2,.53-1.15,2.94-2.52,5.75-4.38,8.33-.5,.7-1.06,1.29-1.78,1.06-.9-.28-.92-1.31-.75-2.07,.45-1.9,1.02-3.78,1.59-5.65,.17-.56,.5-1.07,.77-1.61,.42-.85,1.85,.02,2.14-1.36,.16-.78,.96-1.49,1.61-2.08,.99-.91,2.68-.36,3.3,1.21,.65,1.62,.99,3.36,1.44,4.94-.24,1.06-.45,1.91-.61,2.76-.03,.16,.1,.36,.15,.53,.16-.07,.39-.09,.46-.21,.92-1.51,1.84-3.02,2.72-4.56,.91-1.61,2.13-1.75,3.19-.2,.54,.79,1.11,1.79,1.08,2.68"/><path class="e" d="M1004.8,358.98c.28,2.28,.95,4.5,.76,6.86-.19,2.43-.31,4.84-1,7.21-.4,1.39-.99,2.42-2.94,2.65-.3-.85-.75-1.51-.72-2.15,.14-3.24,.48-6.46,.59-9.7,.07-2.17,1.03-3.86,2.42-5.63,.36,.3,.85,.5,.88,.76m-.02-6.73c.24,.4,.5,.81,.69,1.13-1.92,.89-3.84,1.78-5.68,2.64-.95-.71-1.04-1.6-.56-2.27,1.29-1.83,2.66-3.64,5.52-4.27,.4,.3,.79,.6,1.28,.97-.56,.81-.89,1.29-1.25,1.82"/><path class="e" d="M1032.98,363.1c-.43-.76-1.15-.86-1.59-.28-1.06,1.38-1.93,2.84-1.98,3.52-.03,1.48-.11,1.85-.02,2.17,.08,.31,.27,.69,.51,.81,.26,.13,.72,.11,.97-.04,1.76-1.08,2.35-2.89,2.65-4.79,.07-.42-.3-.95-.54-1.39m3.81,.58c-.08,5.02-.11,6.05-.21,11.07,.01,0-.05,3.99-.04,3.99-.1,4.66-.35,.64-.47,5.3-.05,2.03-1.69,4.44-2.73,5.58-1.67,1.81-6.86,1.09-8.7-.56-.4-.35-1.48-1.06-1.77-1.5-.13-.2,.47-1.45,.59-1.51,.27-.15,.7-.23,.97-.11,.79,.36,1.53,.84,2.31,1.24,1.15,.59,4.73,1.13,4.93,.12,.37-1.89,.88-1.25,1.08-3.16,.21-1.95,1.19-8.46,1.19-10.97,0-.83-.42-1.31-1.27-1.33-.18,0-.35-.03-.53-.03-.35,0-2.32,1.05-2.67,1.02-.49-.04-.92-.15-1.31-.32-1.9,1.51-4.27,2.02-6.59,1.29-.32-.1-.65-.23-.85-.5-.16-.22-.22-.51-.27-.78-.24-1.37-.48-2.75-.72-4.12-.22-1.26-.62-2.73-1.83-3.14-.23-.08-.5-.11-.72,0-.2,.1-.33,.28-.44,.46-1.04,1.64-1.44,3.64-1.37,5.58,.02,.61,.09,1.23-.03,1.83-.12,.6-.46,1.2-1.03,1.43-.55,.23-1.21,.06-1.67-.31-.47-.37-.77-.91-.98-1.47-.65-1.69-.58-3.56-.5-5.37,.05-1.16,.1-2.32,.16-3.49,.03-.56,.07-1.17,.41-1.62,.34-.45,1.12-.6,1.46-.15,.17,.22,.19,.52,.26,.79,.08,.27,.27,.55,.55,.54,.12,0,.23-.06,.33-.12,.7-.44,1.21-1.28,2.04-1.38,.37-.05,.74,.07,1.09,.21,2.89,1.14,5.04,3.96,5.39,7.04,.05,.44,.07,.88,.23,1.29,.17,.4,.53,.77,.97,.78,.3,0,.59-.15,.84-.32,.48-.31,.93-.67,1.34-1.06,.16-.15,.32-.32,.39-.52,.15-.41-.03-.85-.15-1.27-.53-1.91,.66-3.85,1.69-5.38,1.31-1.94,2.86-2.28,5.07-1.52,.82,.28,1.6,.66,2.43,.88,.84,.22,1.12,.81,1.11,1.56"/><path class="e" d="M1071.3,373.45c-.41,.19-.94,.3-1.57,.33-1.9,.09-4.57-.59-5.52-1.73-.2-.25-.2-.57,0-.99,.09-.18,.29-.61,.75-.57,.75,0,1.48,.05,2.36,.12,.29,.02,.57,.06,.86,.09,.49,.06,.96,.12,1.42,.1,.92-.04,1.4-.14,1.59-.35,.23-.26,.29-.91,.2-2.16-.03-.08-.06-.17-.1-.27-.14-.39-.35-.98-.65-1.48l-.42-.68c-.81-1.34-1.66-2.71-2.67-3.87-2.69-3.09-1.25-6.84,.8-9.12,.28-.31,.67-.4,.99-.47,.12-.03,.21-.05,.29-.07l.78-.26,.04,.82c0,.08,.02,.17,.03,.25,.06,.36,.13,.78-.11,1.14-2.55,3.94-1.74,4.92,.43,7.57l.42,.51c1.35,1.67,2.18,3.14,2.7,4.78,.88,2.8-.09,5.16-2.6,6.31"/><path class="e" d="M1103.22,362.15c-.06-2.11-.91-3.61-1.85-3.72-.14-.02-.42,.22-.42,.26,.2,1.95,.43,3.89,.66,5.83,.16-.12,.35-.18,.46-.37,.45-.74,.88-1.53,1.15-2m-3.44-1.67c-.29-.31-.63-.96-.89-.91-1.15,.25-1.89,3.08-1.45,5.3,.06,.3,.29,.75,.4,.73,.46-.08,1.01-.01,1.32-.53,.62-1.04,1.04-2.48,.61-4.59m-18.72,3.75c-.35,1.8,.5,3.79,1.71,5.66,.15,.23,.7,.45,.81,.35,1.43,.29,2.63-1.6,4.07-3.21,.86-.96,.55-3.99-.73-4.14-1.18-.69-.76-2.75-4.12-1.95-.92,.49-1.43,1.36-1.53,1.61-.14,.33-.11,.74-.21,1.69m16.29,5.27c-1.99-.23-3.21-1.08-3.94-3.22-.42-1.24-.51-2.53-.98-3.71-.09-.23-.58-.4-.86-.36-.28,.04-.72,.33-.77,.58-.16,.73-.13,1.51-.23,2.26-.4,3.04-2.1,5.08-4.55,6.31-2.62,1.31-4.86,.61-6.47-1.63-.56-.78-.85-1.6-.79-2.6,.05-.94,.36-2.14-.05-2.78-1.03-1.63-.35-2.79,.43-4.11,1.36-2.29,3.61-3.16,6.11-2.27,.49,.17,1.19,.04,1.51,.37,2.1,2.18,4.28-.32,6.4,.13,.22,.05,.65-.35,.78-.64,.81-1.93,2.78-2.14,4.12-3.27,1.82-1.54,3.35-1.24,5.16,.19,.28,.22,.54,.48,.8,.73,3.13,3.06,3.39,4.85,1.28,8.87-1.04,2-2.14,3.95-4.41,4.5-1.17,.28-2.36,.43-3.54,.64"/><path class="e" d="M1122.63,360.02c.2,1.48-.12,2.69-.46,3.67-.18,.5-.16,1.09-.15,1.7,0,.23,0,.46,0,.68,0,.34,0,.68,.02,1.02,.03,.83,.07,1.69-.21,2.54-.15,.46-.6,.71-1.14,.63-.09-.01-.7-.19-.65-.58,.41-3.14,.19-6.33-.03-9.41-.09-1.3-.19-2.65-.23-3.97-.01-.3-.25-.6-.61-.78-.43-.21-.9-.21-1.21,.01-2.53,1.79-3.92,4.01-4.25,6.77l-.04,.33c-.06,.56-.12,1.14-.3,1.68-.69,2.15-.56,3.9,.43,5.53,.14,.23,.12,.57,.03,.77l-.03,.08c-.14,.3-.29,.64-.58,.82-.11,.07-.24,.1-.36,.11-.31,.01-.6-.12-.71-.18-.18-.09-.6-.34-.62-.73-.05-.74-.09-1.49-.14-2.23-.08-1.4-.16-2.85-.3-4.27-.18-1.86,.17-3.66,1.07-5.5,.12-.24,.23-.49,.33-.73,.16-.36,.33-.73,.52-1.09,.47-.88,1.07-1.5,1.84-1.91,.4-.21,.79-.43,1.18-.64,.49-.27,.97-.53,1.46-.79,.07-.04,.15-.08,.22-.13,.36-.21,.84-.5,1.45-.17,.18,.1,.4,.18,.63,.27,.61,.22,1.3,.48,1.51,1.27,.15,.55,.38,1.1,.6,1.63,.46,1.13,.95,2.31,.75,3.59"/><path class="e" d="M1131.99,371.38c.06,.54-.12,1.08-.49,1.48-.37,.4-.89,.62-1.43,.61-.97,.11-1.61-.43-2.2-1.09-.52-.58-.56-1.44-.09-2.06,.41-.5,.84-.97,1.28-1.45,.54-.55,1.33-.77,2.07-.58,.25,.03,.44,.21,.37,.38-.24,.6-.13,1.29,.29,1.79,.14,.29,.21,.6,.2,.92"/><path class="e" d="M329.99,106.82c.04,.55,.76,1.05,1.18,1.58,.68-.71,1.96-1.42,1.96-2.12-.04-5.34-.22-10.68-.63-16-.08-1.07-1.27-2.06-1.95-3.08-.47,1.2-1.24,2.38-1.34,3.62-.16,1.97,.12,4,.21,5.99,.02,0,.05,0,.07,0,.15,3.34,.25,6.67,.52,10m447.12-16.04c.07,1.11-1.12,2.43-1.96,3.43-.85,1-1.9,2.12-3.06,2.41-.61,.15-2.03-1.22-2.38-2.16-.7-1.85-.77-3.93-1.39-5.82-.5-1.53-4.03-2.54-5.05-1.54-2.86,2.84-5.59,5.82-8.5,8.6-5.54,5.29-8.83,4.82-14.07-1.85-.83-1.06-1.74-2.05-2.63-3.05-1.86-2.11-3.17-1.83-5.03,1.54-1.02,1.83-1.96,3.93-4.29,2.93-1.48-.64-3.31-2.46-3.45-3.9-.83-8.7-1.54-17.44-1.66-26.17-.08-5.71-3.06-10.05-5.34-14.79-.25-.52-1-.8-1.52-1.19-.34,.59-.89,1.13-.99,1.75-.78,4.54-1.31,9.12-2.21,13.63-1.17,5.78-2.45,11.56-3.98,17.27-1.37,5.09-2.93,10.17-4.78,15.11-4.88,13.04-9.91,26.01-15.05,38.93-.35,.88-2.06,1.52-3.24,1.72-2.5,.46-3.84-1.37-3.88-3.39-.21-11.26-3.61-22.59,.97-33.79,.96-2.33,.78-5.25,.66-7.89-.78-18.15-1.64-36.3-2.6-54.45-.06-1.06-1.18-2.06-1.81-3.08-.43,.53-1.19,1.03-1.22,1.57-.5,9.68-6.21,17.42-9.71,25.95-4.82,11.73-8.99,23.33-8.51,36.46,.23,6.34-2.59,12.82-4.25,19.17-.75,2.87-4.27,5.35-5.62,4.2-1.96-1.68-4.77-3.75-4.97-5.87-.51-5.2-.16-10.6,.64-15.79,.69-4.52,2.53-8.85,3.74-13.29,.51-1.86,1.66-4.52,.87-5.61-5.21-7.2-3.57-15.54-4.21-23.4-.37-4.46-3.14-7.32-4.85-10.85-1.79-3.71-7.12-5-10-2.58-6.2,5.19-10.95,11.26-14.68,18.69-10.21,20.28-22.62,39.22-38.59,55.58-1.38,1.41-3.01,3.14-4.74,3.43-1.47,.25-3.96-.97-4.72-2.28-.9-1.55-1.09-4.16-.41-5.85,1.72-4.31,3.78-8.57,6.29-12.47,9.71-15.13,19.04-30.54,31.62-43.63,2.68-2.78,4.5-6.41,6.6-9.72,.27-.41,.08-1.6-.29-1.82-1.03-.63-2.29-1.38-3.4-1.3-1.19,.08-2.57,.81-3.44,1.68-3.34,3.32-6.79,6.59-9.7,10.27-13.82,17.43-32.4,30.02-47.01,46.68-5.2,5.93-12.03,10.44-18.2,15.51-.98,.81-2.36,1.52-3.57,1.56-1.9,.07-3.85-.36-5.68-.91-.22-.07-.05-2.2,.3-3.27,1.66-5.2,4.77-9.49,8.41-13.52,1.73-1.91,2.83-4.4,4.08-6.7,.23-.43-.03-1.29-.32-1.81-.28-.48-1.19-1.16-1.33-1.06-3.79,2.68-9.3,4.67-10.94,8.36-5.24,11.82-17.28,16.38-24.93,25.49-6.94,8.26-16.43,13.43-25.48,19.05-1.09,.68-2.45,1.35-3.66,1.32-1.9-.05-4.31-.15-5.5-1.28-1.01-.96-1.24-3.64-.71-5.17,2.58-7.48,4.88-15.18,8.56-22.12,3.7-7.01,8.96-13.19,13.4-19.82,1.07-1.59,1.69-3.51,2.34-5.35,.15-.42-.34-1.23-.76-1.63-.31-.3-1.26-.49-1.45-.29-8.09,8.91-19.21,14.46-26.66,24.15-3.27,4.25-7.1,8.14-11.06,11.75-5.41,4.93-11.13,9.69-19.08,9.67-3.67-.02-6.36,1.59-8.76,4.15-5.04,5.4-10.12,10.78-15.36,15.99-.75,.74-3.04,1.13-3.63,.6-1.32-1.19-2.58-2.98-2.81-4.68-.26-1.81,.32-3.99,1.18-5.68,3.04-5.9,6.57-11.55,9.49-17.5,3.23-6.58,6.64-12.88,11.02-18.9,6.98-9.61,12.62-20.2,18.78-30.41,.29-.49,.25-1.39,.02-1.96-.71-1.77-1.8-1.99-3.03-.75-1.41,1.43-3.15,2.66-4.18,4.32-8.74,14.2-21.12,25.71-29.5,40.23-5.96,10.33-12.85,20.15-19.54,30.05-1.46,2.16-3.79,3.73-5.79,5.48-.26,.23-1.13,.08-1.49-.19-.5-.39-1.06-1.03-1.11-1.6-.16-1.98-.86-4.39-.04-5.92,6.93-12.92,11.19-27.04,19.05-39.61,5.6-8.96,9.13-19.18,13.71-28.79,3.4-7.14,9.19-13.05,10.78-21.1,.1-.55-.23-1.68-.5-1.73-.99-.17-2.72-.36-2.97,.1-6.45,11.94-16.21,21.19-24.95,31.29-8.29,9.58-17.37,18.36-23.93,29.6-5.72,9.79-15.42,16.56-24.66,23.19-5.28,3.8-12.02,3.97-17.16,1.34-3.51-1.8-5.03-7.48-7.48-11.39-.34-.55-.94-.93-1.42-1.39-.63,.83-1.69,1.61-1.81,2.51-.23,1.99,.11,4.03,.03,6.05-.11,2.65-.09,5.37-.66,7.94-1.28,5.79-5.78,11.09-7.98,9.84-4.39-2.52-3.15-6.97-3.43-10.7-.66-8.72-.88-17.48-1.28-26.22h.03c-.46-10.08-.87-20.17-1.47-30.25-.07-1.15-1.23-2.23-1.89-3.34-.38,.54-1.05,1.03-1.11,1.6-1.69,14.61-8.02,27.82-12.29,41.66-2.58,8.32-6.82,15.66-10.71,23.25-.46,.9-2.09,1.47-3.27,1.67-2.51,.44-3.54-1.38-3.94-3.41-2.78-14.16,1.44-27.58,4.34-41.18,.82-3.85,.76-7.9,.97-11.86,.02-.52-.64-1.18-1.14-1.57-.25-.2-1.14-.1-1.26,.12-1.26,2.32-2.72,4.6-3.58,7.07-5.76,16.44-15.22,30.98-24.22,45.65-8.88,14.49-21.43,25.52-37.04,32.72-3.48,1.61-9.54-3.6-9.21-8.04,.07-.99,1.29-2.34,2.29-2.71,1.06-.4,2.83-.28,3.71,.39,3.89,2.99,7.14,2.76,10.43-.96,5.73-6.51,11.47-12.73,15.85-20.54,10.71-19.06,23.6-36.85,32.82-56.86,2.42-5.25,7.64-9.26,11.76-13.67,.74-.79,2.79-1.36,3.55-.9,1.46,.88,3.3,2.47,3.47,3.94,.7,6,.76,12.07,1.23,18.11,.09,1.22,.89,2.39,1.37,3.59,.76-1.39,1.81-2.69,2.22-4.17,2.9-10.82,5.09-21.77,6.97-32.81,1.43-8.43,3.85-16.77,7.68-24.53,.44-.88,2.15-1.58,3.27-1.59,1.1,0,3.12,.92,3.17,1.55,.62,8.22,4.06,15.29,8.14,22.25,1.27,2.18,1.68,5.01,1.93,7.6,1.1,11.22,.35,22.57,5.33,33.36,2.12,4.59,1.37,10.48,2.03,15.77,.07,.54,.81,1,1.24,1.5,.41-.54,1.16-1.08,1.16-1.62-.05-8.01,.62-16.14-.55-24-1.26-8.47,3.09-15.57,3.93-23.45,.12-1.11,3.08-2.52,4.82-2.67,1.75-.16,4.41,.52,5.33,1.79,6.64,9.25,7.53,19.27,4.6,30.33-2.86,10.78-3.99,22.01-8.13,32.51-.16,.43,.28,1.26,.66,1.7,.3,.35,1.28,.68,1.41,.53,8.08-8.94,16.22-17.84,24.07-26.97,3.01-3.5,5.03-7.87,8.09-11.3,14.33-16.08,28.89-31.95,43.31-47.94,3.38-3.76,6.24-5.89,11.98-2.96,3.87,1.98,5.42-4.83,9.03-6.15,1.07-.39,2.52,.13,3.74,.43,.31,.08,.75,1.07,.59,1.41-1.63,3.64-3.27,7.29-5.1,10.83-1.21,2.33-2.78,4.48-4.06,6.78-.26,.47-.09,1.32,.13,1.9,.68,1.82,1.6,1.78,3.03,.4,7.63-7.3,13.87-15.82,19.54-24.57,5.89-9.11,15.8-14.1,21.67-23.1,1.3-2,4.46-2.81,6.81-4.1,3.47-1.9,6.17,.04,6.91,4.06,1.33,7.29-2.56,12.94-5.4,18.86-2.56,5.38-5.93,10.35-8.7,15.65-.44,.84,.47,2.4,.76,3.63,1.06-.34,2.49-.35,3.14-1.07,11.42-12.35,22.72-24.82,34.15-37.16,.58-.62,2.61-.86,3.1-.39,.84,.81,1.22,2.29,1.36,3.55,.15,1.29,.17,2.86-.42,3.93-2.93,5.2-5.71,10.56-9.24,15.35-9.09,12.33-18.56,24.39-27.82,36.59-.33,.44-.33,1.77-.07,1.91,.88,.49,2.54,1.17,2.88,.82,12.43-13.24,24.73-26.59,37.07-39.91,4.58-4.94,8.98-10.06,13.89-14.64,1.73-1.62,4.7-2.12,7.19-2.67s5.48,2.94,4.54,5.11c-4.99,11.62-11.03,22.69-17.74,33.41-11.63,18.59-22.58,37.65-37.06,54.3-.74,.85-.6,2.51-.76,3.81-.27,2.18,2.14,1.91,4.54-.47,7.08-7.04,12.51-15.87,21.99-20.31,4.88-9.81,14.81-14.95,21.46-23.17,6.34-7.84,14.39-14.48,19.64-22.93,3.05-4.92,9.29-6.38,10.69-11.11,2.03-6.79,8.3-8.37,12.18-12.72,3.57-4,7.48-7.73,11.45-11.34,.75-.69,2.73-.75,3.73-.25,1,.49,1.76,1.94,2.15,3.13,1.16,3.5-.46,6.42-2.08,9.45-4.05,7.58-7.87,15.28-11.73,22.97-.24,.5-.09,1.32,.13,1.91,.69,1.88,1.72,1.99,3.05,.51,.9-.99,1.93-1.86,2.9-2.79,9.18-8.77,19.17-16.36,30.72-21.82,5.15-2.44,6.49-2.72,9.33,2.31,2.25,3.99,3.66,6.97,8.82,4.11,1.35-.74,3.55-.46,5.22-.07,10.75,2.51,14.32,10.91,16.43,20.43,.43,1.93,.66,3.92,1.12,5.84,.12,.49,.76,.84,1.16,1.25,.48-.47,1.15-.86,1.41-1.43,3.57-7.88,7.51-15.63,10.44-23.73,1.93-5.33,5.23-9.26,9-13.09,1.95-1.98,5.97-1.97,6.95,.26,2.1,4.81,5.49,8.88,5.82,14.73,.5,8.52-1.49,17.62,4.23,25.39,.6,.81,.4,2.87-.23,3.8-3.77,5.61-1.97,11.73-1.78,17.67,.03,1.01,1.18,1.99,1.81,2.98,.41-.52,1.2-1.07,1.19-1.59-.28-9.65,7.41-16.8,7.82-26.56,.35-8.4,3.54-16.67,5.22-25.05,.64-3.23,1.26-6.71,.71-9.88-1.54-8.96,2.03-17.1,3.46-25.57,.62-3.66,4.89-4.68,7.59-2.03,1.43,1.4,3.86,3.13,3.74,4.54-.68,8.46,4.28,15.33,6.44,22.88,2.6,9.07,4.57,17.98,4.76,27.36,.2,10.07,6.48,18.82,6.36,29.05-.02,1.44,2.28,3.43,3.95,4.24,1.46,.71,4.79,.76,5.19-.01,6.85-12.95,12.91-26.2,12.03-41.45-.27-4.7-.47-9.43-.19-14.12,.11-1.79,1.49-3.63,2.66-5.18,.72-.96,2.08-1.47,3.24-2.01,.13-.06,1.04,.95,1.13,1.54,.49,3.3,.83,6.62,1.23,9.93,.56,4.63-.09,9.97,2.05,13.69,2.23,3.89-2.01,7.87,1.6,10.9,.75,9.31,1.57,18.61,2.15,27.94"/><path class="d" d="M14.74,172.36c-5.33,.24-9.14-3.42-12.8-6.92-2.21-2.12-2.4-4.09-1.21-6.73,3.07-6.82,5.17-14.25,12.88-17.65,12.92-13.83,13.66-2.54,26.27-7.91,7.09-3.02,14.16-4.66,21.63-5.59,15.35-1.92,28.24-18.26,38.52-30.51,3.44-4.09,8.48-4.6,13.55-1.84,3.36,1.82,6.71,2.07,10.4,.02,10.96-6.08,24.03-5.26,35.36-11.56,10.71-5.96,23.75-7.56,34.93-12.86,15.45-7.32,31.37-7.36,47.65-6.4,3.68,.22,8.62,6.56,8.64,12.37-.78,2.12-1.25,6.26-3.5,8.85-3.19,3.66-7.39,6.72-11.69,9.1-15.27,8.43-30.22,17.83-46.34,24.23-15.05,5.98-28.21,15.97-44.42,19.52-6.08,1.33-10.68,7.24-10.47,14.12,.42,13.66-.32,27.44,5.79,40.54,2.53,5.41,2.64,12.15,2.95,18.33,1.61,31.3,2.52,62.63,4.56,93.89,.7,10.69-3.17,19.55-6.99,28.74-1.56,3.76-5.9,6.83-8.63,5.71-3.33-1.37-7.43-2.76-9.29-5.46-7.07-10.31-12.91-21.22-13.52-34.3-.87-18.78-2.06-37.55-3.54-56.29-1.18-14.79,6.46-41.27-2.33-54.83-.99-9.97-1.94-19.94-2.99-29.9-.46-4.43-6.58-8.74-10.87-7.8-1.22,.27-2.63,.14-3.67,.71-20.83,11.42-48.6,19.4-70.9,20.42"/><path class="d" d="M308.74,215.24c-.34-2.65-.64-5.53-1.08-8.4-1.28-8.27-9.43-15.83-17.64-16.92-12.07-1.61-22.67,1.54-33.04,7.84-6.4,3.88-13.04,7.54-15.23,14.68-2.76,8.97-11.78,17.64-3.1,27.98,1.22,11.51,2.14,23.07,3.77,34.52,1.48,10.35,7.17,18.85,14.32,26.12,1.36,1.39,6.12,1.31,7.98,0,19.82-13.88,30.76-33.81,39.25-56.01,3.79-9.9,5.51-19.33,4.76-29.81m28.75,23.56s-.03,0-.05,0c.27,5.85,.51,11.68,.81,17.53,1.03,19.96-5.57,37.19-18.67,52.06-3.86,4.39-7.82,8.69-11.83,12.94-4.18,4.42-9.4,6.88-15.45,7.23-8.74,.51-17.51,1.24-26.25,.98-4.16-.12-9.06-1.26-12.24-3.72-10.36-8.02-20.3-16.65-29.96-25.52-3.11-2.86-6.37-6.96-6.94-10.88-1.7-11.74-10.35-21.15-10.62-33.13-.19-9.1-4.08-16.61-7.76-24.67-5.01-10.97-5.21-22.69,2.88-33.1,4.5-5.78,7.97-11.98,10.72-18.91,2.71-6.82,8.48-11.67,15.41-14.87,5.3-2.44,10.24-5.67,15.6-7.93,2.56-1.08,5.92-1.53,8.6-.91,12.71,2.96,25.09,7.27,38.41,7.33,2.63,.01,5.44,2.01,7.82,3.62,3.62,2.45,7.09,5.17,10.34,8.11,29.54,26.69,27.17,22.14,28.98,59.43,.07,1.45,.13,2.92,.19,4.39"/><path class="d" d="M531.56,103.23c-5.27,11.57-11.48,22.71-17.41,33.97-14.67,27.81-15.17,53.58,10.13,76.16,3.75,3.34,6.59,7.85,9.27,12.19,5.66,9.15-2.18,21.83-13.6,21.56-7.5-.17-16.4,.65-22.17-2.96-14.36-8.98-18.36-5.17-26.65,9.31-9.3,16.25-9.68,34.05-17.06,49.95-11.73,25.27-46.57,29.17-63.57,7.28-16.21-20.88-24.42-43.12-10.02-68.67,1.16-2.05,.55-5.06,.95-7.59,2.79-17.4,21.22-31.54,14.09-50.23-8.48-22.25-26.26-36.86-48.5-46.05-3.93-1.62-6.8-6.6-9.28-10.58-1.15-1.84-1.2-5.85,.06-7.41,2.86-3.53,6.84-6.16,12.46-10.95,17,8.24,34.94,17.15,53.08,25.63,11.38,5.31,19.43,2.06,22.61-10.91,7.41-30.16,18.09-58.12,41.74-79.81,8.6-7.89,15.99-10.23,26.18-2.77,6.01,4.4,14.16,5.77,20.56,9.76,20.82,13,26.71,31.02,17.11,52.11"/><path class="d" d="M713.8,230.98c-4.09,1.97-8.43,5.98-12.2,5.5-8.98-1.16-17.67-4.44-26.49-6.84-8.9-2.43-17.69-5.98-26.76-6.94-11.56-1.21-22.86-1.24-29.06,12.98-9.32,21.39-19.77,42.38-31.35,62.62-2.42,4.24-13.73,7.84-17.53,5.7-4.61-2.6-8.87-12.39-7.6-17.71,4.81-20.14,11.08-40.06,18.53-59.4,3.88-10.07,18.13-21.74,15.64-27.38-3.89-8.83-18.01-13.14-27.76-19.42-9.75-6.28-19.87-12.11-28.94-19.25-2.87-2.27-5.3-10.18-3.79-11.93,3.78-4.38,10.58-10.09,15-9.23,13.45,2.6,26.32,8.11,39.46,12.36,8.26,2.67,17.66,8.74,24.6,6.69,8.01-2.36,15.24-11.06,20.43-18.64,14.38-21.01,27.49-42.91,41.24-64.36,1.22-1.9,3.52-3.1,5.31-4.64,2.32,3.48,4.98,6.78,6.82,10.5,.97,1.95,.47,4.63,1.13,14.11-2.57,6.63-6.46,19.82-12.65,31.82-7.44,14.44-16.88,27.85-25.36,41.77-6.03,9.88-3.12,17.34,6.55,22.77,16.2,9.09,32.61,17.85,48.45,27.55,3.21,1.97,4.26,7.49,6.31,11.38"/><path class="d" d="M863.03,279.92c-4.82-2.1-10.34-2.55-15.54-3.8-3.23-.77-5.42-3.05-4.13-5.21,3.88-6.51-4.34-12.79-.09-18.81,3.06-4.35,6.75-8.3,10.52-12.07,5.04-5.05,7.43-10.9,7.16-18.02-.31-8.05-.36-16.11-.6-24.16-.2-6.77,.33-13.35,3.33-19.61,1.14-2.37,2.22-5.19,2.01-7.7-1.7-19.49,4.86-36.9,12.96-54,1.36-2.86-2.41-8.7-5.77-9.04-5.34-.54-10.82-.27-16.01-1.43-3.71-.83-7.22-3.15-10.49-5.31-3.78-2.49-3.89-7.89-.3-9.41,7.34-3.12,13.57-8.61,22.01-9.45,5.27-.53,11.06-1.11,15.51-3.62,11.07-6.24,23.07-6.45,38.32-7.64,3.37,.39,9.92,1.16,16.47,1.9,2.75,.31,5.51,7.65,3.95,10.1-.72,1.13-1.04,2.65-1.99,3.48-5.95,5.25-12.02,10.34-18.06,15.5-1.56,11.89-3.62,23.61-6.76,35.28-2.73,10.16,.76,21.38-4.11,31.61-5.26,11.08-1.38,23.9-6.83,35.29-4.63,9.67-1.1,21.32-5.8,31.42-1.76,3.79,.96,5.84,7.24,6.25,4.01,.26,8.04,.17,12.04,.55,4.82,.46,7.8,3.68,7.97,7.44,.19,4.42-1.69,7.87-5.04,10.1-5.53,3.69-11.27,7.15-17.26,10.01-7.19,3.44-15.15,5.41-21.98,9.39-6.51,3.79-12.04,3.9-18.73,.98"/><path class="d" d="M1005.12,101.32c-3.39-5.52-4.41-12.73-10.98-16.05-.96-.49-2.25-.88-3.21-.62-.8,.22-1.89,1.42-1.9,2.21-.25,10.98-.33,21.97-.38,26.1,.72,15.72,1.01,24.57,1.62,33.41,.14,2.02,1.29,4.04,2.27,5.91,.45,.87,1.68,2.06,2.39,1.96,2.03-.29,4.46-.66,5.82-1.96,1.41-1.35,2.17-3.76,2.49-5.81,1.36-8.66-.95-17.68,3.31-26.12,3.2-6.35,2.25-13.03-1.43-19.01m70.59,49.67c-11.73,6.45-23.02,13.74-36.23,17.65-14.97,4.43-29.4,10.73-44,16.36-4.43,1.7-7.37,5.33-9.11,9.52-2.14,5.17-4.49,10.54-5.11,16-1.02,8.92,.27,18.17-1.25,26.95-1.53,8.78-5.4,17.14-4.41,26.38,1.02,9.59-4.31,17.2-8.02,25.29-1.72,3.74-8.57,4.21-11.63,.86-3.03-3.33-6.06-6.74-6.31-11.58-.4-7.87-.73-15.75-1.09-23.63-.56-11.12-2.41-22.36,1.85-33.21-7.24-9.9,1.75-19.33,.91-29.15-.77-8.95-.87-18.1,.16-27,.75-6.55,4.15-12.81-.47-19.21-.53-.73-.42-2.4,.05-3.29,4.9-9.46,3.51-19.73,4.23-29.76,.23-3.2,1.28-6.86,3.2-9.33,4.95-6.38,8.01-13.08,9.36-21.21,1.07-6.46,4.45-12.68,7.54-18.62,2.67-5.15,7.18-8.56,13.31-9.11,5.61-.5,11.22-1.09,16.83-1.46,5.69-.38,10.79-2.45,16.11-4.38,11.51-4.17,23.43-7.62,35.3-10.2,14.19-3.09,29.01-4.1,43.7-2.56,2.76,.29,3.92,2.27,3.4,4.35-.27,1.06-.68,2.14-1.3,3.04-4.07,5.94-10.91,7.99-16.86,10.76-9.06,4.23-18.59,8.24-28.34,10-13.32,2.41-25.01,9.97-38.61,11.03-2.28,.18-4.82,5.48-4.33,8.42,.73,4.42,.66,9.32,2.66,13.1,6.28,11.83,7.08,23.29,1.13,35.49-1.29,2.64-.07,6.59,.31,9.9,.11,.93,1.59,2.59,2.05,2.46,6.39-1.73,12.52-4.11,19.13-5.37,7.61-1.45,14.73-5.34,22.31-7.03,6.61-1.47,13.29-2.24,19.23-5.84,.82-.5,2.4-.46,3.3-.02,1.82,.91,3.59,2.1,5.04,3.52,.66,.65,.98,2.29,.66,3.21-2.62,7.77-7.94,13.98-14.71,17.7"/><path class="d" d="M1228.92,74.1c-4.12,10.1-5.72,20.34-4.8,31.23,.8,9.36,.09,18.61-4.12,27.45-1.64,3.44-1.68,7.79-1.84,11.74-.22,5.35,.27,10.72,.24,16.08-.07,9.35-.31,18.69-.47,28.04-8.12,10.47-2.09,23.97-7.44,34.92-3.67,7.52-3.61,15.39-4.4,23.39-.78,7.79-4.18,15.27-5.68,23.04-1.74,9.1,1.52,18.92-3.3,27.6-3.89,7-8.36,13.67-12.48,20.55-3.05,5.09-7.46,7.18-13.3,6.62-5.11-.5-9.71-5.15-10.05-10.62-.43-6.67-.64-13.36-.95-20.05-.58-13.32-2.23-26.71,4.41-39.39,1.7-3.24,1.18-7.94,.84-11.89-.84-9.62,1.6-18.34,4.91-27.3,2.9-7.83,1.27-15.84-5.5-21.94-16.9-15.27-33.8-30.55-50.66-45.86-7.09-6.44-11.6-14.64-15.25-23.34-.37-.88,0-2.93,.57-3.18,2.27-.99,5.42-2.79,7.05-1.95,10.88,5.54,18.92,14.68,27.63,22.95,10.66,10.11,20.8,20.93,33.82,28.11,1.57,.86,6.07-.41,6.9-1.94,4.4-8.16,9.05-16.16,10.63-25.69,3.06-18.4,11.07-35.5,14.52-53.94,1.65-8.82,4.58-18.29,11.43-25.27,1.79-1.82,4.12-3.66,6.5-4.2,4.1-.92,12.59,10.42,10.8,14.81"/><path class="e" d="M1141.01,371.11c-.1,.21-.17,.48-.35,.6-1.07,.7-2.29,1.06-3.5,1.39-1.45,.39-3.04,.44-4.38,1.06-1.24,.57-2.46,.63-3.74,.76-1.26,.13-2.54-.01-3.75,.74-.62,.39-1.61,.16-2.43,.26-1.84,.22-3.69-.02-5.52,.81-1.1,.5-2.56,.2-3.84,.34-1.49,.16-3.05-.19-4.45,.79-.42,.29-1.15,.12-1.73,.18-1.04,.11-2.09,0-3.05,.67-.42,.3-1.13,.19-1.71,.26-1.38,.15-2.81-.08-4.09,.8-.42,.29-1.15,.12-1.74,.18-1.27,.13-2.57-.05-3.76,.73-.44,.29-1.14,.15-1.72,.23-1.61,.22-3.32-.16-4.78,.88-1.53,.1-3.06,.18-4.59,.3-1.27,.1-2.51,.1-3.76,.67-1,.46-2.31,.22-3.48,.35-1.72,.19-3.52-.17-5.15,.84-.44,.27-1.15,.13-1.74,.16-2.35,.11-4.71,.22-7.06,.33v.03c-2.35,.11-4.72,.11-7.06,.36-1.59,.17-2.96-.47-4.42-.79-.12-.02-.24-.39-.22-.57,.02-.19,.2-.51,.34-.53,1.04-.12,2.08-.41,3.1,.12,.67,.35,1.38,.34,2-.09,.74-.51,1.57-.38,2.38-.47,1.85-.19,3.68-.08,5.51-.85,1.23-.52,2.79-.23,4.2-.36,1.61-.15,3.27,.18,4.8-.78,.53-.33,1.38-.14,2.09-.2,1.15-.1,2.33,.04,3.39-.72,.42-.3,1.14-.17,1.72-.23,1.61-.19,3.31,.16,4.78-.85,.17-.12,.47-.1,.7-.08,2.39,.24,4.5-1.26,6.88-1.09,1.47-1.09,3.38-.6,4.98-1.46,1.05-.57,2.56-.14,3.66-.98,1.8,.16,3.32-1.11,5.11-1.02,1.07,.05,1.84-.96,3-.85,1.04,.1,2.05-.13,3.03-.71,.54-.33,1.38-.16,2.09-.2,6.36-.31,12.72-.56,19.07-.95,1.84-.11,3.79,.35,5.51-.77,.16-.1,.52-.1,.66,.01,.83,.65,1.84,.24,2.72,.52,.11,.03,.29,.17,.28,.19"/><path class="d" d="M768.04,241.77c-6.07,5.89-12.23,11.66-17.06,18.83-8.75,12.98-23.41,28.22-33.05,34.43-2.01,1.29-5.45,.69-8.17,.42-2.36-.23-4.77-4.7-3.85-6.6,9.54-19.42,18.99-38.9,28.78-58.19,2.1-4.15,5.55-7.6,8.3-11.43,1.24-1.73,.69-6.24-.88-7.91-3.88-4.12-7.76-8.26-11.73-12.29-5.98-6.05-12.34-11.75-17.99-18.08-10.07-11.28-18.33-23.84-23.81-38-.88-2.28,.09-5.48,.78-8.1,.54-2.05,2.54-2.99,4.56-2.49,7.41,1.82,14.07,5.18,19.6,10.48,10.9,10.47,21.68,21.06,32.54,31.57,4.07,3.93,8.21,7.78,12.35,11.63,1.7,1.58,6.23,1.15,7.74-.65,6.67-7.91,11.81-16.9,17.96-25.18,12.86-17.33,24.31-35.86,41.37-49.67,3.09-2.5,6.83-2.91,10.67-1.59,2.47,.85,4.77,4.06,4.59,6.42-.15,1.87,.25,3.86-.25,5.6-1.04,3.6-3.38,6.99-3.7,10.6-1.36,15.65-8.95,28.71-17.41,41.1-5.79,8.48-10.45,17.78-18.13,25.16-4.56,4.38-7.1,10.97-10.11,16.78-.66,1.28-.07,4.08,.97,5.23,5.73,6.25,11.88,12.11,17.69,18.29,4.51,4.8,8.96,9.69,13.01,14.88,2.4,3.09,2.54,6.95,.77,10.6-.4,.82-1.5,2.15-1.8,2.04-4.36-1.73-9.02-3.11-12.88-5.67-8.61-5.71-16.73-12.14-25.23-18.03-2.24-1.56-5.13-2.19-7.95-3.34-2.6,1.01-5.83,1.35-7.66,3.13h0Z"/></g></g></g></svg>