<svg width="400" height="400" viewBox="0 0 400 400" fill="none" xmlns="http://www.w3.org/2000/svg">
    <path
        d="M212.877 30H126.94L62.146 168.411c-17.559 37.509-26.338 56.263-23.678 70.59 2.34 12.601 10.69 22.847 23.855 29.268 14.965 7.3 39.03 7.3 87.159 7.3h63.02l27.172-58.044c1.463-3.126 2.195-4.689 1.973-5.882-.195-1.05-.891-1.904-1.988-2.439-1.247-.609-3.252-.609-7.263-.609h-57.291c-16.043 0-24.065 0-29.053-2.433-4.388-2.14-7.172-5.556-7.952-9.756-.886-4.776 2.04-11.027 7.893-23.53L212.877 30Z"
        fill="#fff" />
    <path
        d="M187.504 370h85.937l64.793-138.411c17.559-37.509 26.339-56.263 23.679-70.589-2.34-12.602-10.691-22.847-23.855-29.269-14.965-7.299-39.03-7.299-87.159-7.299h-63.021l-27.171 58.043c-1.463 3.126-2.195 4.689-1.973 5.883.194 1.05.891 1.904 1.988 2.439 1.247.608 3.252.608 7.263.608h57.291c16.043 0 24.065 0 29.053 2.433 4.388 2.141 7.172 5.556 7.952 9.756.886 4.776-2.04 11.027-7.893 23.53L187.504 370Z"
        fill="#fff" />
</svg>