<svg width="211" height="48" viewBox="0 0 211 48" fill="none" xmlns="http://www.w3.org/2000/svg">
  <g clip-path="url(#clip0_1939_14907)">
    <path
      d="M88.0355 13.9312V26.5607L83.178 13.9312H78.0649V34.0705H81.9123V21.372L86.8882 34.0705H91.8872V13.9312H88.0355Z"
      fill="white" />
    <path
      d="M151.012 13.9312V21.8969H145.005V13.9312H141.124V34.0705H145.005V25.5037H151.012V34.0705H154.89V13.9312H151.012Z"
      fill="white" />
    <path d="M124.298 13.7744L121.418 23.7722L118.696 13.7744H114.849L121.428 34.6357L128.007 13.7744H124.298Z"
      fill="white" />
    <path d="M136.927 13.7744L130.208 34.9291L126.73 23.0028L128.574 17.8256L130.339 24.1231L133.452 13.7744H136.927Z"
      fill="white" />
    <path
      d="M66.0732 23.6945L73.8271 13.9297H69.2654L62.2705 22.9596L61.4595 23.9318L69.6146 34.0691H74.6107L66.0732 23.6945Z"
      fill="white" />
    <path d="M61.3459 13.9297H57.4971V34.0705H61.3459V13.9297Z" fill="white" />
    <path
      d="M188.917 25.2578C189.77 24.8874 190.508 24.2972 191.056 23.5479C191.747 22.59 192.111 21.4359 192.094 20.2561V19.5586C192.094 17.7897 191.475 16.3861 190.254 15.388C189.078 14.4231 187.277 13.9355 184.903 13.9355C184.236 13.9355 179.114 13.9355 178.458 13.9528L177.269 13.9787L179.215 17.4215L179.648 17.4086C180.303 17.387 184.382 17.377 184.852 17.377C186.129 17.377 187.046 17.574 187.575 17.9623C188.044 18.3117 188.272 18.8596 188.272 19.6391V20.2C188.272 21.3979 187.893 22.7742 184.933 22.7742C184.797 22.7742 184.598 22.7742 184.356 22.7814C183.786 22.7915 182.926 22.8087 182.462 22.7728L181.695 22.7124V26.0661L182.37 26.102C182.866 26.1279 184.102 26.1279 184.626 26.1279C184.823 26.1279 184.984 26.1279 185.116 26.1279L189.59 34.0749H193.899L188.917 25.2578Z"
      fill="white" />
    <path
      d="M108.782 15.6972C107.668 14.5251 105.959 13.9326 103.7 13.9326C101.442 13.9326 99.7376 14.5251 98.6235 15.6972C97.5094 16.8693 96.9639 18.4986 96.9639 20.5666V27.4308C96.9639 29.4973 97.5224 31.1339 98.6235 32.2974C99.7246 33.4608 101.445 34.0619 103.7 34.0619C105.956 34.0619 107.668 33.468 108.782 32.2974C109.896 31.1267 110.437 29.5045 110.437 27.4308V20.5609C110.437 18.4914 109.88 16.8534 108.782 15.6972ZM106.678 27.6824C106.678 28.6589 106.437 29.3967 105.956 29.8727C105.475 30.3487 104.713 30.5917 103.695 30.5917C102.676 30.5917 101.92 30.3501 101.442 29.8727C100.964 29.3952 100.72 28.6589 100.72 27.6824V20.292C100.72 19.3169 100.961 18.5835 101.442 18.1161C101.922 17.6487 102.68 17.4085 103.7 17.4085C104.721 17.4085 105.48 17.6516 105.957 18.1276C106.435 18.6036 106.679 19.3399 106.679 20.315L106.678 27.6824Z"
      fill="white" />
    <path d="M173.663 13.9312H159.904V17.5638H173.663V13.9312Z" fill="white" />
    <path d="M173.663 22.0464H159.904V25.6791H173.663V22.0464Z" fill="white" />
    <path d="M173.663 30.4365H159.904V34.0692H173.663V30.4365Z" fill="white" />
    <path d="M211 13.9312H197.241V17.5638H211V13.9312Z" fill="white" />
    <path d="M211 22.0464H197.241V25.6791H211V22.0464Z" fill="white" />
    <path d="M211 30.4365H197.241V34.0692H211V30.4365Z" fill="white" />
    <path fill-rule="evenodd" clip-rule="evenodd"
      d="M17.6281 38.101C17.9191 38.388 18.2426 38.6404 18.5921 38.8531C19.2113 39.2289 19.9008 39.4752 20.6186 39.5768C21.3364 39.6784 22.0674 39.6333 22.7671 39.4442L33.1129 36.6226C34.0118 36.3761 34.8299 35.8988 35.4856 35.2383C36.1413 34.5778 36.6115 33.7574 36.8491 32.8591L39.5694 22.519C39.8046 21.6202 39.7988 20.6755 39.5527 19.7796C39.3065 18.8836 38.8286 18.0678 38.1667 17.4137L30.5412 9.89523C29.8777 9.24287 29.0541 8.77547 28.1525 8.53976C27.2509 8.30405 26.3031 8.30829 25.4037 8.55203L15.0579 11.3751C14.159 11.6212 13.3409 12.0982 12.6852 12.7585C12.0295 13.4187 11.5593 14.239 11.3216 15.1372L8.59987 25.4772C8.36503 26.3763 8.37099 27.3211 8.61714 28.2172C8.86328 29.1133 9.34098 29.9294 10.0026 30.584L17.6281 38.101ZM27.5194 8.64385C28.2065 8.74103 28.8665 8.97697 29.4589 9.33724C29.7931 9.54062 30.1026 9.78191 30.381 10.0563L30.6327 10.3045C30.0617 9.77852 29.3778 9.38643 28.6311 9.15926C27.765 8.8958 26.8447 8.86342 25.9621 9.06534L15.8155 11.4037L15.8018 11.4069L25.4629 8.77207C26.1325 8.5903 26.8322 8.54667 27.5194 8.64385ZM15.4538 11.5018L15.1171 11.5937C14.2578 11.8294 13.4754 12.2854 12.848 12.9162C12.2206 13.547 11.77 14.3306 11.541 15.1889L9.00411 24.8318L12.0431 14.9142C12.3091 14.0514 12.7973 13.2733 13.4592 12.6573C14.0296 12.1265 14.7118 11.7322 15.4538 11.5018ZM8.9022 25.2191L8.82067 25.529C8.59511 26.3898 8.60036 27.2945 8.83589 28.1526C9.07143 29.0107 9.52899 29.7921 10.1628 30.4186L17.2167 37.3735L10.1671 29.8475C9.55023 29.1868 9.11806 28.3764 8.9137 27.4973C8.73922 26.7466 8.73602 25.9682 8.9022 25.2191ZM17.6161 37.7673C17.8445 37.9694 18.0909 38.1509 18.3525 38.3094C19.5065 39.012 20.8905 39.2366 22.2085 38.935L32.2305 36.624L22.7065 39.2227C21.8454 39.4557 20.9382 39.4596 20.0752 39.234C19.2122 39.0084 18.4237 38.5612 17.7883 37.9371L17.6161 37.7673ZM32.8359 36.4588L33.0523 36.3997C33.9119 36.1646 34.6945 35.7089 35.3221 35.078C35.9496 34.4471 36.4 33.6631 36.6283 32.8044L39.1529 23.2083L36.1275 33.0862C35.8616 33.9488 35.3734 34.7268 34.7114 35.3425C34.1717 35.8446 33.5318 36.2245 32.8359 36.4588ZM39.2769 22.7371L39.3486 22.4644C39.5745 21.6036 39.5694 20.6988 39.3339 19.8407C39.0983 18.9825 38.6406 18.2011 38.0065 17.5748L30.8829 10.5511L30.8976 10.5667L38.0036 18.1528C38.6206 18.8134 39.0527 19.6239 39.2568 20.5031C39.4277 21.2391 39.4338 22.0017 39.2769 22.7371ZM29.6984 9.88074C28.5954 9.20905 27.2723 8.99479 26.0126 9.28392L16.9193 11.3799L26.4826 9.5702C27.3473 9.40815 28.2396 9.47508 29.0702 9.76429C29.7053 9.98541 30.2874 10.3306 30.7834 10.7773L30.7302 10.7206C30.426 10.3962 30.0789 10.1146 29.6984 9.88362V9.88074ZM15.8674 11.6223L15.9482 11.6037C15.3128 11.8087 14.7226 12.1384 14.2136 12.5755C13.5471 13.1478 13.0429 13.8843 12.7512 14.7115L9.49851 23.9923L12.2596 14.9774C12.5137 14.1524 12.9806 13.4084 13.6137 12.8196C14.2469 12.2308 15.024 11.8179 15.8674 11.6223ZM9.22037 24.9004L9.26431 24.757C9.11165 25.4269 9.09838 26.1229 9.22771 26.8017C9.3918 27.663 9.77973 28.4663 10.3528 29.1314L16.8659 36.6652L10.3316 29.6894C9.74177 29.058 9.32871 28.2833 9.1337 27.4429C8.93868 26.6025 8.96857 25.7257 9.22037 24.9004ZM18.1355 37.7717C17.8394 37.5899 17.5632 37.3784 17.3113 37.1407L17.4375 37.2754C18.0289 37.9055 18.7758 38.37 19.6036 38.6223C20.4315 38.8747 21.3113 38.9061 22.1552 38.7135L31.6005 36.5354L21.6857 38.4116C20.4636 38.6438 19.1985 38.4158 18.1355 37.7717ZM32.3018 36.3737L32.0156 36.4397C32.729 36.2431 33.3917 35.8913 33.9551 35.4078C34.6217 34.8356 35.1258 34.0991 35.417 33.2718L38.7118 23.8711L35.9096 33.02C35.6553 33.8448 35.1883 34.5886 34.5552 35.1771C33.9221 35.7656 33.1451 36.1782 32.3018 36.3737ZM38.9488 23.097L38.8871 23.2987C39.056 22.6064 39.0752 21.8843 38.9412 21.1807C38.7771 20.3192 38.3889 19.5156 37.8155 18.8504L31.4522 11.4913L37.8376 18.3081C38.4271 18.9397 38.8399 19.7144 39.0349 20.5547C39.2299 21.3951 39.2002 22.2717 38.9488 23.097ZM26.5259 9.80175C27.6933 9.58198 28.9009 9.80237 29.9144 10.4201C30.3387 10.6771 30.72 10.9989 31.0443 11.3736L31.1068 11.4458C30.6408 10.9894 30.0863 10.6293 29.4749 10.3889C28.6797 10.0762 27.8162 9.97687 26.9704 10.1008L17.6138 11.4869L26.5259 9.80175ZM31.7075 12.1406L37.6078 19.5406C38.1392 20.208 38.4855 21.0028 38.6122 21.8455C38.7056 22.4675 38.677 23.0994 38.5301 23.7068L38.5356 23.6911C38.811 22.9005 38.8735 22.0519 38.717 21.2298C38.5605 20.4077 38.1905 19.6408 37.6438 19.0057L31.7075 12.1406ZM38.1404 24.8189L34.7215 33.4414C34.4069 34.2334 33.8891 34.9291 33.22 35.4591C32.7215 35.8539 32.152 36.1465 31.5444 36.3224L31.5769 36.3163C32.4016 36.1592 33.1706 35.7891 33.8067 35.243C34.4429 34.6968 34.9241 33.9938 35.202 33.2042L38.1404 24.8189ZM30.4526 36.529L21.6438 38.1959C20.8185 38.3504 19.9669 38.2866 19.1741 38.0108C18.3813 37.735 17.6749 37.2568 17.1254 36.624L17.0718 36.5621C17.3349 36.8187 17.6268 37.0451 17.9422 37.2366C18.9165 37.8309 20.0692 38.0656 21.1994 37.8996L30.4526 36.529ZM16.4526 35.8458L10.5621 28.4583C10.0307 27.7911 9.68445 26.9966 9.55783 26.1542C9.4636 25.5273 9.49347 24.8902 9.64343 24.2785L9.63408 24.3051C9.35816 25.0956 9.29531 25.9443 9.45182 26.7666C9.60833 27.5888 9.97871 28.3557 10.5259 28.9905L16.4526 35.8458ZM10.0163 23.2145L13.4483 14.559C13.7633 13.767 14.2814 13.0713 14.9507 12.5413C15.4622 12.1363 16.0484 11.8389 16.6737 11.6646L16.5928 11.6799C15.768 11.8374 14.9991 12.2078 14.363 12.7542C13.7268 13.3005 13.2457 14.0037 12.9677 14.7934L10.0163 23.2145ZM30.1092 10.9536C29.1798 10.3882 28.0811 10.1649 27.0036 10.3223L18.4042 11.596L27.4196 10.6215C28.2453 10.5339 29.0796 10.6636 29.8393 10.9977C30.4002 11.2444 30.9059 11.5961 31.33 12.0318L31.32 12.0192C30.9837 11.5963 30.5753 11.2356 30.1136 10.9536H30.1092ZM15.6637 12.53C16.1636 12.1655 16.7285 11.9032 17.3259 11.7557L17.2943 11.7604C16.4889 11.8813 15.7294 12.2105 15.0915 12.7152C14.4537 13.2198 13.9598 13.8824 13.659 14.6366L10.4348 22.768L14.1269 14.4311C14.4635 13.6743 14.9934 13.0188 15.6637 12.53ZM10.0512 23.7356L10.0744 23.6771C9.89633 24.2759 9.83853 24.906 9.90662 25.5308C9.99627 26.3536 10.301 27.1384 10.7904 27.807L16.1302 35.078L10.7352 28.3117C10.2294 27.6752 9.90001 26.9177 9.77997 26.1146C9.65993 25.3116 9.75344 24.4913 10.0512 23.7356ZM17.7708 36.7089C17.4305 36.5027 17.1187 36.2546 16.8424 35.9712C17.3502 36.6053 18.0159 37.0958 18.7732 37.3936C19.5311 37.6916 20.3543 37.7862 21.1604 37.668L29.6019 36.4177L20.7466 37.3748C19.7081 37.4851 18.6622 37.251 17.7708 36.7089ZM33.0722 35.2755C32.4437 35.773 31.6969 36.0998 30.9045 36.2246C31.4785 36.0746 32.0212 35.8182 32.5035 35.4667C33.1737 34.9781 33.7038 34.323 34.0406 33.5666L37.6742 25.3575L34.5036 33.3537C34.2035 34.1081 33.7099 34.7708 33.0722 35.2755ZM38.1114 24.2547L38.1086 24.2619C38.2737 23.6803 38.3259 23.0705 38.2602 22.4656C38.1708 21.6429 37.8663 20.858 37.3772 20.1893L32.0414 12.9238L37.4274 19.6772C37.9332 20.3139 38.2626 21.0717 38.3826 21.875C38.5026 22.6782 38.4091 23.4988 38.1114 24.2547ZM27.447 10.8473C28.436 10.7424 29.4322 10.9654 30.2813 11.4815C30.7479 11.7661 31.1584 12.1327 31.493 12.5631C31.1169 12.17 30.6726 11.8447 30.1793 11.6043C29.4547 11.2511 28.6498 11.0932 27.8449 11.1463L19.2677 11.7313L27.447 10.8473ZM17.9121 11.8783C17.3592 12.0029 16.8322 12.2286 16.3584 12.5459C15.6888 12.9943 15.1491 13.6102 14.7933 14.3317L11.0301 21.9916L14.3376 14.5217C14.6577 13.8015 15.162 13.1776 15.7999 12.7125C16.4214 12.2594 17.1485 11.9724 17.9121 11.8783ZM10.4619 23.2764C10.1658 23.9792 10.0534 24.7458 10.1359 25.5043C10.221 26.2865 10.5103 27.0329 10.9751 27.6689L15.7777 34.2084L11.0382 27.1827C10.5893 26.5148 10.3241 25.7412 10.2691 24.9392C10.2305 24.3759 10.2966 23.8123 10.4619 23.2764ZM16.6659 35.4156C16.9472 35.7133 17.268 35.9729 17.6203 36.1868C18.4328 36.6812 19.3793 36.9118 20.3291 36.8468L28.8328 36.2682L20.7234 37.1447C19.9376 37.2285 19.1435 37.1052 18.4204 36.7872C17.7292 36.4832 17.1261 36.0114 16.6659 35.4156ZM30.2837 36.1104C31.0379 36.0129 31.7557 35.7271 32.3703 35.2791C33.0082 34.814 33.5125 34.1903 33.8328 33.4703L37.0962 26.1015L33.3808 33.6614C33.0243 34.3826 32.4845 34.9982 31.815 35.4468C31.3476 35.76 30.8284 35.9842 30.2837 36.1104ZM37.7259 24.675C38.0088 23.9836 38.1149 23.2324 38.0338 22.4889C37.9485 21.7067 37.6589 20.9604 37.1939 20.3245L32.4501 13.8638L37.1358 20.8104C37.585 21.4782 37.8504 22.2517 37.9056 23.0537C37.9434 23.6025 37.8818 24.1515 37.7259 24.675ZM30.431 12.0034C29.6583 11.5331 28.7584 11.313 27.855 11.3735L20.0554 11.9042L28.2244 11.6726C29.0083 11.651 29.784 11.8351 30.4739 12.2063C30.9391 12.4567 31.3543 12.7862 31.7016 13.1781C31.3617 12.706 30.9297 12.3063 30.431 12.0034ZM17.032 12.5891C17.4873 12.3095 17.9875 12.1144 18.5082 12.0111C17.7828 12.0802 17.0855 12.3285 16.4799 12.7344C15.8435 13.1609 15.3305 13.7464 14.9924 14.4324L11.5067 21.5263L15.4426 14.2627C15.8165 13.5759 16.3645 12.9989 17.032 12.5891ZM10.491 24.9234C10.4407 24.1879 10.578 23.452 10.8895 22.7843C10.7108 23.2947 10.6261 23.8352 10.6417 24.3795C10.664 25.1604 10.8917 25.9218 11.3023 26.5873L15.6543 33.6273L11.2215 27.0562C10.795 26.4211 10.5432 25.6858 10.491 24.9234ZM17.4904 35.6719C17.0919 35.4305 16.7352 35.129 16.4326 34.7792C16.8569 35.3799 17.4267 35.8647 18.0897 36.188C18.7785 36.5238 19.5437 36.6737 20.3089 36.6225L28.0697 36.0944L19.9438 36.3248C19.0798 36.3486 18.2275 36.1218 17.4904 35.6719ZM31.6828 35.2617C31.0865 35.6612 30.4015 35.9081 29.6882 35.9817C30.1992 35.8774 30.6899 35.6846 31.1374 35.4099C31.8048 35.0003 32.3524 34.4231 32.7256 33.7362L36.5934 26.5994L33.1701 33.5651C32.8317 34.2505 32.3189 34.8355 31.6828 35.2617ZM37.6727 23.0724C37.7221 23.7915 37.5921 24.511 37.2951 25.1668C37.4623 24.6699 37.5412 24.1456 37.5259 23.6178C37.5034 22.837 37.2758 22.0758 36.8659 21.4101L32.5909 14.4925L36.941 20.9399C37.3679 21.5746 37.6202 22.31 37.6727 23.0724ZM28.2374 11.897C29.0558 11.8764 29.8627 12.0922 30.5609 12.5182C31.0798 12.833 31.5246 13.2544 31.8658 13.7536C31.5497 13.3757 31.17 13.0526 30.742 12.7999C30.0868 12.413 29.3412 12.2043 28.5797 12.1947L20.809 12.1075L28.2374 11.897ZM19.064 12.1619C18.5811 12.2463 18.1141 12.4118 17.6834 12.6531C17.0197 13.0251 16.4655 13.5643 16.0764 14.2167L12.1794 20.7732L15.6504 14.3677C16.0048 13.7161 16.5244 13.1685 17.1575 12.7796C17.7353 12.4247 18.3891 12.2133 19.064 12.1619ZM11.275 22.4575C10.9952 23.0547 10.8586 23.7098 10.8776 24.3708C10.8989 25.112 11.115 25.8346 11.5043 26.4665L15.302 32.6116L11.5826 26.0207C11.2103 25.3584 11.0189 24.6104 11.0275 23.8513C11.0329 23.3744 11.1171 22.9037 11.275 22.4575ZM16.3542 34.2998C16.6476 34.638 16.9932 34.9301 17.3796 35.1643C18.046 35.5697 18.8097 35.7888 19.5905 35.7985L27.482 35.887L19.9452 36.1019C19.201 36.121 18.4647 35.9452 17.81 35.5919C17.2299 35.2787 16.7319 34.836 16.3542 34.2998ZM29.0512 35.8401C29.7493 35.7979 30.4268 35.5846 31.0234 35.2184C31.6565 34.8298 32.1762 34.2825 32.5307 33.6312L36.1562 26.9416L32.0937 33.7765C31.7041 34.4287 31.1496 34.9677 30.4857 35.3396C30.039 35.5899 29.5532 35.7586 29.0512 35.8401ZM36.8498 25.6585C37.1681 25.0301 37.3246 24.3321 37.3044 23.6274C37.2831 22.8865 37.0672 22.1641 36.6783 21.5323L32.7652 15.2005L36.5877 21.9739C36.96 22.6359 37.1514 23.3837 37.1428 24.1426C37.1368 24.6632 37.037 25.1765 36.8498 25.6585ZM30.6708 13.0259C30.0398 12.6415 29.3164 12.4338 28.5768 12.4248L21.6586 12.3472L28.8999 12.7167C29.639 12.7555 30.355 12.987 30.9763 13.388C31.3585 13.6348 31.6966 13.9404 31.9789 14.2919C31.6443 13.7784 31.1975 13.3454 30.6708 13.0259ZM17.7942 12.8561C18.3353 12.5521 18.9373 12.3745 19.5547 12.3352C19.1236 12.4054 18.7042 12.5421 18.312 12.742C17.6536 13.0776 17.0951 13.5797 16.6925 14.198L12.7444 20.2766L16.2727 14.3404C16.6406 13.7213 17.1653 13.2095 17.7942 12.8561ZM11.2548 23.8608C11.262 23.2358 11.4123 22.622 11.6926 22.0656C11.5352 22.4762 11.4427 22.9106 11.42 23.3531C11.3823 24.0896 11.5393 24.823 11.8753 25.48L15.263 32.0851L11.7802 25.9157C11.4276 25.2884 11.2464 24.5798 11.2548 23.8608ZM17.5446 35.0061C16.986 34.676 16.5144 34.2197 16.1673 33.675C16.4773 34.0679 16.8565 34.4043 17.2885 34.6667C17.8876 35.0298 18.5681 35.2384 19.2685 35.2736L26.8716 35.6615L19.5934 35.5799C18.8718 35.5706 18.1653 35.3728 17.5446 35.0061ZM30.3748 35.1479C29.7894 35.4767 29.1329 35.6577 28.4627 35.6763C28.9466 35.6149 29.4182 35.4704 29.8558 35.2473C30.5141 34.9117 31.0727 34.41 31.4759 33.7923L35.5287 27.555L31.8975 33.6643C31.5289 34.2831 31.0039 34.7946 30.3748 35.1479ZM36.9147 24.1437C36.9075 24.7892 36.7476 25.4228 36.4495 25.9936C36.6226 25.5636 36.724 25.1063 36.7479 24.64C36.7856 23.9036 36.6288 23.1702 36.2931 22.5131L32.9479 15.9921L36.3885 22.0889C36.7414 22.7161 36.9228 23.4247 36.9147 24.1437ZM28.8869 12.9511C29.5506 12.9843 30.1954 13.182 30.763 13.5264V13.5249C31.2939 13.8472 31.7401 14.2884 32.0674 14.8114C31.8181 14.4903 31.5213 14.2064 31.1856 13.9704C30.5981 13.5573 29.9121 13.305 29.1962 13.2387L22.3367 12.6169L28.8869 12.9511ZM20.0953 12.517C19.5108 12.5368 18.9363 12.6844 18.4131 12.9509C17.7897 13.2684 17.2611 13.7436 16.8801 14.3288L13.2367 19.9349L17.2918 14.208C17.7072 13.6234 18.2693 13.1577 18.9219 12.8573C19.2954 12.6855 19.691 12.5712 20.0953 12.517ZM12.1363 21.6464C11.844 22.1745 11.6752 22.7629 11.6442 23.3676C11.6085 24.0642 11.7569 24.7578 12.0745 25.3793L15.1687 31.4123L12.1817 24.968C11.8814 24.317 11.7576 23.5988 11.8226 22.8852C11.8617 22.4567 11.9681 22.0388 12.1363 21.6464ZM16.0532 33.1173C16.367 33.6396 16.7975 34.0844 17.3125 34.4163C17.9001 34.7948 18.577 35.0131 19.2757 35.0492L25.9257 35.3885L18.976 34.7573C18.3522 34.7006 17.7498 34.5018 17.2153 34.1763C16.7608 33.8999 16.3669 33.5396 16.0532 33.1173ZM28.0484 35.4837C28.6393 35.466 29.2204 35.318 29.7492 35.0486C30.3724 34.7312 30.9011 34.2563 31.2825 33.6715L34.8508 28.181L30.8818 33.788C30.466 34.3727 29.9037 34.8385 29.2509 35.139C28.8685 35.3151 28.4628 35.4308 28.0484 35.4837ZM36.0646 26.283C36.3333 25.7731 36.4887 25.21 36.5184 24.632C36.5541 23.9352 36.4057 23.2413 36.0881 22.6196L33.1084 16.8099L35.9919 23.0294C36.2923 23.6803 36.416 24.3983 36.3507 25.1118C36.3137 25.5158 36.2168 25.9104 36.0646 26.283ZM30.837 14.0139C30.332 13.7074 29.7634 13.52 29.1745 13.466L22.9489 12.9005L29.46 13.7537C30.1524 13.8454 30.8086 14.1164 31.3629 14.5399C31.6675 14.7726 31.9355 15.0467 32.1597 15.3531C31.8369 14.8064 31.3827 14.3457 30.8356 14.0139H30.837ZM19.0161 13.0629C19.5149 12.8334 20.0556 12.7127 20.6021 12.7071C20.2265 12.7479 19.857 12.8418 19.505 12.9873C18.8597 13.254 18.296 13.6849 17.8703 14.2369L13.8438 19.4692L17.4765 14.3389C17.8688 13.7866 18.3996 13.3466 19.0161 13.0629ZM12.048 22.9051C12.0983 22.3541 12.2664 21.8217 12.5395 21.3431C12.3833 21.692 12.2777 22.0629 12.2272 22.4448C12.1361 23.1351 12.2283 23.837 12.4946 24.4806L15.0278 30.5685L12.3866 24.8717C12.1032 24.2569 11.9864 23.5789 12.048 22.9051ZM17.1173 33.8406C16.6642 33.522 16.2862 33.1113 16.0071 32.6372C16.3153 33.0601 16.7058 33.4208 17.1588 33.6961C17.6323 33.9833 18.1606 34.1689 18.7102 34.2411L25.2846 35.1016L18.9961 34.5315C18.32 34.469 17.6721 34.2308 17.1173 33.8406ZM29.1545 34.9329C28.6469 35.1665 28.096 35.2874 27.5397 35.289C27.9247 35.2499 28.3035 35.1551 28.664 35.0063C29.3095 34.7398 29.8735 34.3094 30.3 33.7579L34.3292 28.522L30.6942 33.6571C30.3018 34.2093 29.7709 34.6492 29.1545 34.9329ZM36.1224 25.091C36.072 25.6432 35.903 26.1767 35.6285 26.6559C35.7856 26.3057 35.8917 25.9333 35.9423 25.5498C36.0332 24.8596 35.9407 24.1577 35.6742 23.5142L33.1532 17.4514L35.7826 23.1243C36.0668 23.7389 36.184 24.4171 36.1224 25.091ZM29.4298 13.9795C29.9483 14.048 30.4468 14.2239 30.8931 14.4958C31.4386 14.826 31.8883 15.2879 32.2026 15.8357C32.009 15.5638 31.7801 15.3168 31.5208 15.1017C30.9991 14.6689 30.3726 14.3801 29.7039 14.2642L23.5623 13.2115L29.4298 13.9795ZM21.0894 12.9141C20.5779 12.9077 20.069 13.0051 19.5941 13.2023C18.9863 13.4547 18.4556 13.8615 18.055 14.3822L14.4607 19.0529L18.4388 14.2886C18.8738 13.7693 19.4379 13.3728 20.0748 13.1389C20.4027 13.0184 20.744 12.9432 21.0894 12.9141ZM12.959 21.0455C12.6962 21.4838 12.5251 21.9722 12.458 22.4813C12.3721 23.1318 12.4589 23.7934 12.7096 24.4001L15.024 29.9621L12.8279 24.0218C12.5939 23.387 12.5313 22.702 12.6462 22.0355C12.7056 21.6915 12.8111 21.3587 12.959 21.0455ZM15.9307 32.0895C16.182 32.5524 16.529 32.9587 16.9504 33.2807C17.4731 33.6802 18.0918 33.936 18.7448 34.0225L24.8002 34.8151L18.4806 33.7319C18.0009 33.6492 17.5411 33.477 17.1255 33.2243C16.647 32.934 16.2406 32.5459 15.9307 32.0895ZM27.0281 35.0869C27.5587 35.1018 28.088 35.0046 28.5806 34.8001C29.1885 34.5477 29.7191 34.1407 30.1196 33.6199L33.6676 29.0103L29.7457 33.7075C29.3107 34.2267 28.7465 34.6231 28.1096 34.857C27.7605 34.9853 27.3962 35.0622 27.0281 35.0869ZM35.2424 26.9132C35.4906 26.4865 35.6527 26.0137 35.7177 25.5215C35.8035 24.8706 35.7163 24.2087 35.4649 23.6019L33.2369 18.2448L35.3566 23.9743C35.5904 24.6095 35.6528 25.2947 35.5375 25.9615C35.4805 26.2915 35.381 26.6113 35.2424 26.9132ZM30.9392 14.9602C30.5483 14.7226 30.116 14.5606 29.6649 14.4827L23.8772 13.4908L29.91 14.7733C30.555 14.9113 31.1524 15.2156 31.6424 15.6557C31.8939 15.8816 32.1127 16.1393 32.2937 16.4211C31.9858 15.8217 31.5153 15.3167 30.932 14.966L30.9392 14.9602ZM20.1533 13.3466C20.6283 13.1722 21.1331 13.0987 21.6356 13.1289C21.2878 13.1409 20.9419 13.2009 20.608 13.3084C19.9805 13.5102 19.4171 13.8726 18.974 14.3591L15.0563 18.6894L18.6134 14.4281C19.0229 13.9396 19.5539 13.5666 20.1533 13.3466ZM12.8708 22.0685C12.9493 21.6142 13.1135 21.1806 13.353 20.7899C13.2191 21.0633 13.1185 21.353 13.0542 21.6531C12.9164 22.2958 12.9503 22.9634 13.1524 23.589L14.9001 28.9621L13.0415 23.9384C12.8213 23.3407 12.7624 22.6959 12.8708 22.0685ZM16.8092 32.7149C16.4671 32.4313 16.1812 32.0887 15.9644 31.7051C16.261 32.129 16.6443 32.4907 17.0936 32.7641C17.455 32.9824 17.8506 33.1385 18.264 33.2258L23.9566 34.4349L18.5196 33.5018C17.8901 33.3934 17.3003 33.1221 16.8092 32.7149ZM28.03 34.639C27.5926 34.7998 27.1299 34.875 26.6669 34.8623C26.9713 34.8414 27.2733 34.7837 27.5661 34.6895C28.1936 34.4876 28.757 34.1252 29.2 33.6385L33.1055 29.3229L29.5696 33.5565C29.1604 34.0454 28.6295 34.4187 28.03 34.639ZM35.3134 25.9175C35.2325 26.3857 35.0606 26.8321 34.809 27.2321C34.9486 26.9517 35.0531 26.6538 35.1191 26.3451C35.2566 25.7021 35.2225 25.0344 35.0202 24.4087L33.1579 18.6819L35.143 24.0477C35.3631 24.6453 35.4218 25.2901 35.3134 25.9175ZM29.8581 14.9962C30.2461 15.0769 30.6175 15.2228 30.9563 15.4277C31.5334 15.7782 31.9941 16.2844 32.2884 16.8829C32.1329 16.6327 31.9469 16.4012 31.7338 16.1938C31.2753 15.7474 30.7072 15.4286 30.0864 15.2694L24.7411 13.9094L29.8581 14.9962ZM21.9569 13.3616C21.5238 13.3381 21.0885 13.394 20.673 13.5281C20.0835 13.7184 19.5544 14.0595 19.1385 14.5173L15.5728 18.4586L19.4981 14.454C19.9467 13.9976 20.5076 13.6667 21.1247 13.494C21.3972 13.4178 21.6765 13.3737 21.9569 13.3616ZM13.7916 20.4825C13.5433 20.853 13.3667 21.2683 13.2729 21.7071C13.1438 22.311 13.1759 22.938 13.366 23.5257L15.0317 28.6502L13.4933 23.1862C13.3209 22.5708 13.3135 21.9211 13.4721 21.3021C13.5454 21.0158 13.6529 20.7408 13.7916 20.4825ZM15.8638 31.1008C16.0624 31.5091 16.3388 31.8767 16.6792 32.1825C17.1393 32.5959 17.7002 32.8817 18.3058 33.0115L23.507 34.1172L18.0796 32.7353C17.7291 32.6463 17.394 32.5058 17.0852 32.3182C16.5825 32.0127 16.1654 31.5938 15.8638 31.1008ZM26.1805 34.6456C26.6221 34.6725 27.0665 34.6168 27.4903 34.4798C28.0795 34.2893 28.6083 33.9482 29.024 33.4904L32.6068 29.5324L28.6678 33.5521C28.2192 34.0084 27.6583 34.3394 27.0412 34.512C26.7594 34.5908 26.4705 34.6354 26.1805 34.6456ZM34.3698 27.5304C34.6195 27.1589 34.7969 26.7423 34.891 26.3021C35.0202 25.6982 34.9881 25.0711 34.7979 24.4835L33.1608 19.4502L34.6726 24.8184C34.8451 25.4338 34.8524 26.0835 34.6938 26.7026C34.6197 26.9918 34.5107 27.2697 34.3698 27.5304ZM30.9667 15.882C30.6772 15.7058 30.363 15.5735 30.0344 15.4894L25.3198 14.2899L30.2452 15.7498C30.8418 15.9281 31.381 16.2593 31.8089 16.7102C31.9946 16.9059 32.1566 17.1212 32.2923 17.3515C32.0073 16.7446 31.5479 16.2304 30.9667 15.8777V15.882ZM21.1907 13.7122C21.5636 13.608 21.9499 13.5678 22.3334 13.5918C22.0925 13.599 21.8521 13.6306 21.6158 13.6867C21.0098 13.8306 20.4523 14.1303 19.999 14.5561L16.3609 17.9845L19.6656 14.6121C20.0861 14.1843 20.6121 13.874 21.1907 13.7122ZM13.6965 21.359C13.7895 20.996 13.9413 20.6522 14.1446 20.3407C14.0398 20.5411 13.9541 20.7518 13.889 20.9701C13.7117 21.565 13.6942 22.1957 13.8382 22.7994L15.034 27.8033L13.7169 23.1258C13.5549 22.5488 13.5479 21.9396 13.6965 21.359ZM16.5963 31.6515C16.3087 31.3719 16.0736 31.0452 15.9006 30.6872C15.9518 30.7712 16.0066 30.8531 16.0649 30.9328C16.341 31.3107 16.6892 31.6305 17.0896 31.8739C17.3493 32.0318 17.6282 32.156 17.9194 32.2435L23.1033 33.7797L18.143 32.5167C17.5603 32.3683 17.0269 32.07 16.5963 31.6515ZM26.9859 34.2947C26.5637 34.4128 26.1241 34.4488 25.691 34.4024C25.979 34.4051 26.2675 34.373 26.5501 34.3059C27.156 34.1621 27.7135 33.8626 28.1671 33.4372L32.1452 29.6872L28.5105 33.3954C28.0899 33.8228 27.5643 34.1329 26.9859 34.2947ZM34.4796 26.6481C34.3717 27.0696 34.1846 27.4653 33.9298 27.8149C34.0768 27.5666 34.1936 27.3003 34.2766 27.0216C34.4539 26.4268 34.4715 25.7961 34.3278 25.1924L33.0857 19.999L34.4605 24.8817C34.6217 25.4588 34.6283 26.0678 34.4796 26.6481ZM30.1875 15.9698C30.4604 16.0508 30.7218 16.1663 30.9653 16.3135L30.9624 16.3164C31.3384 16.5439 31.6655 16.8432 31.9251 17.1972C32.0614 17.3831 32.1777 17.5822 32.2724 17.791C32.1584 17.5915 32.0242 17.403 31.8714 17.2287C31.4734 16.7745 30.9629 16.4322 30.3908 16.2358L25.7721 14.6611L30.1875 15.9698ZM22.7423 13.8324C22.3865 13.801 22.0264 13.8267 21.676 13.9099C21.109 14.0447 20.5874 14.3256 20.1635 14.7244L16.8146 17.8794L20.4938 14.6783C20.9506 14.2828 21.5034 14.0135 22.0972 13.8972C22.3106 13.8554 22.5266 13.8339 22.7423 13.8324ZM33.0264 20.6871L33.9856 25.5547C34.1011 26.1468 34.0589 26.7588 33.8632 27.3295C33.7859 27.5549 33.6858 27.7707 33.5649 27.9738C33.7881 27.6694 33.9586 27.3281 34.0676 26.964C34.2342 26.4073 34.2513 25.8168 34.1171 25.2514L33.0264 20.6871ZM31.443 30.049L27.6849 33.3177C27.2286 33.7139 26.6757 33.9838 26.0818 34.1001C25.8574 34.1441 25.6302 34.1655 25.4034 34.1647C25.7705 34.2011 26.1425 34.1766 26.5041 34.0908C27.0711 33.9563 27.5928 33.6759 28.017 33.2775L31.443 30.049ZM22.4897 33.3636L17.9916 32.0307C17.4314 31.8632 16.9252 31.5518 16.524 31.1277C16.2711 30.8605 16.0656 30.5545 15.9144 30.2228C15.9639 30.3086 16.0172 30.3925 16.0742 30.4741C16.3474 30.8654 16.699 31.1961 17.1068 31.4453C17.3218 31.5748 17.5501 31.6809 17.7879 31.7617L22.4897 33.3636ZM15.1387 27.2418L14.1916 22.4412C14.0766 21.8492 14.1192 21.2375 14.3151 20.6671C14.3878 20.4554 14.4807 20.2522 14.592 20.06C14.3812 20.3553 14.2195 20.6842 14.1146 21.0341C13.9483 21.5892 13.9306 22.1779 14.0634 22.7419L15.1387 27.2418ZM30.9435 16.7463C30.7449 16.6246 30.5334 16.5253 30.3129 16.45L26.1726 15.0394L30.4993 16.7089C31.0478 16.9209 31.5308 17.2729 31.8998 17.7294C32.0239 17.883 32.1336 18.0466 32.2281 18.2181C32.1421 18.0197 32.036 17.83 31.9112 17.6519C31.6551 17.2865 31.3255 16.9781 30.9435 16.7463ZM22.1369 14.1194C22.4687 14.0545 22.8074 14.0422 23.1405 14.0817C22.9414 14.0769 22.7414 14.0898 22.5431 14.1206C21.9619 14.2106 21.4146 14.4511 20.9558 14.8178L17.4181 17.6523L20.6396 14.8494C21.0659 14.4797 21.5822 14.2279 22.1369 14.1194ZM33.6294 25.8899L32.9209 21.3534L33.7576 25.5993C33.8661 26.1522 33.827 26.7238 33.6441 27.2568C33.5428 27.5522 33.3993 27.8301 33.2191 28.0822C33.3063 27.9318 33.3819 27.7743 33.445 27.611C33.6567 27.0633 33.7203 26.4698 33.6294 25.8899ZM27.219 33.1811L30.6771 30.4098L27.5305 33.1466C27.1042 33.5164 26.5879 33.7684 26.0333 33.8771C25.7154 33.9395 25.3912 33.9535 25.0716 33.92C25.2573 33.9223 25.4435 33.9092 25.6284 33.8806C26.211 33.7905 26.7596 33.5493 27.219 33.1811ZM17.8572 31.5459L21.9216 32.9316L17.6684 31.2914C17.4838 31.218 17.3061 31.1285 17.1373 31.0239C16.7211 30.7704 16.3652 30.4297 16.0943 30.0254C16.0365 29.9391 15.9828 29.8504 15.9334 29.7595C16.0663 30.0715 16.2483 30.3619 16.4738 30.6193C16.8456 31.0435 17.3226 31.3631 17.8572 31.5459ZM14.5411 22.1033L15.2567 26.6851L14.411 22.3981C14.3029 21.8451 14.3424 21.2735 14.5255 20.7405C14.6306 20.4347 14.7809 20.1477 14.9702 19.8885C14.8765 20.0465 14.7955 20.2125 14.7286 20.385C14.5164 20.9316 14.4518 21.524 14.5411 22.1033ZM30.417 16.9146C30.5894 16.9812 30.7556 17.063 30.9134 17.1591V17.1634C31.3008 17.3989 31.6323 17.7155 31.8849 18.0912C31.9953 18.2553 32.0895 18.429 32.1665 18.6098C32.0923 18.4726 32.0081 18.3403 31.9142 18.2143C31.5736 17.7567 31.1183 17.3963 30.594 17.1692L26.5607 15.4265L30.417 16.9146ZM23.5217 14.3358C23.21 14.2896 22.8919 14.2903 22.578 14.339C22.0363 14.423 21.5263 14.6471 21.0987 14.9889L17.7886 17.641L21.4056 14.9689C21.8654 14.6302 22.4064 14.4177 22.9744 14.3525C23.1567 14.3316 23.3398 14.3262 23.5217 14.3358ZM32.7886 21.9763L33.2754 26.1991C33.3397 26.7654 33.2535 27.3386 33.0256 27.8613C32.9643 28.0018 32.8934 28.1373 32.8135 28.2669C32.985 28.0393 33.1251 27.7883 33.2292 27.5206C33.4272 27.0111 33.4876 26.4587 33.4043 25.9186L32.7886 21.9763ZM30.119 30.5506L26.7669 33.0287C26.3071 33.3674 25.7661 33.5799 25.1981 33.645C25.0703 33.6597 24.9422 33.6667 24.8144 33.6663C25.0724 33.6907 25.3335 33.6832 25.5918 33.6431C26.1338 33.5591 26.6441 33.3348 27.0718 32.9927L30.119 30.5506ZM21.309 32.4402L17.7521 31.0685C17.2414 30.87 16.7918 30.5415 16.4481 30.1158C16.2741 29.9002 16.1303 29.6634 16.0197 29.4121C16.0546 29.4754 16.0916 29.5375 16.1308 29.5984C16.398 30.0148 16.7569 30.3651 17.1801 30.6227C17.3083 30.6998 17.4413 30.7685 17.5784 30.8284L21.309 32.4402ZM15.381 25.9995L14.8957 21.797C14.8315 21.2307 14.9177 20.6576 15.1456 20.1349C15.2214 19.9611 15.312 19.795 15.416 19.6381C15.2173 19.8858 15.0569 20.1633 14.9411 20.4614C14.7434 20.9709 14.6831 21.5231 14.7662 22.063L15.381 25.9995ZM30.8711 17.569C30.7522 17.4964 30.6283 17.4325 30.5002 17.3777L27.0693 15.8954L30.6638 17.6208C31.1638 17.862 31.5915 18.2297 31.9043 18.6873C31.9817 18.8005 32.0514 18.9183 32.1131 19.0398C32.0415 18.8593 31.9523 18.6855 31.8466 18.5209C31.5981 18.134 31.2645 17.8084 30.8711 17.569ZM22.9975 14.5775C23.2615 14.5473 23.5272 14.552 23.7879 14.5904C23.6521 14.5831 23.5155 14.5844 23.379 14.5946C22.8249 14.636 22.2914 14.8216 21.8318 15.1328L18.4922 17.4013L21.5384 15.1501C21.9661 14.8352 22.4692 14.6378 22.9975 14.5775ZM32.9165 26.4867L32.6174 22.5073L33.0459 26.225C33.1065 26.7514 33.0271 27.2845 32.8156 27.7707C32.7092 28.0152 32.5713 28.2436 32.4061 28.4503C32.4817 28.3353 32.55 28.2151 32.6103 28.0904C32.8514 27.5917 32.957 27.0388 32.9165 26.4867ZM26.3387 32.8648L29.647 30.6166L26.6312 32.8461C26.2035 33.1607 25.7004 33.3582 25.1722 33.4187C24.9079 33.4491 24.6419 33.4445 24.3809 33.4062C24.5172 33.4137 24.6543 33.4124 24.7913 33.4022C25.3454 33.3611 25.879 33.1758 26.3387 32.8648ZM17.6679 30.6199L21.1332 32.1167L17.5067 30.3768C17.4144 30.3308 17.322 30.2819 17.234 30.2287C16.8047 29.9674 16.4438 29.6082 16.181 29.1806C16.1375 29.1098 16.0969 29.0375 16.0593 28.9638C16.156 29.2059 16.2841 29.4355 16.4411 29.6467C16.7576 30.0724 17.1806 30.4079 17.6679 30.6199ZM15.2526 21.5109L15.5518 25.4908L15.1223 21.7726C15.0627 21.246 15.1426 20.7131 15.354 20.2269C15.4602 19.9826 15.5977 19.7545 15.7623 19.5477C15.687 19.6623 15.6191 19.782 15.5591 19.9062C15.3177 20.4051 15.212 20.9585 15.2526 21.5109ZM30.5642 17.8192C30.6512 17.8629 30.736 17.9109 30.8182 17.963C31.2154 18.2051 31.5495 18.5374 31.7931 18.9328C31.8925 19.0943 31.9757 19.2644 32.0418 19.4406C31.9928 19.3391 31.9381 19.2401 31.8779 19.1441C31.5914 18.6875 31.1896 18.3139 30.7127 18.0608L27.2939 16.2494L30.5642 17.8192ZM24.1562 14.8569C23.9067 14.8106 23.6511 14.7964 23.3958 14.8154C22.8818 14.8538 22.3868 15.0257 21.9603 15.314L19.0004 17.3246L22.2386 15.3083C22.6971 15.0241 23.2223 14.8646 23.7619 14.8457C23.8939 14.841 24.0256 14.8448 24.1562 14.8569ZM32.4267 22.9964L32.5585 26.7514C32.5766 27.2891 32.4528 27.8221 32.1996 28.2973C32.1535 28.3839 32.1033 28.468 32.0494 28.5494C32.1885 28.3766 32.3081 28.188 32.4054 27.9867C32.6293 27.5239 32.7274 27.0107 32.6899 26.4983L32.4267 22.9964ZM28.9925 30.7807L25.9287 32.6879C25.4704 32.9725 24.9452 33.1322 24.4055 33.1511C24.3164 33.1543 24.2273 33.1535 24.1387 33.149C24.3485 33.1789 24.5617 33.1862 24.7748 33.1703C25.289 33.132 25.784 32.9596 26.2103 32.6706L28.9925 30.7807ZM20.6126 31.6085L17.6063 30.1654C17.142 29.9421 16.7446 29.6011 16.4541 29.1766C16.3283 28.9927 16.2244 28.796 16.1439 28.5905C16.1751 28.653 16.2085 28.7147 16.244 28.7752C16.5011 29.2133 16.863 29.5813 17.2974 29.8462C17.3247 29.8606 17.3521 29.8766 17.3797 29.8927L17.3911 29.8993C17.4121 29.9116 17.4333 29.9238 17.4547 29.9353L20.6126 31.6085ZM15.7398 24.9354L15.6104 21.2448C15.5924 20.7071 15.7162 20.1741 15.9694 19.699C16.0262 19.5923 16.0891 19.4895 16.1577 19.3908C16.0027 19.5757 15.8706 19.7797 15.7647 19.9986C15.5409 20.4616 15.4429 20.9752 15.4806 21.4878L15.7398 24.9354ZM30.7531 18.3413C30.7055 18.3125 30.6579 18.2852 30.6088 18.2593L27.7139 16.7255L30.7487 18.4908C31.2007 18.7561 31.5753 19.1345 31.8353 19.5886C31.8744 19.6569 31.9107 19.7265 31.9441 19.7973C31.8856 19.6375 31.8127 19.4826 31.7259 19.3347C31.4882 18.9299 31.1541 18.5896 30.7531 18.3441V18.3413ZM23.7731 15.0694C23.9846 15.062 24.1953 15.0781 24.4015 15.1168C24.3109 15.1081 24.2196 15.1035 24.1281 15.1031C23.6034 15.1005 23.0871 15.2353 22.631 15.4938L19.6003 17.2182L22.3628 15.4981C22.7871 15.2346 23.2734 15.0868 23.7731 15.0694ZM16.1727 19.8027C16.2682 19.6236 16.3823 19.4559 16.5126 19.3021C16.4642 19.3707 16.4186 19.4414 16.376 19.5141C16.1114 19.9658 15.9703 20.4787 15.9667 21.0018L15.9509 24.4019L15.8398 21.2347C15.8232 20.7366 15.9379 20.2428 16.1727 19.8027ZM16.4841 28.7267C16.3819 28.5633 16.297 28.3907 16.2303 28.2116C16.2581 28.2698 16.2878 28.3272 16.3194 28.3836C16.5704 28.832 16.933 29.2084 17.3723 29.4766L17.4214 29.5053L20.3517 31.2099L17.5586 29.7297C17.1187 29.4946 16.7482 29.1488 16.4841 28.7267ZM24.3957 32.9206C24.2069 32.9271 24.0186 32.915 23.8336 32.8848C23.9028 32.89 23.9723 32.8927 24.042 32.8931C24.5667 32.8956 25.0829 32.7609 25.539 32.5024L28.4291 30.8583L25.806 32.4923C25.3816 32.7555 24.8953 32.9031 24.3957 32.9206ZM31.9954 28.1867C31.9093 28.3479 31.8083 28.4999 31.6939 28.6409C31.7284 28.5896 31.7614 28.5371 31.7927 28.4836C32.0574 28.0319 32.1984 27.5189 32.2019 26.9958L32.2184 23.6029L32.329 26.7557C32.3451 27.2535 32.2301 27.7469 31.9954 28.1867ZM30.6794 18.7152L30.6332 18.6878L25.5058 15.7052C25.0868 15.4622 24.6112 15.3331 24.1264 15.3308C23.6417 15.3285 23.1648 15.4532 22.7436 15.6922L17.5887 18.6245C17.1679 18.8648 16.8176 19.211 16.573 19.6284C16.3284 20.0458 16.1979 20.5198 16.1947 21.0032L16.1658 26.9181C16.1637 27.4016 16.2893 27.8771 16.5299 28.2969C16.7706 28.7167 17.1178 29.066 17.5368 29.3097L22.6628 32.2924C23.0822 32.535 23.558 32.6638 24.0429 32.6661C24.5278 32.6683 25.0048 32.544 25.4264 32.3053L30.5812 29.3716C31.0019 29.1316 31.352 28.7857 31.5964 28.3685C31.8408 27.9513 31.971 27.4774 31.9739 26.9944L32.0027 21.078C32.0043 20.604 31.8834 20.1377 31.6516 19.7238C31.4198 19.31 31.085 18.9626 30.6794 18.7152Z"
      fill="url(#paint0_radial_1939_14907)" />
    <path fill-rule="evenodd" clip-rule="evenodd"
      d="M18.8574 39.3996C18.5598 39.2182 18.2805 39.0087 18.0232 38.774L9.8652 31.349C9.15757 30.7028 8.63255 29.8828 8.34259 28.971C8.05262 28.0592 8.00786 27.0875 8.21282 26.1531L10.5882 15.4003C10.7955 14.4661 11.2453 13.6025 11.8926 12.8958C12.5399 12.1892 13.3621 11.6643 14.2769 11.3736L24.8117 8.04579C25.7268 7.75862 26.7016 7.71573 27.6385 7.9214C28.5755 8.12707 29.4419 8.5741 30.1513 9.21786L38.3079 16.6443C39.0153 17.2904 39.5402 18.1101 39.8301 19.0216C40.1201 19.9332 40.1649 20.9046 39.9602 21.8388L37.5849 32.5916C37.3777 33.5256 36.9281 34.3891 36.2811 35.0958C35.634 35.8024 34.8121 36.3274 33.8977 36.6183L23.3628 39.9446C22.6163 40.1795 21.828 40.2524 21.0508 40.1584C20.2737 40.0644 19.5258 39.8056 18.8574 39.3996ZM29.1959 8.79074C28.5553 8.40179 27.8385 8.15384 27.0938 8.06356C26.3491 7.97327 25.5937 8.04273 24.8781 8.26727L14.3432 11.5936C13.4669 11.8718 12.6792 12.3743 12.0587 13.0509C11.4383 13.7275 11.0069 14.5545 10.8076 15.4492L8.43363 26.202C8.23771 27.0977 8.28122 28.029 8.5598 28.9028C8.83838 29.7765 9.34226 30.562 10.0211 31.1808L18.1776 38.6072C18.8578 39.2241 19.6885 39.6524 20.5867 39.8493C21.485 40.0461 22.4193 40.0046 23.2964 39.7289L33.8313 36.4026C34.7074 36.1243 35.4949 35.6217 36.1151 34.9452C36.7353 34.2686 37.1665 33.4416 37.3655 32.547L39.7409 21.7942C39.9368 20.8987 39.8933 19.9676 39.6147 19.0941C39.3362 18.2206 38.8322 17.4353 38.1534 16.8169L29.9954 9.39043C29.7486 9.16519 29.4803 8.96436 29.1945 8.79074H29.1959Z"
      fill="url(#paint1_radial_1939_14907)" />
    <path fill-rule="evenodd" clip-rule="evenodd"
      d="M18.4533 39.4513C18.6713 39.6339 18.9029 39.7997 19.146 39.9474C19.8662 40.3849 20.6755 40.6561 21.5146 40.7409C22.3538 40.8258 23.2013 40.7222 23.995 40.4378L34.6986 36.5837C35.6271 36.2478 36.4509 35.675 37.0876 34.9224C37.7242 34.1699 38.1515 33.2639 38.3267 32.2952L40.3297 21.1311C40.5017 20.1619 40.4155 19.1647 40.0797 18.239C39.7439 17.3134 39.1703 16.4917 38.4161 15.8561L29.7155 8.54616C28.9594 7.91245 28.0497 7.48767 27.0772 7.31429C26.1047 7.1409 25.1036 7.22501 24.1739 7.55818L13.4716 11.4123C12.5431 11.7483 11.7193 12.3212 11.0824 13.0737C10.4455 13.8262 10.0179 14.7321 9.84217 15.7008L7.84053 26.8649C7.668 27.8342 7.7538 28.8317 8.08935 29.7576C8.4249 30.6836 8.99845 31.5055 9.75268 32.1413L18.4533 39.4513ZM26.6317 7.48155C27.4368 7.56293 28.2134 7.82302 28.9045 8.24272C29.1379 8.38386 29.3599 8.54302 29.5683 8.71875L38.2689 16.0301C38.9928 16.6397 39.5433 17.4279 39.8654 18.316C40.1876 19.2042 40.2701 20.161 40.1046 21.0909L38.103 32.255C37.9345 33.1846 37.5243 34.0539 36.9132 34.7762C36.3022 35.4984 35.5117 36.0483 34.6207 36.3708L23.9185 40.225C23.0263 40.5443 22.0657 40.6249 21.1325 40.4586C20.1994 40.2923 19.3263 39.885 18.6005 39.2773L9.89988 31.9673C9.17628 31.3573 8.62596 30.5688 8.30384 29.6805C7.98173 28.7922 7.8991 27.8352 8.06423 26.9052L10.0673 15.7411C10.2355 14.8117 10.6454 13.9425 11.2562 13.2205C11.8671 12.4985 12.6574 11.9489 13.5481 11.6266L24.2518 7.77246C25.0133 7.49957 25.8266 7.40017 26.6317 7.48155Z"
      fill="url(#paint2_radial_1939_14907)" />
    <path fill-rule="evenodd" clip-rule="evenodd"
      d="M19.4608 40.4969C19.2764 40.3843 19.0982 40.2618 18.9269 40.1302L9.67212 32.9612C8.87045 32.3379 8.2468 31.516 7.86342 30.5776C7.48004 29.6391 7.35032 28.6168 7.4872 27.6128L9.08909 16.0403C9.2301 15.0369 9.63266 14.088 10.2566 13.288C10.8805 12.4881 11.704 11.8652 12.6449 11.4815L23.503 7.07794C24.4465 6.69738 25.4736 6.57028 26.4818 6.70934C27.49 6.8484 28.4439 7.24873 29.2482 7.87035L38.5029 15.0379C39.3048 15.6613 39.9286 16.4834 40.312 17.4222C40.6954 18.3609 40.825 19.3835 40.6878 20.3877L39.0845 31.9588C38.9442 32.9626 38.5419 33.912 37.9179 34.7123C37.2939 35.5125 36.47 36.1356 35.5287 36.5191L24.672 40.9211C23.8305 41.261 22.9208 41.3997 22.0158 41.326C21.1109 41.2523 20.2358 40.9684 19.4608 40.4969ZM28.5901 7.69346C27.8458 7.2419 27.0059 6.97005 26.1374 6.89964C25.2689 6.82922 24.3959 6.96218 23.5882 7.2879L12.7315 11.6914C11.8271 12.0596 11.0356 12.658 10.4362 13.4268C9.83671 14.1955 9.45029 15.1077 9.31564 16.0719L7.71378 27.643C7.58161 28.6076 7.70585 29.5898 8.07407 30.4916C8.4423 31.3933 9.04162 32.1829 9.8121 32.7814L19.0669 39.9504C19.8389 40.5469 20.7546 40.9308 21.7223 41.0638C22.69 41.1968 23.6758 41.0742 24.5811 40.7083L35.4392 36.3048C36.3431 35.9362 37.1342 35.3379 37.7335 34.5695C38.3329 33.8011 38.7196 32.8895 38.8551 31.9257L40.4569 20.3532C40.5891 19.3886 40.4649 18.4064 40.0966 17.5047C39.7284 16.6029 39.1291 15.8133 38.3586 15.2148L29.1038 8.04723C28.9391 7.92023 28.7676 7.80214 28.5901 7.69346Z"
      fill="url(#paint3_radial_1939_14907)" />
    <path fill-rule="evenodd" clip-rule="evenodd"
      d="M19.4421 40.8089C19.559 40.8923 19.6803 40.9714 19.8029 41.0461C20.633 41.5477 21.5731 41.8404 22.5421 41.899C23.5111 41.9576 24.4798 41.7804 25.3647 41.3827L36.3571 36.4082C37.3096 35.9755 38.1315 35.3013 38.7406 34.4528C39.3496 33.6043 39.7245 32.6114 39.8278 31.5733L41.001 19.5981C41.1009 18.5597 40.9257 17.5133 40.493 16.5635C40.0602 15.6136 39.385 14.7935 38.5347 14.185L28.7214 7.18571C27.869 6.58028 26.872 6.20851 25.8301 6.10756C24.7882 6.00661 23.7379 6.18002 22.7844 6.61046L11.7907 11.5863C10.8396 12.0198 10.0192 12.6942 9.41143 13.5424C8.80368 14.3905 8.42982 15.3827 8.32715 16.4198L7.15386 28.3965C7.05382 29.4348 7.2291 30.4812 7.66217 31.4309C8.09523 32.3806 8.77091 33.2003 9.62163 33.8081L19.4421 40.8089ZM25.6081 6.31871C26.5428 6.3756 27.4495 6.65888 28.2495 7.14399V7.15119C28.3664 7.21591 28.4833 7.29501 28.5973 7.37267L38.4106 14.3734C39.2288 14.9579 39.8786 15.7463 40.2949 16.6597C40.7113 17.5731 40.8797 18.5794 40.7831 19.578L39.6099 31.5546C39.5103 32.5528 39.1496 33.5076 38.5638 34.3234C37.9781 35.1393 37.1878 35.7878 36.2719 36.204L25.2781 41.1799C24.3607 41.5934 23.3504 41.7597 22.3483 41.662C21.3462 41.5643 20.3873 41.2062 19.5677 40.6233L9.75439 33.624C8.9362 33.0392 8.28646 32.2505 7.87011 31.3369C7.45376 30.4233 7.2854 29.4168 7.38189 28.4181L8.55517 16.4429C8.6544 15.4443 9.0149 14.4892 9.60067 13.6731C10.1864 12.8569 10.9769 12.2083 11.8931 11.792L22.8854 6.81756C23.7387 6.43306 24.6733 6.26182 25.6081 6.31871Z"
      fill="url(#paint4_radial_1939_14907)" />
    <path fill-rule="evenodd" clip-rule="evenodd"
      d="M20.1707 41.5942C20.113 41.5596 20.0552 41.5237 19.9989 41.4863L9.60841 34.6826C8.70884 34.0918 7.9805 33.2763 7.49607 32.3174C7.01164 31.3584 6.78809 30.2897 6.84772 29.2177L7.56928 16.8499C7.63289 15.7779 7.97772 14.7412 8.56929 13.8436C9.16087 12.9459 9.97846 12.2187 10.9404 11.7345L22.0525 6.16617C23.016 5.68553 24.0892 5.46513 25.1649 5.52695C26.2406 5.58878 27.2813 5.93066 28.1829 6.5185L38.5735 13.3208C39.4729 13.9116 40.201 14.7272 40.6852 15.6861C41.1694 16.6451 41.3927 17.7138 41.3327 18.7856L40.6112 31.1534C40.5473 32.2254 40.2023 33.2619 39.6108 34.1596C39.0193 35.0572 38.2018 35.7844 37.24 36.2688L26.1279 41.8386C25.1953 42.3036 24.1596 42.5252 23.1177 42.4824C22.0757 42.4396 21.0618 42.134 20.1707 41.5942ZM27.8813 6.59616C27.0231 6.076 26.0464 5.7816 25.0428 5.7406C24.0391 5.69959 23.0415 5.91333 22.1434 6.36175L11.0313 11.9301C10.1053 12.3965 9.31822 13.0968 8.7487 13.9611C8.17918 14.8254 7.84714 15.8235 7.78575 16.8557L7.06419 29.2235C7.00642 30.2557 7.22136 31.285 7.68756 32.2086C8.15375 33.1322 8.85488 33.9178 9.72098 34.487L20.1115 41.2907C20.9801 41.8562 21.9822 42.1851 23.018 42.2446C24.0538 42.3042 25.0873 42.0923 26.0154 41.6301L37.1274 36.0603C38.0535 35.5939 38.8406 34.8936 39.4101 34.0293C39.9796 33.165 40.3116 32.1669 40.373 31.1347L41.0946 18.7669C41.1523 17.7343 40.9372 16.7047 40.4708 15.7808C40.0043 14.857 39.3029 14.0712 38.4364 13.502L28.0458 6.69826C28.0184 6.68173 27.991 6.66447 27.9636 6.64721C27.9362 6.62997 27.9087 6.61269 27.8813 6.59616Z"
      fill="url(#paint5_radial_1939_14907)" />
    <path fill-rule="evenodd" clip-rule="evenodd"
      d="M7.34026 33.2181C7.87173 34.181 8.64601 34.9891 9.58666 35.5627L9.62129 35.5828L20.6006 42.1608C21.5522 42.7291 22.6368 43.0386 23.746 43.0583C24.8553 43.078 25.9502 42.8072 26.9215 42.273L38.1274 36.0891C39.097 35.5519 39.9082 34.7706 40.48 33.8233C41.0518 32.8759 41.3642 31.7957 41.386 30.6904L41.6126 17.9257C41.6301 16.8271 41.3597 15.7429 40.8282 14.7803C40.2968 13.8176 39.5226 13.0097 38.582 12.4364L38.5474 12.4148L27.5681 5.83685C26.6163 5.26875 25.5317 4.95954 24.4224 4.9401C23.3132 4.92067 22.2183 5.1917 21.2472 5.72612L10.0412 11.91C9.07192 12.4474 8.26103 13.2288 7.68948 14.1761C7.11794 15.1234 6.80577 16.2036 6.78411 17.3087L6.55608 30.072C6.53851 31.1708 6.80879 32.2552 7.34026 33.2181ZM38.4305 12.6089L38.4637 12.6291C39.3702 13.182 40.1162 13.961 40.6282 14.8891C41.1402 15.8172 41.4004 16.8624 41.3831 17.9213L41.1566 30.6846C41.1355 31.75 40.8345 32.7913 40.2835 33.7045C39.7324 34.6178 38.9507 35.371 38.0163 35.8892L26.8104 42.0731C25.8741 42.5877 24.8187 42.8486 23.7495 42.8296C22.6804 42.8107 21.6349 42.5126 20.7175 41.9652L9.73819 35.3873L9.705 35.3671C8.79883 34.8139 8.053 34.0348 7.54105 33.1068C7.0291 32.1787 6.76871 31.1338 6.78555 30.0749L7.01354 17.3116C7.03402 16.2461 7.33483 15.2046 7.88591 14.2912C8.43698 13.3779 9.21901 12.6247 10.1538 12.107L21.3597 5.92314C22.2959 5.40809 23.3514 5.14699 24.4206 5.16592C25.4899 5.18484 26.5354 5.48314 27.4526 6.031L38.4305 12.6089Z"
      fill="url(#paint6_radial_1939_14907)" />
    <path fill-rule="evenodd" clip-rule="evenodd"
      d="M9.41815 36.3594C8.48723 35.7918 7.71399 35.0006 7.16918 34.0582C6.62437 33.1158 6.32536 32.0523 6.29953 30.965L6.01091 17.8192C5.98712 16.6814 6.2636 15.5573 6.81266 14.5594C7.36173 13.5615 8.16413 12.7248 9.1396 12.1329L20.4191 5.30906C21.3959 4.71943 22.5109 4.39581 23.6526 4.37058C24.7944 4.34534 25.9227 4.61936 26.9247 5.16524L38.4943 11.493C39.4951 12.0415 40.3339 12.8423 40.9268 13.8151C41.5196 14.788 41.8458 15.899 41.8727 17.0369L42.1613 30.1827C42.1841 31.3204 41.9072 32.4441 41.3582 33.4418C40.8092 34.4396 40.0074 35.2764 39.0326 35.869L27.7531 42.6929C26.7759 43.282 25.6607 43.6052 24.5188 43.6305C23.377 43.6557 22.2485 43.382 21.246 42.8367L9.67644 36.509C9.58986 36.4615 9.5033 36.4112 9.41815 36.3594ZM38.6285 11.8309C38.5463 11.782 38.464 11.7331 38.3789 11.6871L26.8093 5.3594C25.8418 4.83388 24.7528 4.57057 23.6512 4.59581C22.5496 4.62105 21.4739 4.93394 20.5317 5.50322L9.25217 12.3271C8.31112 12.8983 7.53701 13.7056 7.00722 14.6684C6.47742 15.6312 6.21051 16.7157 6.23316 17.8135L6.52178 30.9593C6.54733 32.0573 6.86174 33.1293 7.4336 34.0682C8.00546 35.007 8.81473 35.7798 9.78038 36.3091L21.3499 42.6368C22.3175 43.163 23.4068 43.4267 24.5088 43.4015C25.6107 43.3762 26.6867 43.063 27.629 42.493L38.9085 35.6706C39.8492 35.0987 40.6231 34.291 41.1528 33.3281C41.6826 32.3652 41.9497 31.2806 41.9275 30.1827L41.6389 17.0369C41.6138 15.9876 41.3251 14.9612 40.7992 14.0518C40.2733 13.1423 39.527 12.3788 38.6285 11.8309Z"
      fill="url(#paint7_radial_1939_14907)" />
    <path fill-rule="evenodd" clip-rule="evenodd"
      d="M7.02206 34.9283C7.57918 35.849 8.35049 36.6224 9.27079 37.1834C9.43386 37.2827 9.59982 37.3747 9.77155 37.461L21.9386 43.5011C22.992 44.0217 24.1641 44.2575 25.3377 44.1851C26.5112 44.1127 27.6451 43.7345 28.626 43.0883L39.9546 35.6101C40.9336 34.9611 41.7244 34.0674 42.2481 33.0183C42.7719 31.9692 43.0101 30.8015 42.939 29.6319L42.1005 16.1136C42.026 14.9443 41.6448 13.815 40.9949 12.8386C40.3451 11.8622 39.4494 11.0728 38.3975 10.5495L26.2305 4.50944C25.1771 3.98908 24.0051 3.75321 22.8316 3.82538C21.6581 3.89756 20.5242 4.27525 19.543 4.92074L8.21585 12.3989C7.23685 13.0477 6.44585 13.9411 5.92189 14.9899C5.39793 16.0388 5.15936 17.2063 5.23002 18.3758L6.0699 31.8941C6.13835 32.967 6.46494 34.0077 7.02206 34.9283ZM38.2964 10.7437C38.4624 10.8256 38.6241 10.9148 38.7799 11.0097V11.0069C39.6691 11.5492 40.4142 12.2969 40.9523 13.1867C41.4903 14.0766 41.8055 15.0825 41.8711 16.1193L42.711 29.6376C42.7786 30.7676 42.5477 31.8954 42.0413 32.9086C41.5348 33.9218 40.7705 34.7848 39.8247 35.4117L28.4976 42.8899C27.5499 43.5133 26.4546 43.8781 25.3212 43.948C24.1878 44.0179 23.0558 43.7904 22.0382 43.2882L9.87112 37.2482C8.85541 36.7419 7.99067 35.9792 7.36319 35.0359C6.7357 34.0926 6.3674 33.0019 6.29504 31.8725L5.45513 18.3542C5.38747 17.2243 5.61841 16.0964 6.12486 15.0832C6.63132 14.0701 7.39559 13.207 8.34139 12.5801L19.67 5.10194C20.6177 4.47853 21.7129 4.11369 22.8464 4.04379C23.9798 3.97389 25.1118 4.20138 26.1294 4.70358L38.2964 10.7437Z"
      fill="url(#paint8_radial_1939_14907)" />
    <path fill-rule="evenodd" clip-rule="evenodd"
      d="M9.14634 38.0334C8.23743 37.4798 7.46904 36.7247 6.90107 35.8266C6.3331 34.9286 5.9809 33.9121 5.87189 32.8561L4.45184 18.9783C4.3307 17.7781 4.52796 16.5673 5.02384 15.4669C5.51972 14.3666 6.29685 13.4152 7.27749 12.7081L18.6277 4.54395C19.6106 3.83789 20.7623 3.40156 21.9677 3.27864C23.173 3.15573 24.3896 3.35055 25.4956 3.84359L38.2673 9.55722C39.3714 10.0527 40.3257 10.8283 41.0348 11.8064C41.7439 12.7846 42.1829 13.9311 42.308 15.1314L43.7281 29.0092C43.848 30.2094 43.6502 31.4201 43.1544 32.5205C42.6587 33.6208 41.8822 34.5726 40.9024 35.2808L29.5508 43.445C28.5682 44.1494 27.4173 44.5845 26.213 44.7066C25.0088 44.8288 23.7935 44.6338 22.6887 44.141L9.91843 38.4274C9.65295 38.3125 9.39506 38.1809 9.14634 38.0334ZM38.9051 10.1569C38.6672 10.0135 38.421 9.88434 38.1677 9.77006L25.3974 4.05642C24.3286 3.57966 23.1528 3.39104 21.9878 3.50941C20.8228 3.62777 19.7094 4.04899 18.759 4.73091L7.40736 12.8951C6.45954 13.5792 5.70845 14.4992 5.22907 15.5631C4.74969 16.6271 4.55882 17.7977 4.67553 18.9582L6.09558 32.836C6.21557 33.9955 6.63848 35.1033 7.32217 36.0491C8.00586 36.9948 8.92642 37.7454 9.99203 38.2261L22.7623 43.9397C23.831 44.4167 25.0067 44.6055 26.1718 44.4874C27.3368 44.3693 28.4502 43.9483 29.4007 43.2667L40.7509 35.1025C41.6989 34.4181 42.4502 33.4979 42.9298 32.4337C43.4094 31.3696 43.6006 30.1987 43.4842 29.0379L42.0642 15.1601C41.9591 14.1403 41.6194 13.1583 41.0715 12.2906C40.5236 11.4228 39.7823 10.6927 38.9051 10.1569Z"
      fill="url(#paint9_radial_1939_14907)" />
    <path fill-rule="evenodd" clip-rule="evenodd"
      d="M6.80888 36.757C7.38589 37.6296 8.14911 38.3644 9.04404 38.9091C9.37707 39.111 9.72601 39.2856 10.0874 39.4311L23.4667 44.7896C24.6234 45.251 25.8814 45.4018 27.115 45.2269C28.3486 45.052 29.5145 44.5576 30.4962 43.793L41.8435 34.927C42.8231 34.1592 43.5833 33.1486 44.0483 31.9964C44.5132 30.8441 44.6666 29.5904 44.4931 28.3605L42.4612 14.1347C42.2836 12.9057 41.7856 11.7446 41.0167 10.7674C40.2479 9.79028 39.2352 9.0313 38.0798 8.56631L24.7006 3.20645C23.5436 2.74504 22.2853 2.59425 21.0515 2.76913C19.8178 2.94402 18.6516 3.43846 17.6696 4.20307L6.32228 13.0691C5.34297 13.837 4.58303 14.8476 4.11834 15.9999C3.65364 17.1522 3.50048 18.4058 3.67416 19.6355L5.7061 33.8613C5.85534 34.8957 6.23187 35.8844 6.80888 36.757ZM37.9932 8.77915C38.3432 8.91975 38.681 9.08857 39.0034 9.28393L39.0049 9.28107C39.8712 9.80896 40.6098 10.5209 41.1681 11.3661C41.7264 12.2114 42.0906 13.169 42.2346 14.1707L44.2651 28.395C44.4334 29.5854 44.2853 30.799 43.8356 31.9144C43.3858 33.0299 42.6501 34.0082 41.7021 34.7515L30.3547 43.6175C29.4042 44.3575 28.2754 44.8361 27.0811 45.0054C25.8869 45.1748 24.6689 45.0289 23.5489 44.5825L10.1711 39.2226C9.05279 38.7724 8.07254 38.0378 7.32828 37.0919C6.58402 36.1461 6.10177 35.0222 5.92976 33.8326L3.89785 19.6067C3.72978 18.4164 3.87816 17.2031 4.32818 16.0878C4.77821 14.9726 5.5141 13.9947 6.4623 13.2517L17.8096 4.38571C18.7598 3.64541 19.8883 3.16664 21.0824 2.9973C22.2765 2.82796 23.4943 2.97398 24.614 3.42074L37.9932 8.77915Z"
      fill="url(#paint10_radial_1939_14907)" />
    <path fill-rule="evenodd" clip-rule="evenodd"
      d="M8.9703 39.8094C8.09142 39.2754 7.33532 38.5628 6.75124 37.7181C6.16716 36.8734 5.76821 35.9155 5.58039 34.9069L2.90482 20.3474C2.67576 19.0896 2.78178 17.794 3.21226 16.5898C3.64275 15.3855 4.38266 14.3149 5.35814 13.4847L16.6723 3.89681C17.6512 3.07021 18.8306 2.51395 20.0927 2.28355C21.3548 2.05315 22.6554 2.15668 23.8648 2.58381L37.8531 7.55395C39.0612 7.98519 40.1346 8.72482 40.966 9.69894C41.7974 10.6731 42.3577 11.8476 42.5909 13.1051L45.2664 27.6631C45.4959 28.9209 45.3902 30.2167 44.9596 31.421C44.5291 32.6253 43.789 33.6959 42.8131 34.5258L31.5004 44.1137C30.5217 44.9406 29.3423 45.497 28.0801 45.7274C26.818 45.9579 25.5172 45.8542 24.3079 45.4267L10.3182 40.4566C9.84782 40.2875 9.39614 40.0707 8.9703 39.8094ZM39.0798 8.38087C38.6691 8.13075 38.2339 7.92306 37.7809 7.76103L23.7927 2.79091C22.621 2.37696 21.3608 2.27651 20.138 2.49958C18.9151 2.72266 17.7724 3.26146 16.8238 4.0622L5.51112 13.6516C4.56529 14.4553 3.84771 15.4923 3.43011 16.659C3.0125 17.8257 2.9095 19.0812 3.13141 20.3L5.80697 34.858C6.0329 36.0761 6.57561 37.2137 7.38092 38.1573C8.18623 39.1009 9.22594 39.8174 10.3961 40.2351L24.3858 45.2053C25.5573 45.6194 26.8172 45.7199 28.0399 45.4968C29.2625 45.2738 30.405 44.7349 31.3532 43.934L42.6674 34.346C43.6131 33.542 44.3304 32.5046 44.7478 31.3377C45.1651 30.1707 45.2678 28.9151 45.0456 27.6962L42.3701 13.1382C42.1882 12.1592 41.8011 11.2295 41.2342 10.4097C40.6672 9.58997 39.9331 8.89864 39.0798 8.38087Z"
      fill="url(#paint11_radial_1939_14907)" />
    <path fill-rule="evenodd" clip-rule="evenodd"
      d="M6.72188 38.701C7.31162 39.5192 8.06016 40.211 8.92318 40.7355C9.44562 41.0547 10.0054 41.3088 10.59 41.492L25.1916 46.0364C26.4533 46.4263 27.7956 46.4797 29.0845 46.1913C30.3734 45.9029 31.5638 45.2827 32.5371 44.3927L43.7936 34.0612C44.7638 33.1682 45.4817 32.0369 45.8755 30.7806C46.2694 29.5243 46.3252 28.1869 46.0376 26.9023L42.6852 12.0279C42.3941 10.7439 41.7699 9.55861 40.8749 8.5905C39.9799 7.6224 38.8455 6.90542 37.5852 6.51126L22.9822 1.9668C21.7208 1.57629 20.3786 1.52259 19.0898 1.81105C17.801 2.0995 16.6108 2.72002 15.6381 3.61057L4.38166 13.9406C3.41165 14.8341 2.6939 15.9656 2.30011 17.2221C1.90633 18.4786 1.85028 19.8161 2.13758 21.1009L5.49001 35.9725C5.71324 36.955 6.13215 37.8828 6.72188 38.701ZM37.5116 6.72553C38.0787 6.90191 38.622 7.14676 39.1293 7.45465C39.9663 7.96337 40.6922 8.63435 41.2641 9.42781C41.836 10.2213 42.2422 11.1211 42.4587 12.0739L45.8111 26.9483C46.09 28.1942 46.0357 29.4912 45.6538 30.7097C45.2719 31.9281 44.5757 33.0253 43.6348 33.8915L32.3784 44.2215C31.4349 45.0852 30.2805 45.6871 29.0305 45.967C27.7805 46.2468 26.4787 46.1949 25.2551 45.8164L10.6535 41.2719C9.43122 40.8896 8.33106 40.1943 7.46293 39.2555C6.59481 38.3167 5.98916 37.1673 5.70648 35.9222L2.35405 21.0477C2.07603 19.8018 2.13068 18.505 2.51253 17.2868C2.89438 16.0685 3.59011 14.9712 4.53031 14.1045L15.7867 3.77452C16.7301 2.91105 17.8843 2.30944 19.1341 2.02982C20.3838 1.7502 21.6854 1.80234 22.9086 2.18107L37.5116 6.72553Z"
      fill="url(#paint12_radial_1939_14907)" />
    <path fill-rule="evenodd" clip-rule="evenodd"
      d="M8.89954 41.6862C7.19494 40.6522 5.95479 39.0045 5.43603 37.0842L1.37508 21.9121C1.02672 20.6021 1.02929 19.2239 1.38255 17.9152C1.73581 16.6065 2.42739 15.4131 3.38824 14.454L14.5436 3.36327C15.5079 2.40754 16.707 1.72072 18.0211 1.37145C19.3351 1.02218 20.7182 1.02267 22.032 1.37291L37.2469 5.45428C38.5594 5.80827 39.7556 6.49928 40.7162 7.45825C41.6767 8.41723 42.3679 9.61058 42.7207 10.9191L46.7831 26.0912C47.1309 27.4019 47.1273 28.7805 46.7727 30.0893C46.4182 31.398 45.7251 32.5912 44.7628 33.5493L33.6088 44.6401C32.6445 45.5958 31.4454 46.2826 30.1314 46.6319C28.8173 46.9812 27.4342 46.9807 26.1204 46.6304L10.9199 42.5476C10.2086 42.3582 9.52824 42.0681 8.89954 41.6862ZM39.1432 6.50411C38.535 6.13459 37.877 5.85324 37.1892 5.66856L21.9743 1.58862C20.699 1.24853 19.3565 1.24792 18.0809 1.58685C16.8053 1.92577 15.6413 2.59237 14.7052 3.52002L3.55129 14.6108C2.61826 15.5415 1.94674 16.7 1.60384 17.9704C1.26095 19.2408 1.25867 20.5787 1.59729 21.8502L5.65828 37.0209C6.00017 38.2914 6.67073 39.4502 7.60294 40.3815C8.53516 41.3127 9.69637 41.9838 10.9704 42.3276L26.1868 46.409C27.462 46.7485 28.8043 46.7486 30.0795 46.4095C31.3548 46.0703 32.5185 45.4037 33.4544 44.4761L44.6098 33.3854C45.5427 32.4549 46.2142 31.2967 46.5571 30.0265C46.9 28.7563 46.9023 27.4187 46.5638 26.1473L42.5028 10.9752C42.0016 9.111 40.8003 7.51019 39.1475 6.50411H39.1432Z"
      fill="url(#paint13_radial_1939_14907)" />
    <path fill-rule="evenodd" clip-rule="evenodd"
      d="M20.7531 47.7718L20.7019 47.7664C18.7481 47.4906 16.836 46.9752 15.009 46.2321H14.9868C13.9674 45.8146 12.9776 45.3289 12.0241 44.7781C11.8761 44.6844 11.739 44.6015 11.6042 44.52L11.5435 44.4833C10.6745 43.9552 9.8396 43.3733 9.04372 42.7409L8.99757 42.7132C8.96844 42.6957 8.94121 42.6794 8.91453 42.6626C8.75644 42.5664 8.60198 42.4649 8.45138 42.3584C7.70161 41.8289 7.04735 41.1738 6.51854 40.4206C6.13323 40.0122 5.75657 39.5837 5.40012 39.145L5.39523 39.1389C5.10824 38.7813 4.82135 38.4124 4.55157 38.0406C4.54936 38.0379 4.54734 38.0351 4.54552 38.0322C3.74353 36.9238 3.03866 35.7487 2.43874 34.5199C2.21361 34.0612 2.00581 33.5808 1.79944 33.0947C1.03152 31.2235 0.503482 29.2632 0.227851 27.2603C0.0772937 26.1681 0.00162054 25.0669 0.00130465 23.9644C0.000504811 23.9591 6.88501e-05 23.9538 0 23.9484C0.00294593 22.7419 0.0960348 21.5373 0.278514 20.3445C0.289445 19.2048 0.545844 18.0807 1.03038 17.0483C1.19345 16.5119 1.37963 15.9712 1.58166 15.4405C1.58432 15.4338 1.58761 15.4274 1.59148 15.4213C1.76475 14.9738 1.93961 14.5565 2.12703 14.149C2.53928 13.2384 3.00775 12.3542 3.52975 11.5014C3.74045 11.1577 3.95546 10.8255 4.16905 10.512C4.45767 10.0949 4.75785 9.67645 5.07389 9.26946C6.31077 7.67831 7.74515 6.2499 9.34268 5.0184C10.2114 4.34863 11.125 3.73885 12.0772 3.19334C12.0806 3.19083 12.084 3.18849 12.0877 3.18635C13.1285 2.59147 14.2124 2.07472 15.3304 1.64038C16.3487 1.06319 17.4818 0.715622 18.6496 0.622178C19.1979 0.495624 19.7478 0.387769 20.2832 0.302921C20.2904 0.301312 20.2978 0.300611 20.3051 0.300817C20.7781 0.225469 21.2397 0.158787 21.6772 0.121745H21.691C23.0169 -0.0127055 24.3519 -0.0358453 25.6818 0.052578C26.2966 0.0914071 26.9113 0.154677 27.5117 0.242402C29.453 0.519497 31.3527 1.03369 33.1679 1.77337L33.1833 1.77558C33.1928 1.77573 33.2022 1.7782 33.2107 1.78278C34.2314 2.19979 35.2223 2.68606 36.1763 3.23815C37.2168 3.83789 38.2105 4.51474 39.1492 5.26301C40.1424 5.84433 40.9987 6.63149 41.6602 7.5712C42.0484 7.9825 42.4265 8.41249 42.783 8.84968C43.0918 9.22935 43.3689 9.5903 43.6301 9.95271C43.6357 9.95983 43.6406 9.96755 43.6445 9.97572L43.6591 10.0122C44.4446 11.1034 45.1365 12.2588 45.7272 13.4659V13.4774L45.7482 13.5242C45.9663 13.9736 46.1693 14.4288 46.3547 14.8782L46.3766 14.9271C47.1297 16.7694 47.651 18.6975 47.9288 20.6672L47.9494 20.7184C47.95 20.7271 47.95 20.7357 47.9494 20.7443C48.0997 21.8405 48.1754 22.9456 48.1759 24.052C48.1731 25.2517 48.0806 26.4494 47.8992 27.6354L47.8992 27.64C47.8892 28.7875 47.6318 29.9195 47.1445 30.9592L47.1439 30.9604C46.9812 31.4951 46.7956 32.0339 46.5928 32.5642C46.4167 33.0215 46.2393 33.4443 46.0488 33.8585C46.0453 33.8666 46.0409 33.8744 46.0358 33.8815L46.0187 33.9031C45.6125 34.7977 45.1513 35.6665 44.6377 36.5046C44.4313 36.8411 44.2047 37.1805 43.9825 37.5112L43.8864 37.6433C43.6709 37.9537 43.4451 38.261 43.2186 38.5607L43.1094 38.7106C41.8801 40.2956 40.4552 41.7199 38.8685 42.9497L38.8533 42.969L38.8331 42.9891C37.9621 43.6601 37.046 44.2709 36.0912 44.817C35.0518 45.4096 33.9698 45.9249 32.8542 46.3586C31.8365 46.9379 30.7033 47.287 29.535 47.3811C29.0054 47.5048 28.4556 47.6127 27.9 47.7018C27.4425 47.7752 26.9749 47.837 26.5131 47.8845C26.5083 47.8852 26.5034 47.8856 26.4986 47.8855C26.4938 47.8855 26.489 47.8852 26.4843 47.8845L26.474 47.883C25.1376 48.0157 23.7924 48.0373 22.4524 47.9477L22.3797 47.9401C21.8441 47.9038 21.3011 47.8476 20.7531 47.7718ZM45.505 13.5724C45.0812 12.7056 44.6046 11.8659 44.0781 11.0578L47.5183 19.6429C47.2217 18.0617 46.7653 16.5134 46.1555 15.0219C46.1485 15.0047 46.1414 14.9875 46.1343 14.9703L45.5181 13.5995C45.5155 13.5943 45.513 13.5891 45.5104 13.5838L45.505 13.5724ZM47.7033 20.7798L43.4263 10.1088L43.4226 10.1036C43.3011 9.9353 43.1762 9.76633 43.046 9.59584L47.916 23.3028C47.8896 22.4589 47.8186 21.6167 47.7033 20.7798ZM47.9276 24.0528L42.5849 9.01479L42.5827 9.01208C42.4906 8.89977 42.397 8.78746 42.3021 8.67552C42.4748 9.03177 42.6208 9.40096 42.7386 9.78007L47.5428 25.2283C47.6597 25.6041 47.7482 25.9876 47.8078 26.3754C47.8854 25.6038 47.9254 24.8287 47.9276 24.0528ZM47.6599 27.5529C47.6581 26.7863 47.5413 26.0241 47.3133 25.2916L42.5091 9.84334C42.2848 9.11724 41.9526 8.42894 41.5238 7.80123L41.4657 7.73935L41.4541 7.72641C40.8086 6.80849 39.9717 6.04028 39.0008 5.47432L38.9835 5.46426C38.9433 5.4321 38.903 5.40008 38.8626 5.36819C38.2233 5.01508 37.5367 4.75393 36.8232 4.59277L20.9979 1.0133C20.279 0.850815 19.5409 0.791101 18.8057 0.835747L18.6772 0.865168H18.6613C17.5223 0.956147 16.4173 1.29538 15.4244 1.85889L15.41 1.86609L15.3452 1.89134C14.6955 2.27306 14.1047 2.74702 13.5917 3.29847L2.56765 15.1701C2.03624 15.742 1.595 16.3908 1.25898 17.0944L1.24974 17.1246C1.25033 17.1298 1.25033 17.1351 1.24974 17.1404C0.776341 18.1478 0.526287 19.2451 0.516616 20.3574C0.517326 20.3632 0.517326 20.369 0.516616 20.3747L0.506475 20.4412C0.507666 21.2075 0.624489 21.9695 0.853199 22.7015L5.65594 38.1526C5.88844 38.8992 6.23331 39.6061 6.67868 40.2493L6.70188 40.2739C6.70603 40.2776 6.70946 40.282 6.712 40.2869C7.35659 41.2076 8.19353 41.9783 9.16532 42.5461L9.16313 42.5456C9.8417 42.9395 10.5763 43.2287 11.3419 43.4032L27.1701 46.9812C27.9309 47.1552 28.7141 47.2115 29.4921 47.1481C30.6343 47.0587 31.7423 46.7178 32.7363 46.15C33.4194 45.7609 34.0389 45.2701 34.5734 44.6947L45.5974 32.8244C46.1315 32.2507 46.5743 31.599 46.9107 30.892C46.913 30.8847 46.9152 30.8773 46.9174 30.87C46.9169 30.8652 46.9169 30.8604 46.9174 30.8556C47.3916 29.8459 47.6417 28.7461 47.6506 27.6313V27.6141C47.6537 27.5937 47.6568 27.5733 47.6599 27.5529ZM46.5265 32.0422C46.301 32.374 46.0503 32.689 45.7764 32.9841L34.7523 44.8543C34.4722 45.1555 34.1694 45.4342 33.847 45.6881C34.567 45.3667 35.271 45.0102 35.9564 44.6199L46.3659 32.4765C46.3665 32.475 46.3671 32.4735 46.3676 32.472C46.4217 32.3294 46.4747 32.186 46.5265 32.0422ZM46.102 33.1319L36.5604 44.2628C37.2933 43.8149 38.0018 43.3283 38.683 42.8049C38.6869 42.8019 38.6909 42.7988 38.6948 42.7957L45.8052 33.8049C45.8128 33.7882 45.8204 33.7715 45.8279 33.7548C45.922 33.5501 46.0129 33.3436 46.102 33.1319ZM45.3508 34.7482L39.5137 42.1335C40.7715 41.0691 41.9152 39.8763 42.9258 38.574C42.9618 38.5274 42.9978 38.4807 43.0336 38.4338L43.7252 37.4804C43.7474 37.4481 43.7696 37.4157 43.7916 37.3832C44.0182 37.051 44.2361 36.7145 44.4396 36.3765C44.7646 35.8457 45.0686 35.3025 45.3508 34.7482ZM28.3401 47.3854C27.9337 47.3571 27.5295 47.2976 27.1311 47.207L11.3029 43.629C10.8916 43.536 10.489 43.4108 10.0987 43.2549C10.7458 43.7212 11.4164 44.1547 12.1078 44.5538L27.8697 47.4659C27.9183 47.4581 27.9668 47.4502 28.0152 47.4421C28.1238 47.4239 28.2322 47.405 28.3401 47.3854ZM27.162 47.5702L12.7249 44.9028C13.4829 45.3119 14.2627 45.6803 15.0607 46.0062L15.0683 46.0093L26.4641 47.6521C26.4664 47.6518 26.4688 47.6516 26.4712 47.6514C26.7007 47.6276 26.9316 47.6005 27.162 47.5702ZM25.4329 47.733L16.033 46.3788C17.0721 46.7512 18.1359 47.0506 19.2165 47.2749C19.7164 47.3786 20.2198 47.4663 20.7261 47.5377C20.7262 47.5378 20.726 47.5377 20.7261 47.5377L22.4683 47.719C22.9863 47.7534 23.5051 47.7711 24.0239 47.7721C24.4938 47.7728 24.9637 47.7597 25.4329 47.733ZM36.0337 3.4509L36.0208 3.44343L20.3351 0.54229L20.3036 0.547332C20.1562 0.570759 20.0078 0.595831 19.8587 0.622518C20.2585 0.651622 20.6562 0.710538 21.0483 0.799024L36.8737 4.3785C37.2591 4.46477 37.6369 4.57957 38.004 4.7217C37.3691 4.26591 36.7115 3.84176 36.0337 3.4509ZM33.0955 2.01278L33.0711 2.00279L21.6954 0.365598L21.676 0.367568C21.4755 0.387547 21.2679 0.411227 21.0558 0.438466L35.3723 3.08345C34.6327 2.68752 33.8727 2.33013 33.0955 2.01278ZM27.4673 0.484063C29.028 0.707148 30.5614 1.08504 32.0449 1.61156L22.801 0.279715C23.7504 0.228151 24.7024 0.233436 25.6519 0.295662L27.4673 0.484063ZM13.4243 3.15178C13.7055 2.84913 14.0095 2.56921 14.3334 2.31437C13.6097 2.63659 12.9023 2.99459 12.2139 3.3871L1.79236 15.5426C1.73337 15.6972 1.67591 15.8527 1.62004 16.0087C1.85316 15.6607 2.11396 15.3312 2.40023 15.0234L13.4243 3.15178ZM2.04239 14.8936L11.5944 3.75241C10.8604 4.20031 10.1512 4.68774 9.47003 5.21259L9.46042 5.22L2.32948 14.2422L2.32221 14.2583C2.22608 14.4667 2.13331 14.6774 2.04239 14.8936ZM5.24021 9.4234C6.26966 8.09979 7.437 6.88985 8.7221 5.8136L2.74077 13.3798C3.03949 12.785 3.3635 12.2029 3.71196 11.6352C3.91977 11.2944 4.13333 10.9651 4.34259 10.6573L5.24021 9.4234ZM0.232554 24.6217C0.256063 25.4907 0.327361 26.358 0.446169 27.2196L4.73915 37.9284C4.87551 38.117 5.01609 38.3052 5.15972 38.4919L0.232554 24.6217ZM2.00472 33.02C1.36436 31.4574 0.892423 29.8324 0.596298 28.1724L4.18541 37.1356C3.61164 36.2709 3.09526 35.3693 2.63972 34.4365L2.00472 33.02ZM5.43802 38.2217C5.56209 38.6206 5.71744 39.0085 5.90235 39.3819C5.80055 39.2622 5.69997 39.1414 5.60076 39.0199L0.239547 23.9326C0.241606 23.1461 0.282681 22.3604 0.362555 21.5783C0.42215 21.9821 0.51324 22.3812 0.635285 22.772L5.43802 38.2217Z"
      fill="url(#paint14_radial_1939_14907)" />
  </g>
  <defs>
    <radialGradient id="paint0_radial_1939_14907" cx="0" cy="0" r="1" gradientUnits="userSpaceOnUse"
      gradientTransform="translate(23.3703 24) rotate(-180) scale(26.7089 27.4286)">
      <stop stop-color="#3FEFFA" />
      <stop offset="0.6875" stop-color="#4541FF" />
      <stop offset="1" stop-color="#180491" />
    </radialGradient>
    <radialGradient id="paint1_radial_1939_14907" cx="0" cy="0" r="1" gradientUnits="userSpaceOnUse"
      gradientTransform="translate(23.3703 24) rotate(-180) scale(26.7089 27.4286)">
      <stop stop-color="#3FEFFA" />
      <stop offset="0.6875" stop-color="#4541FF" />
      <stop offset="1" stop-color="#180491" />
    </radialGradient>
    <radialGradient id="paint2_radial_1939_14907" cx="0" cy="0" r="1" gradientUnits="userSpaceOnUse"
      gradientTransform="translate(23.3703 24) rotate(-180) scale(26.7089 27.4286)">
      <stop stop-color="#3FEFFA" />
      <stop offset="0.6875" stop-color="#4541FF" />
      <stop offset="1" stop-color="#180491" />
    </radialGradient>
    <radialGradient id="paint3_radial_1939_14907" cx="0" cy="0" r="1" gradientUnits="userSpaceOnUse"
      gradientTransform="translate(23.3703 24) rotate(-180) scale(26.7089 27.4286)">
      <stop stop-color="#3FEFFA" />
      <stop offset="0.6875" stop-color="#4541FF" />
      <stop offset="1" stop-color="#180491" />
    </radialGradient>
    <radialGradient id="paint4_radial_1939_14907" cx="0" cy="0" r="1" gradientUnits="userSpaceOnUse"
      gradientTransform="translate(23.3703 24) rotate(-180) scale(26.7089 27.4286)">
      <stop stop-color="#3FEFFA" />
      <stop offset="0.6875" stop-color="#4541FF" />
      <stop offset="1" stop-color="#180491" />
    </radialGradient>
    <radialGradient id="paint5_radial_1939_14907" cx="0" cy="0" r="1" gradientUnits="userSpaceOnUse"
      gradientTransform="translate(23.3703 24) rotate(-180) scale(26.7089 27.4286)">
      <stop stop-color="#3FEFFA" />
      <stop offset="0.6875" stop-color="#4541FF" />
      <stop offset="1" stop-color="#180491" />
    </radialGradient>
    <radialGradient id="paint6_radial_1939_14907" cx="0" cy="0" r="1" gradientUnits="userSpaceOnUse"
      gradientTransform="translate(23.3703 24) rotate(-180) scale(26.7089 27.4286)">
      <stop stop-color="#3FEFFA" />
      <stop offset="0.6875" stop-color="#4541FF" />
      <stop offset="1" stop-color="#180491" />
    </radialGradient>
    <radialGradient id="paint7_radial_1939_14907" cx="0" cy="0" r="1" gradientUnits="userSpaceOnUse"
      gradientTransform="translate(23.3703 24) rotate(-180) scale(26.7089 27.4286)">
      <stop stop-color="#3FEFFA" />
      <stop offset="0.6875" stop-color="#4541FF" />
      <stop offset="1" stop-color="#180491" />
    </radialGradient>
    <radialGradient id="paint8_radial_1939_14907" cx="0" cy="0" r="1" gradientUnits="userSpaceOnUse"
      gradientTransform="translate(23.3703 24) rotate(-180) scale(26.7089 27.4286)">
      <stop stop-color="#3FEFFA" />
      <stop offset="0.6875" stop-color="#4541FF" />
      <stop offset="1" stop-color="#180491" />
    </radialGradient>
    <radialGradient id="paint9_radial_1939_14907" cx="0" cy="0" r="1" gradientUnits="userSpaceOnUse"
      gradientTransform="translate(23.3703 24) rotate(-180) scale(26.7089 27.4286)">
      <stop stop-color="#3FEFFA" />
      <stop offset="0.6875" stop-color="#4541FF" />
      <stop offset="1" stop-color="#180491" />
    </radialGradient>
    <radialGradient id="paint10_radial_1939_14907" cx="0" cy="0" r="1" gradientUnits="userSpaceOnUse"
      gradientTransform="translate(23.3703 24) rotate(-180) scale(26.7089 27.4286)">
      <stop stop-color="#3FEFFA" />
      <stop offset="0.6875" stop-color="#4541FF" />
      <stop offset="1" stop-color="#180491" />
    </radialGradient>
    <radialGradient id="paint11_radial_1939_14907" cx="0" cy="0" r="1" gradientUnits="userSpaceOnUse"
      gradientTransform="translate(23.3703 24) rotate(-180) scale(26.7089 27.4286)">
      <stop stop-color="#3FEFFA" />
      <stop offset="0.6875" stop-color="#4541FF" />
      <stop offset="1" stop-color="#180491" />
    </radialGradient>
    <radialGradient id="paint12_radial_1939_14907" cx="0" cy="0" r="1" gradientUnits="userSpaceOnUse"
      gradientTransform="translate(23.3703 24) rotate(-180) scale(26.7089 27.4286)">
      <stop stop-color="#3FEFFA" />
      <stop offset="0.6875" stop-color="#4541FF" />
      <stop offset="1" stop-color="#180491" />
    </radialGradient>
    <radialGradient id="paint13_radial_1939_14907" cx="0" cy="0" r="1" gradientUnits="userSpaceOnUse"
      gradientTransform="translate(23.3703 24) rotate(-180) scale(26.7089 27.4286)">
      <stop stop-color="#3FEFFA" />
      <stop offset="0.6875" stop-color="#4541FF" />
      <stop offset="1" stop-color="#180491" />
    </radialGradient>
    <radialGradient id="paint14_radial_1939_14907" cx="0" cy="0" r="1" gradientUnits="userSpaceOnUse"
      gradientTransform="translate(23.3703 24) rotate(-180) scale(26.7089 27.4286)">
      <stop stop-color="#3FEFFA" />
      <stop offset="0.6875" stop-color="#4541FF" />
      <stop offset="1" stop-color="#180491" />
    </radialGradient>
    <clipPath id="clip0_1939_14907">
      <rect width="211" height="48" fill="white" />
    </clipPath>
  </defs>
</svg>