<svg width="109" height="42" viewBox="0 0 109 42" fill="none" xmlns="http://www.w3.org/2000/svg">
  <g clip-path="url(#a)">
    <path
      d="M3.287 24.72c-.854-.333-1.5-1.046-1.926-1.825C.752 21.783.5 20.44.5 19.188c0-1.25.25-2.595.861-3.707.426-.778 1.071-1.492 1.926-1.825 1.228-3.947 3.735-7.406 7.15-9.865A20.22 20.22 0 0 1 22.245.005 20.22 20.22 0 0 1 34.053 3.79c3.414 2.459 5.921 5.918 7.15 9.865.853.334 1.5 1.047 1.925 1.825.609 1.113.861 2.456.861 3.708 0 1.252-.25 2.595-.861 3.707-.426.779-1.072 1.492-1.926 1.825a19.06 19.06 0 0 1-4.958 8.035 19.77 19.77 0 0 1-1.33 1.178l-.004.363c-.028 2.153-.599 4.52-2.664 5.688-2.755 1.558-6.847 1.984-10 1.984-3.152 0-7.242-.424-10-1.984-2.062-1.168-2.636-3.535-2.663-5.688l-.004-.364a19.932 19.932 0 0 1-1.33-1.178 19.06 19.06 0 0 1-4.962-8.034Z"
      fill="#fff" />
    <path
      d="M40.15 23.472c1.296 0 2.346-1.918 2.346-4.284 0-2.366-1.05-4.284-2.346-4.284-1.295 0-2.345 1.918-2.345 4.284 0 2.366 1.05 4.284 2.345 4.284ZM4.338 23.472c1.295 0 2.345-1.918 2.345-4.284 0-2.366-1.05-4.284-2.345-4.284-1.296 0-2.346 1.918-2.346 4.284 0 2.366 1.05 4.284 2.346 4.284Z"
      fill="#231D35" />
    <path
      d="M22.244 36.927c-4.234 0-8.337-1.423-11.61-4.027-3.273-2.604-5.513-6.227-6.34-10.253a17.263 17.263 0 0 1 1.81-11.823c1.997-3.62 5.226-6.456 9.137-8.027a18.842 18.842 0 0 1 12.316-.586c4.052 1.192 7.552 3.708 9.904 7.12a17.322 17.322 0 0 1 2.996 11.595c-.415 4.085-2.278 7.903-5.272 10.805a18.298 18.298 0 0 1-5.936 3.85 18.752 18.752 0 0 1-7.005 1.346Z"
      fill="#231D35" />
    <path
      d="M22.246 35.476c3.887 0 7.655-1.306 10.66-3.697s5.062-5.718 5.82-9.414a15.85 15.85 0 0 0-1.66-10.856c-1.833-3.324-4.798-5.929-8.39-7.37a17.301 17.301 0 0 0-11.308-.54c-3.72 1.095-6.935 3.405-9.095 6.539a15.905 15.905 0 0 0-2.75 10.646c.38 3.75 2.091 7.257 4.84 9.921a16.795 16.795 0 0 0 5.45 3.535 17.212 17.212 0 0 0 6.433 1.236Z"
      fill="#fff" />
    <path
      d="M22.244 35.475h.217l.217-.004c.072 0 .144-.003.216-.006l.215-.01c.072-.003.143-.007.215-.012l.213-.014.213-.017c.071-.006.142-.012.212-.02.07-.007.142-.013.212-.021l.21-.025.21-.027.21-.03c.069-.01.138-.02.208-.032l.206-.035.207-.037.206-.039.204-.042c.069-.014.136-.029.204-.045l.203-.046.201-.049.202-.051.2-.054.199-.056.197-.06.197-.061c.066-.02.13-.041.196-.06l.194-.066.194-.067.192-.07.191-.072.188-.074a11.7 11.7 0 0 0 .187-.076l.188-.078.187-.08.188-.083.184-.085.183-.087.182-.088.18-.091c.063-.031.12-.06.18-.094.059-.032.118-.06.177-.095l.177-.097c.059-.032.117-.066.175-.099l.174-.1.173-.104.171-.105.17-.107.168-.109.167-.11.165-.113.164-.114.163-.116.16-.122.16-.12.158-.122c.053-.04.104-.082.156-.121l.155-.126.153-.127.152-.129.15-.13c.05-.044.1-.088.148-.133l.147-.133.145-.136.144-.138a13.192 13.192 0 0 0 .42-.421l.136-.144.134-.145c.045-.05.09-.098.133-.148l.131-.148.13-.15.125-.152.125-.153c.042-.052.082-.103.125-.154l.125-.157a9.35 9.35 0 0 0 .238-.316c.04-.053.077-.107.116-.16a13.148 13.148 0 0 0 .226-.325l.111-.165.108-.166.106-.167.105-.169.102-.17a7.96 7.96 0 0 0 .1-.17l.098-.173c.032-.058.062-.116.096-.173.034-.058.063-.117.094-.175a7.21 7.21 0 0 0 .092-.177c.029-.058.062-.12.089-.177.027-.056.059-.121.087-.182.03-.06.058-.12.085-.181l.084-.182.08-.182.079-.182.077-.181c.025-.061.05-.122.074-.186.024-.064.048-.121.071-.186.024-.061.047-.125.07-.188.023-.06.045-.126.067-.189.022-.06.044-.126.063-.19.019-.062.042-.127.062-.19.02-.064.04-.128.063-.192l.058-.193.055-.194.053-.194.05-.196.049-.196a19.526 19.526 0 0 0 .089-.396l.04-.2.039-.199.035-.201.034-.202.03-.202.028-.204.025-.204a21.34 21.34 0 0 0 .044-.41 20.545 20.545 0 0 0 .032-.414l.012-.208.01-.209.007-.209c.002-.07 0-.14.004-.21.003-.07 0-.14 0-.21v-.21c0-.071 0-.14-.004-.21-.004-.07-.005-.14-.007-.21l-.01-.209-.012-.207c-.004-.07-.01-.139-.015-.208l-.017-.206a18.568 18.568 0 0 0-.07-.615l-.027-.204-.03-.202-.034-.202-.035-.2-.039-.2-.04-.2-.044-.199-.045-.197-.048-.197-.05-.195-.054-.195-.055-.194-.058-.192a4.61 4.61 0 0 0-.063-.192c-.022-.064-.041-.127-.062-.191l-.063-.19c-.02-.063-.044-.126-.067-.188l-.07-.188a17.184 17.184 0 0 0-.071-.187c-.025-.061-.05-.12-.074-.185-.025-.064-.05-.121-.077-.182l-.078-.181-.081-.182-.084-.182a11.4 11.4 0 0 0-.172-.363c-.03-.061-.06-.122-.09-.178a8.018 8.018 0 0 1-.091-.176c-.03-.059-.063-.117-.094-.175l-.096-.174c-.034-.057-.063-.115-.098-.172-.036-.058-.067-.115-.1-.171l-.102-.17a14.891 14.891 0 0 0-.43-.667 19.162 19.162 0 0 0-.111-.163l-.115-.161-.116-.161a9.16 9.16 0 0 0-.238-.316l-.125-.157c-.041-.051-.082-.103-.125-.154l-.125-.153-.125-.152-.13-.15-.13-.148a9.385 9.385 0 0 0-.268-.292l-.137-.145c-.045-.047-.09-.095-.138-.142-.046-.047-.092-.094-.14-.14l-.141-.14-.144-.137-.145-.136c-.049-.044-.097-.09-.147-.133a16.346 16.346 0 0 0-.148-.132l-.15-.131-.146-.13-.153-.126a10.492 10.492 0 0 0-.311-.247c-.053-.038-.105-.081-.159-.12-.052-.041-.105-.082-.159-.122l-.16-.121-.163-.116a10.325 10.325 0 0 0-.33-.227l-.166-.11c-.056-.038-.113-.074-.169-.11l-.17-.106-.17-.105a12.843 12.843 0 0 0-.348-.204l-.175-.1-.176-.097a15.26 15.26 0 0 0-.178-.095c-.06-.031-.12-.06-.18-.093l-.18-.091c-.062-.03-.12-.06-.182-.089-.06-.027-.125-.06-.183-.087-.058-.026-.125-.056-.183-.084-.06-.028-.126-.056-.188-.083l-.188-.08-.187-.079a12.291 12.291 0 0 0-.188-.076l-.187-.074c-.063-.024-.125-.048-.191-.071l-.193-.07-.194-.068-.194-.065-.196-.06-.197-.06-.197-.061c-.067-.022-.133-.039-.2-.057l-.2-.054a10.886 10.886 0 0 0-.2-.05l-.202-.05a19.042 19.042 0 0 0-.203-.046l-.204-.045-.204-.042-.206-.04-.206-.036a12.177 12.177 0 0 0-.207-.035l-.208-.032-.21-.03-.21-.027-.21-.025-.212-.022-.212-.019-.213-.018-.213-.013-.215-.013-.215-.009c-.072 0-.144-.004-.216-.006l-.217-.005h-.689l-.11.003H21.433l-.094.005h-.093c4.276.246 8.294 2.067 11.231 5.089 2.938 3.022 4.574 7.018 4.574 11.17s-1.636 8.148-4.574 11.17c-2.937 3.022-6.955 4.843-11.23 5.09h.092l.094.004h.403l.179.003H22.249l-.005.043Z"
      fill="#50F9D1" />
    <path
      d="M22.244 35.476c.337 0 .67-.01 1-.03-4.276-.246-8.293-2.066-11.23-5.089-2.939-3.022-4.575-7.017-4.575-11.17 0-4.152 1.636-8.148 4.574-11.17 2.938-3.022 6.955-4.842 11.231-5.09-.333-.019-.666-.028-1-.028a17.27 17.27 0 0 0-6.462 1.211 16.854 16.854 0 0 0-5.486 3.524 16.269 16.269 0 0 0-3.67 5.297 15.856 15.856 0 0 0-1.288 6.256c0 2.148.438 4.274 1.289 6.257a16.268 16.268 0 0 0 3.669 5.296 16.854 16.854 0 0 0 5.486 3.525 17.27 17.27 0 0 0 6.462 1.21Z"
      fill="#A930FC" />
    <path
      d="M11.84 11.213c2.667-2.45 6.345-3.966 10.404-3.966 4.06 0 7.739 1.515 10.405 3.966 2.666 2.452 4.33 5.86 4.33 9.615 0 3.757-1.655 7.157-4.33 9.616-2.675 2.459-6.342 3.966-10.405 3.966-4.062 0-7.737-1.514-10.404-3.966-2.666-2.453-4.33-5.86-4.33-9.616 0-3.756 1.655-7.156 4.33-9.615Z"
      fill="#231D35" />
    <path
      d="M34.047 25.682a12.576 12.576 0 0 0 1.18-4.96c.087-3.184-1.078-6.335-3.515-8.699-2.438-2.363-5.688-3.492-8.975-3.407a13.637 13.637 0 0 0-5.117 1.143.535.535 0 0 0-.282.273.51.51 0 0 0-.014.385c.046.126.14.23.262.291a.558.558 0 0 0 .396.04 13.564 13.564 0 0 1 2.982-.412c3.285-.085 6.537 1.044 8.974 3.407 2.438 2.364 3.603 5.513 3.516 8.7-.028.976-.17 1.946-.426 2.89a.511.511 0 0 0 .046.38c.064.116.17.205.298.249.129.044.269.04.394-.012a.535.535 0 0 0 .281-.267v-.001Z"
      fill="#fff" />
    <path
      d="M33.414 34.28c-.02 1.603-.369 3.575-1.922 4.457-2.488 1.407-6.41 1.787-9.25 1.787s-6.759-.38-9.25-1.787c-1.554-.879-1.902-2.855-1.922-4.456l-.035-2.666 2.335 1.41a17.215 17.215 0 0 0 8.869 2.45c3.134 0 6.206-.848 8.869-2.45l2.334-1.41-.034 2.666h.006Z"
      fill="#231D35" />
    <path
      d="M12.58 34.263c.014 1.128.22 2.673 1.177 3.214 1.872 1.06 5.168 1.589 8.488 1.589 3.32 0 6.616-.53 8.488-1.589.957-.54 1.162-2.086 1.177-3.214a18.756 18.756 0 0 1-9.665 2.671c-3.416 0-6.763-.925-9.665-2.671Z"
      fill="#fff" />
    <path
      d="M12.58 34.263c.014 1.128.22 2.673 1.176 3.214 1.872 1.06 5.168 1.589 8.488 1.589h.375c-3.191-.04-6.312-.567-8.112-1.586-.837-.473-1.099-1.717-1.16-2.776-.26-.14-.517-.287-.769-.439l.001-.002Z"
      fill="#A930FC" />
    <path
      d="M31.909 34.263c-.014 1.128-.22 2.673-1.177 3.214-1.875 1.06-5.168 1.589-8.488 1.589h-.375c3.191-.04 6.313-.567 8.112-1.586.837-.473 1.1-1.717 1.161-2.776.26-.142.515-.29.767-.441Z"
      fill="#50F9D1" />
    <path fill-rule="evenodd" clip-rule="evenodd"
      d="M52.34 26.326h8.885V23.47H56.14v-8.074h-3.8v10.931Zm15.243.25c3.461 0 5.49-1.89 5.49-5.169v-6.011h-3.735v5.902c0 1.67-.66 2.295-1.723 2.295-1.062 0-1.722-.625-1.722-2.295v-5.902h-3.799v6.011c0 3.28 2.029 5.169 5.49 5.169Zm15.42-.25h3.929l-4.926-10.93h-3.735l-4.925 10.93h3.863l.756-1.905h4.282l.757 1.905Zm-3.991-4.56 1.095-2.748 1.094 2.748h-2.19Zm15.275 4.56h4.057l-2.366-3.373c1.352-.671 2.125-1.858 2.125-3.436 0-2.528-1.996-4.121-5.136-4.121h-5.424v10.93h3.799v-2.748h1.03l1.915 2.748Zm-.015-6.809c0 .797-.5 1.281-1.546 1.281h-1.384v-2.56h1.384c1.046 0 1.546.483 1.546 1.28Zm7.549 6.81h3.799v-8.074h3.299v-2.857H98.521v2.857h3.3v8.073Z"
      fill="#fff" />
  </g>
  <defs>
    <clipPath id="a">
      <path fill="#fff" transform="translate(.5)" d="M0 0h108.419v42H0z" />
    </clipPath>
  </defs>
</svg>