<svg width="400" height="400" viewBox="0 0 400 400" fill="none" xmlns="http://www.w3.org/2000/svg">
  <path
    d="m272.3 149.6 20.1 23.7c2.3 2.7 4.3 4.8 5.2 6.1 6 6 9.4 14.1 9.4 22.5-.6 9.9-7 16.7-13 24l-14.1 16.5-7.3 8.6c-.3.3-.4.7-.5 1.1-.1.4 0 .8.2 1.1.2.4.4.7.8.9.3.2.7.3 1.1.3h73.4c11.2 0 25.3 9.4 24.5 23.7 0 6.5-2.7 12.7-7.3 17.3-4.7 4.6-11 7.2-17.6 7.2h-115c-7.6 0-27.9.8-33.6-16.5-1.2-3.6-1.4-7.5-.5-11.2 1.7-5.5 4.3-10.7 7.7-15.3 5.8-8.6 12-17.1 18.2-25.4 8-10.9 16.1-21.4 24.2-32.5.3-.4.4-.8.4-1.3s-.2-.9-.4-1.3L219 164.8c-.2-.2-.4-.4-.7-.6-.3-.1-.6-.2-.9-.2-.3 0-.6.1-.9.2-.3.1-.5.3-.7.6-7.8 10.4-42.1 56.5-49.4 65.9-7.3 9.3-25.3 9.9-35.3 0l-45.7-45.2c-.3-.3-.7-.5-1.1-.6-.4-.1-.8 0-1.2.1-.4.2-.7.4-.9.8-.2.3-.4.7-.3 1.1v86.9c.1 6.2-1.7 12.2-5.3 17.3-3.6 5.1-8.6 8.9-14.5 11-3.8 1.3-7.8 1.7-11.7 1.1-3.9-.6-7.7-2-10.9-4.3-3.3-2.3-5.9-5.3-7.7-8.8-1.8-3.5-2.8-7.4-2.8-11.3V122.5c.3-5.6 2.3-11 5.9-15.5 3.6-4.4 8.4-7.6 13.9-9.1 4.7-1.2 9.7-1.2 14.4 0 4.7 1.3 9 3.7 12.5 7.2l70.3 69.3c.2.2.5.4.7.5.3.1.6.1.9.1.3 0 .6-.1.8-.3.3-.1.5-.3.7-.6L199 106c2.3-2.8 5.2-5 8.5-6.5s6.9-2.4 10.5-2.4h129.8c3.6 0 7.1.8 10.3 2.2 3.2 1.5 6.1 3.6 8.5 6.2 2.3 2.6 4.1 5.7 5.1 9.1 1 3.4 1.3 6.9.8 10.4-.9 6-4 11.5-8.7 15.4-4.7 3.9-10.7 6.1-16.9 6h-72.7c-.4 0-.7.1-1 .3-.3.2-.6.5-.7.8-.2.3-.2.7-.2 1-.3.4-.2.8 0 1.1Z"
    fill="#fff" />
</svg>