<svg width="200" height="45" viewBox="0 0 200 45" fill="none" xmlns="http://www.w3.org/2000/svg">
  <path
    d="M16.2478 3.84723C16.466 3.76792 16.6558 3.62573 16.7933 3.4386C16.9307 3.25147 17.0096 3.02782 17.02 2.79588C17.0303 2.56394 16.9717 2.33416 16.8516 2.13551C16.7314 1.93686 16.5551 1.77826 16.3448 1.67978C16.1346 1.5813 15.8998 1.54736 15.6703 1.58222C15.4408 1.61707 15.2267 1.71918 15.0552 1.87564C14.8836 2.03209 14.7623 2.23585 14.7065 2.46122C14.6508 2.68659 14.663 2.92342 14.7418 3.14183C14.7942 3.28715 14.8748 3.42073 14.9789 3.53487C15.083 3.64901 15.2086 3.74149 15.3485 3.80702C15.4883 3.87254 15.6398 3.90982 15.7941 3.91672C15.9485 3.92363 16.1026 3.9 16.2478 3.84723Z"
    fill="#fff" />
  <path
    d="M6.04928 28.6732C6.03341 28.9536 6.02459 29.234 6.02459 29.5179C6.02479 32.1498 6.73711 34.7326 8.08604 36.9925C9.43497 39.2525 11.3702 41.1053 13.6867 42.3547C16.0032 43.604 18.6145 44.2033 21.244 44.089C23.8734 43.9748 26.4229 43.1512 28.6222 41.7055C25.0952 40.36 21.0391 38.4219 16.8614 36.0129C12.6836 33.604 8.982 31.0592 6.04928 28.6732Z"
    fill="#fff" />
  <path
    d="M36.3361 34.134C36.1542 34.7561 35.9352 35.3669 35.6801 35.9628C36.6977 37.139 37.1279 38.0666 36.8158 38.608C36.5037 39.1494 35.5073 39.2376 34.0065 38.9607C33.3675 38.836 32.7353 38.6783 32.1125 38.4881C33.7921 36.3339 34.833 33.7512 35.1165 31.0342C35.4 28.3173 34.9147 25.5753 33.716 23.1207C32.5173 20.6661 30.6533 18.5975 28.3363 17.1505C26.0193 15.7036 23.3426 14.9364 20.6109 14.9364C20.0392 14.9374 19.468 14.9716 18.9003 15.0387L18.5317 13.0724C19.4436 13.1211 20.3468 12.8737 21.1064 12.367C21.7836 11.9437 22.3409 11.3953 22.9458 10.8715C23.5507 10.3477 24.1344 9.75345 24.7481 9.21558C25.3318 8.70416 25.9173 8.10808 26.658 7.8365C26.851 7.74837 27.0691 7.7315 27.2734 7.78888C27.373 7.82173 27.456 7.89189 27.505 7.98461C27.554 8.07733 27.5652 8.18542 27.5362 8.28621C27.4958 8.3688 27.4352 8.43978 27.3599 8.49253C26.9913 8.77645 26.5504 8.95632 26.173 9.2279C25.7956 9.49948 25.4676 9.91391 25.487 10.3777C25.5099 10.875 25.9402 11.2842 26.4199 11.4129C26.9097 11.5122 27.4179 11.4637 27.8801 11.2736C30.2185 10.4465 31.7422 8.18745 33.9007 6.96534C35.1032 6.30202 36.4481 5.93902 37.821 5.90723C38.0397 5.90723 38.3342 5.83313 38.336 5.61269C38.3289 5.55751 38.311 5.5043 38.2831 5.45615C38.2552 5.408 38.2181 5.36591 38.1737 5.33232C37.0847 4.28813 35.7666 3.51297 34.3248 3.06869C32.8829 2.62441 31.3572 2.5233 29.8693 2.77346C29.8302 2.77356 29.7916 2.78177 29.7559 2.79757C29.7201 2.81338 29.6881 2.83641 29.6617 2.86526C29.6354 2.8941 29.6153 2.92813 29.6027 2.96514C29.5902 3.00216 29.5855 3.04139 29.5889 3.08031C29.378 4.35224 28.9478 5.57788 28.3174 6.70258C28.0018 5.17714 28.8359 3.63407 28.7707 2.07688C28.7424 1.41557 28.5167 0.717186 27.9824 0.325686C27.4992 -0.0270168 26.8378 -0.0710788 26.2594 0.0876373C25.685 0.271663 25.1477 0.555854 24.6723 0.927071C22.6812 2.33788 20.7678 4.14372 18.343 4.4541C18.2249 4.46821 18.0732 4.51229 18.0697 4.63045C18.0739 4.68208 18.0935 4.73122 18.1261 4.7715C18.992 6.09589 19.3182 7.73423 19.2054 9.30023C19.1507 10.055 18.9973 10.7657 18.5335 11.3829C18.4557 11.4878 18.367 11.5841 18.2689 11.6704L17.0221 5.02018C16.9569 4.65689 16.6412 4.54401 16.2867 4.60574L16.0716 4.64453C15.7189 4.70625 15.4579 4.92142 15.5232 5.28471L17.1826 15.3367C14.9317 15.883 12.8428 16.9564 11.0884 18.4687C9.33389 19.9809 7.96405 21.8886 7.0918 24.0344C6.61597 23.5876 6.16333 23.1167 5.73566 22.6236C4.74456 21.4667 4.32484 20.555 4.63522 20.0189C4.94559 19.4828 5.96667 19.3875 7.49564 19.6802C7.88426 19.1619 8.30355 18.6672 8.75126 18.1989C4.19963 16.6964 0.953004 16.4354 0.175295 17.7845C-0.602414 19.1336 1.25281 21.8247 4.84332 25.0237C5.323 25.4505 5.83441 25.886 6.37228 26.3287L6.58038 26.505L6.88194 26.7484C7.00362 26.8472 7.12883 26.9459 7.25404 27.0447L7.53796 27.2704C7.75193 27.4385 7.96944 27.6061 8.19046 27.773L8.44969 27.9688L8.89763 28.3056L9.21506 28.5401L9.63125 28.8452L9.96456 29.0851L10.3949 29.3919L10.7299 29.6265L11.1955 29.9509L11.5129 30.1696C11.7051 30.3019 11.9009 30.4324 12.0966 30.5646L12.3153 30.7128C12.5834 30.8891 12.8532 31.0655 13.1265 31.2418L13.3911 31.4182L13.9748 31.7938L14.3028 32.0037L14.846 32.344L15.1987 32.5592L15.7524 32.8995L16.0928 33.1059C16.2956 33.2293 16.5001 33.351 16.7047 33.4727L16.9992 33.649C17.3043 33.8254 17.6094 34.0017 17.9198 34.1781C18.2301 34.3544 18.537 34.5308 18.8438 34.7071L19.1419 34.8729L19.7662 35.2256L20.1189 35.4161L20.6902 35.7264L21.0429 35.9187L21.609 36.2167L21.9529 36.3931L22.5737 36.7123L22.8488 36.8534C23.1415 37.0015 23.4319 37.1467 23.72 37.2889L23.9598 37.4053L24.5894 37.7245L24.9421 37.8903C25.1184 37.9714 25.2842 38.0525 25.4535 38.1301L25.8274 38.3065L26.3035 38.5252L26.6809 38.7015C26.8396 38.7721 26.9948 38.8408 27.1518 38.9078L27.515 39.0683L28.0212 39.2835L28.3298 39.414C28.5855 39.5215 28.8377 39.6256 29.0899 39.7261L29.432 39.8619L29.8676 40.0383L30.2344 40.1775L30.483 40.2728C31.1355 40.5162 31.7686 40.7419 32.3753 40.9429C36.9445 42.456 40.207 42.7188 40.9865 41.3679C41.766 40.0171 39.9125 37.3242 36.3361 34.134Z"
    fill="#fff" />
  <path
    d="M51.6953 29.7133C51.6953 23.4387 56.217 18.7266 62.3804 18.7266C68.2988 18.7266 73.0938 23.3029 73.0938 29.1101C73.0938 35.1061 68.4363 39.7688 62.6273 39.7688C56.9841 39.7688 51.6953 35.7127 51.6953 29.7133ZM67.9196 29.2759C67.9196 26.1016 65.6447 23.28 62.384 23.28C59.1514 23.28 56.8765 25.9922 56.8765 29.1983C56.8765 32.549 59.1514 35.226 62.4668 35.226C65.6782 35.2207 67.9161 32.5084 67.9161 29.2759H67.9196Z"
    fill="#fff" />
  <path
    d="M84.6835 39.3839V30.9455C84.6835 28.891 83.9781 27.9317 82.2992 27.9317C80.4634 27.9317 79.6963 28.9457 79.6963 31.0002V39.3839H75.1482V24.1789H79.3947V25.7943H79.4494C80.4087 24.2336 81.742 23.6587 83.5866 23.6587C86.3271 23.6587 89.2298 25.1929 89.2298 29.6846V39.3839H84.6835Z"
    fill="#fff" />
  <path
    d="M95.5868 33.164C95.8319 34.8905 97.2851 36.0421 99.1473 36.0421C100.382 36.0421 101.175 35.5765 101.914 34.6171H106.573C105.12 37.9325 102.353 39.8777 99.1473 39.8777C98.0894 39.8782 97.0417 39.6701 96.0643 39.2654C95.0868 38.8607 94.1987 38.2673 93.4507 37.5192C92.7027 36.771 92.1095 35.8828 91.705 34.9052C91.3005 33.9276 91.0927 32.8799 91.0934 31.822C91.0934 27.4397 94.5992 23.6587 99.0662 23.6587C103.614 23.6587 107.094 27.2474 107.094 31.9596C107.099 32.3637 107.062 32.7674 106.984 33.164H95.5868ZM102.546 30.0955C102.193 28.5348 100.819 27.4943 99.0662 27.4943C97.4226 27.4943 95.9977 28.4801 95.6415 30.0955H102.546Z"
    fill="#fff" />
  <path
    d="M109.257 39.3838V19.1034H116.113C118.277 19.077 119.894 19.3786 120.963 19.8723C123.155 20.8846 124.525 23.2142 124.525 25.9529C124.525 29.7074 122.443 33.0229 116.634 33.0229H114.223V39.3715L109.257 39.3838ZM116.434 28.4801C118.517 28.4801 119.559 27.7746 119.559 26.0411C119.559 24.3975 118.545 23.6586 116.244 23.6586H114.216V28.4801H116.434Z"
    fill="#fff" />
  <path d="M125.942 39.3835V19.1031H130.49V39.3835H125.942Z" fill="#fff" />
  <path
    d="M144.654 39.3836V37.74H144.599C143.942 39.0821 142.13 39.9039 140.134 39.9039C135.641 39.9039 132.518 36.3768 132.518 31.767C132.518 27.2736 135.778 23.6548 140.134 23.6548C141.996 23.6548 143.723 24.3938 144.599 25.7905H144.654V24.1751H149.202V39.3801L144.654 39.3836ZM144.654 31.767C144.655 31.2596 144.555 30.7571 144.361 30.2882C144.168 29.8193 143.883 29.3933 143.524 29.0345C143.166 28.6758 142.74 28.3913 142.271 28.1975C141.802 28.0036 141.299 27.9042 140.792 27.9049C138.709 27.9049 137.066 29.6296 137.066 31.8217C137.061 32.3221 137.155 32.8186 137.342 33.2826C137.53 33.7466 137.807 34.169 138.159 34.5254C138.51 34.8818 138.929 35.1653 139.39 35.3596C139.851 35.5538 140.346 35.655 140.847 35.6573C142.984 35.6573 144.654 33.959 144.654 31.767Z"
    fill="#fff" />
  <path
    d="M161.505 39.3839V30.9455C161.505 28.891 160.799 27.9317 159.12 27.9317C157.285 27.9317 156.517 28.9457 156.517 31.0002V39.3839H151.969V24.1789H156.216V25.7943H156.271C157.23 24.2336 158.574 23.6587 160.408 23.6587C163.148 23.6587 166.051 25.1929 166.051 29.6846V39.3839H161.505Z"
    fill="#fff" />
  <path
    d="M172.408 33.164C172.655 34.8905 174.106 36.0421 175.97 36.0421C177.205 36.0421 177.997 35.5765 178.737 34.6171H183.395C181.943 37.9325 179.175 39.8777 175.97 39.8777C174.912 39.8784 173.864 39.6705 172.887 39.2659C171.909 38.8614 171.021 38.268 170.273 37.5198C169.524 36.7716 168.931 35.8833 168.526 34.9056C168.122 33.9279 167.914 32.8801 167.915 31.822C167.915 27.4397 171.422 23.6587 175.887 23.6587C180.436 23.6587 183.915 27.2474 183.915 31.9596C183.921 32.3638 183.884 32.7675 183.806 33.164H172.408ZM179.367 30.0955C179.014 28.5348 177.64 27.4943 175.887 27.4943C174.244 27.4943 172.819 28.4801 172.463 30.0955H179.367Z"
    fill="#fff" />
  <path
    d="M186.792 39.3846V27.6308H184.539V24.1796H186.785V19.1095H191.333V24.1796H193.532V27.6308H191.34V39.3846H186.792Z"
    fill="#fff" />
  <path d="M195.258 39.3842V34.7268H199.999V39.3842H195.258Z" fill="#fff" />
</svg>