<svg width="400" height="400" viewBox="0 0 400 400" fill="none" xmlns="http://www.w3.org/2000/svg">
  <path
    d="M200 25c-96.635 0-175 78.365-175 175s78.365 175 175 175 175-78.365 175-175S296.67 25 200 25Zm-88.655 180.88.735-1.19 45.535-71.225c.665-1.015 2.24-.91 2.73.21 7.595 17.045 14.175 38.255 11.095 51.45-1.295 5.425-4.9 12.775-8.96 19.565-.525.98-1.085 1.96-1.715 2.905-.28.42-.77.665-1.295.665h-46.795c-1.26 0-1.995-1.365-1.33-2.38Zm202.895 24.5c0 .665-.385 1.225-.945 1.47-3.535 1.505-15.61 7.07-20.615 14.035-12.81 17.815-22.575 43.295-44.45 43.295h-91.21c-32.34 0-58.52-26.285-58.52-58.73v-1.05c0-.84.7-1.54 1.575-1.54h50.82c1.015 0 1.75.91 1.68 1.925-.385 3.29.245 6.685 1.82 9.765 3.01 6.125 9.275 9.94 16.03 9.94h25.165v-19.635h-24.885c-1.26 0-2.03-1.47-1.295-2.52.28-.42.56-.84.91-1.33 2.345-3.36 5.705-8.54 9.065-14.455 2.275-3.99 4.48-8.26 6.265-12.53.35-.77.63-1.575.945-2.345.49-1.365.98-2.66 1.33-3.92.35-1.085.665-2.205.945-3.255.84-3.64 1.19-7.49 1.19-11.48 0-1.575-.07-3.22-.21-4.76-.07-1.715-.28-3.43-.49-5.145-.14-1.505-.42-3.01-.7-4.55a94.704 94.704 0 0 0-1.435-6.825l-.21-.875c-.42-1.575-.805-3.045-1.295-4.62-1.435-4.9-3.045-9.695-4.795-14.175-.63-1.785-1.33-3.5-2.065-5.18-1.05-2.59-2.135-4.935-3.115-7.14a51.969 51.969 0 0 1-1.365-2.87c-.49-1.05-.98-2.1-1.505-3.115-.35-.77-.77-1.505-1.05-2.205l-3.08-5.67c-.42-.77.28-1.715 1.12-1.47l19.25 5.215h.14l2.52.735 2.8.77 1.015.28v-11.41c0-5.53 4.41-10.01 9.905-10.01a9.64 9.64 0 0 1 6.965 2.94c1.785 1.82 2.905 4.305 2.905 7.07v16.975l2.065.56c.14.07.315.14.455.245.49.35 1.225.91 2.135 1.61.735.56 1.505 1.26 2.415 1.995a150.958 150.958 0 0 1 6.51 5.635c.63.56 1.26 1.12 1.855 1.715 3.115 2.905 6.615 6.3 9.975 10.08a137.127 137.127 0 0 1 2.8 3.29c.91 1.155 1.925 2.275 2.765 3.395 1.155 1.505 2.345 3.08 3.43 4.725.49.77 1.085 1.575 1.54 2.345 1.4 2.065 2.59 4.2 3.745 6.335.49.98.98 2.065 1.4 3.115 1.295 2.87 2.31 5.775 2.94 8.715.21.63.35 1.295.42 1.925v.14c.21.84.28 1.75.35 2.695a30 30 0 0 1-.49 8.995c-.28 1.26-.63 2.45-1.05 3.745-.455 1.225-.875 2.485-1.435 3.71-1.085 2.485-2.345 5.005-3.85 7.315-.49.875-1.085 1.785-1.645 2.66-.63.91-1.295 1.785-1.855 2.625-.805 1.085-1.645 2.205-2.52 3.22-.77 1.05-1.54 2.1-2.415 3.045a82.07 82.07 0 0 1-3.57 4.06c-.7.84-1.47 1.715-2.275 2.485-.77.875-1.575 1.645-2.275 2.345-1.225 1.225-2.205 2.135-3.045 2.94l-1.995 1.785c-.28.28-.665.42-1.05.42h-15.33v19.635h19.285c4.305 0 8.4-1.505 11.725-4.34 1.12-.98 6.055-5.25 11.9-11.69.21-.245.455-.385.735-.455l53.235-15.4a1.558 1.558 0 0 1 1.995 1.505v11.27Z"
    fill="#fff" />
</svg>