<svg xmlns="http://www.w3.org/2000/svg" viewBox="0 0 58.27 31.68">
  <path
    d="M39.98 30.99c-2.47-1.43-3.64-4.85-3.46-9.05-4.14 7.43-10.47 11.44-14.6 9.05-2.63-1.52-3.78-5.29-3.41-9.86-4.12 7.94-10.75 12.33-15.04 9.86-4.4-2.55-4.65-11.39-.56-19.76C7 2.86 13.89-1.86 18.29.69c2.63 1.52 3.78 5.29 3.41 9.86C25.82 2.61 32.45-1.79 36.74.69c2.47 1.43 3.64 4.85 3.46 9.05C44.34 2.31 50.66-1.7 54.8.69c4.4 2.55 4.66 11.39.57 19.76-3.34 6.83-8.54 11.23-12.74 11.23-.94 0-1.84-.22-2.64-.69Z"
    style="fill:#fff" />
</svg>