<svg width="100" height="25" xmlns="http://www.w3.org/2000/svg" xmlns:xlink="http://www.w3.org/1999/xlink">
  <defs>
    <path id="a" d="M0 0h8.197v16.393H0z" />
  </defs>
  <g fill="none" fill-rule="evenodd">
    <path
      d="M72.203 7.408c-.109-.008-.334-.031-.81-.031-.414 0-.799.039-1.157.114-1.492.29-2.445 1.104-3.267 1.965V7.752h-4.674v15.199h4.674v-6.349c0-.75.04-1.438.124-2.064.083-.625.265-1.162.545-1.61.28-.449.68-.798 1.2-1.048.519-.25 1.225-.375 2.119-.375a6.38 6.38 0 0 1 1.994.313V7.533a4.004 4.004 0 0 0-.748-.125m12.295 0c-.109-.008-.333-.031-.81-.031-.414 0-.799.039-1.157.114-1.492.29-2.444 1.104-3.267 1.965V7.752H74.59v15.199h4.674v-6.349c0-.75.041-1.438.124-2.064.083-.625.265-1.162.546-1.61.28-.449.68-.798 1.199-1.048.52-.25 1.225-.375 2.119-.375a6.38 6.38 0 0 1 1.994.313V7.533a4.004 4.004 0 0 0-.748-.125m-48.781-.733h-6.209V2.459h17.213v4.216h-6.209V22.13h-4.795zm20.248 6.809a2.62 2.62 0 0 0-.782-1.984c-.542-.55-1.24-.825-2.095-.825-.521 0-.98.081-1.376.244a3.464 3.464 0 0 0-1.017.626c-.281.255-.5.55-.656.886a2.853 2.853 0 0 0-.266 1.053h6.192zm3.972 6.535a7.46 7.46 0 0 1-2.846 2.168 8.707 8.707 0 0 1-3.565.764 9.787 9.787 0 0 1-3.3-.55 7.973 7.973 0 0 1-2.69-1.572 7.38 7.38 0 0 1-1.797-2.459c-.438-.956-.657-2.025-.657-3.206 0-1.18.22-2.25.657-3.206a7.39 7.39 0 0 1 1.798-2.459 7.977 7.977 0 0 1 2.69-1.572 9.787 9.787 0 0 1 3.299-.55c1.084 0 2.069.183 2.955.55.886.366 1.636.89 2.252 1.572.614.683 1.089 1.502 1.423 2.459.333.957.5 2.025.5 3.206v1.435H49.773c.188.876.594 1.573 1.22 2.092.625.52 1.396.779 2.314.779.77 0 1.423-.168 1.954-.504a5.197 5.197 0 0 0 1.392-1.298l3.284 2.351zm35.993-2.683v-.25a.753.753 0 0 0-.508-.714 6.93 6.93 0 0 0-2.234-.362c-1.837 0-2.968.734-2.968 2.088v.056c0 1.157.961 1.835 2.346 1.835 2.007 0 3.364-1.101 3.364-2.653m-9.864.988v-.057c0-3.3 2.515-4.824 6.104-4.824 1.527 0 2.63.254 3.703.62v-.253c0-1.778-1.102-2.765-3.25-2.765-1.64 0-2.798.31-4.183.818L87.366 8.59c1.667-.733 3.307-1.213 5.879-1.213 2.346 0 4.042.62 5.116 1.693 1.13 1.128 1.639 2.793 1.639 4.824v8.775h-4.155v-1.637c-1.046 1.157-2.487 1.919-4.579 1.919-2.855 0-5.2-1.637-5.2-4.627M11.589 19.99c.696 2.655 3.194 4.681 4.455 4.598.044-.003 4.785-.914 7.38-5.384 2.02-3.478 1.332-6.836-1.415-6.909-.988.074-11.747 2.637-10.42 7.696M13.975 0c-1.789 0-3.487.384-5.023 1.069a7.333 7.333 0 0 0-.784.385c-.174.093-.348.185-.516.285l.04.013a5.652 5.652 0 0 0-1.306 1.24c-3.553 4.704 8.355 8.123 14.721 8.135 2.93 2.107 3.752-5.934.89-8.166A12.28 12.28 0 0 0 13.975 0z"
      fill="#0E3CA5" />
    <path
      d="M9.5 2.758C7.89 5.123 2.526 6.79 1.644 6.53l-.004-.01.11-.213a12.716 12.716 0 0 1 3.824-4.362c.33-.237.672-.458 1.025-.664C7.348.856 8.118.83 8.371.82c2.388.044 1.141 1.919 1.128 1.938"
      fill="#5493F7" />
    <g transform="translate(0 8.197)">
      <mask id="b" fill="#fff">
        <use xlink:href="#a" />
      </mask>
      <path
        d="M8.149 12.284c.12.777-.003 3.848-.165 4.107-.138.008-.428.026-1.265-.438a13.33 13.33 0 0 1-4.151-3.656 13.087 13.087 0 0 1-1.89-3.604A12.92 12.92 0 0 1 0 4.543 12.909 12.909 0 0 1 .818 0H.82c.96 1.259 2.07 2.398 3.013 3.67.899 1.21 2.135 3.183 2.386 3.605 1.562 2.617 1.811 4.232 1.93 5.009"
        fill="#5493F7" mask="url(#b)" />
    </g>
    <path
      d="M26.23 12.885c0 1.679-.32 3.284-.899 4.756-1.52 1.64-11.772-2.396-11.873-2.44-1.402-.616-5.67-2.492-6.055-5.438-.554-4.238 8.018-7.192 11.785-7.304.451.005 1.826.021 2.627.675a12.937 12.937 0 0 1 4.415 9.75m-8.965 10.484c.613-2.17 5.973-4.394 7.156-4.514.146-.015.208.088.144.206-1.234 2.244-3.061 4.092-5.272 5.29-1.118.542-2.348.147-2.028-.982z"
      fill="#5493F7" />
  </g>
</svg>