<?xml version="1.0" encoding="UTF-8"?><svg xmlns="http://www.w3.org/2000/svg" xmlns:xlink="http://www.w3.org/1999/xlink"
  viewBox="0 0 317.17 217.09">
  <defs>
    <style>
      .f {
        fill: none;
      }

      .g {
        fill: #f3f7e4;
      }

      .h {
        clip-path: url(#e);
      }

      .i {
        clip-path: url(#d);
      }

      .j {
        isolation: isolate;
      }
    </style>
    <clipPath id="d">
      <rect class="f" y="0" width="317.17" height="217.09" />
    </clipPath>
    <clipPath id="e">
      <rect class="f" y="-.03" width="317.31" height="217.23" />
    </clipPath>
  </defs>
  <g id="a" />
  <g id="b">
    <g id="c">
      <g class="i">
        <g class="j">
          <g class="h">
            <path class="g"
              d="M183.86,179.96l-.48,15.35c-1.84-.58-4.49-.96-6.76-.95-2.79,.01-3.87,.59-3.87,2.32s1.08,2.31,3.87,2.32c2.31,0,4.92-.37,6.76-.95l.48,15.35c-3.54,.96-6.1,1.21-9.18,1.11-11.77-.4-16.5-5.6-16.5-17.83s4.73-17.42,16.5-17.83c3.08-.1,5.64,.15,9.18,1.11" />
            <polygon class="g"
              points="201.81 200.43 211.58 200.49 211.58 214.73 186.23 213.91 186.23 179.44 201.81 178.94 201.81 200.43" />
            <path class="g"
              d="M251.54,199.44c0,13.27-5.11,17.52-19.86,17.01-14.18-.48-18.85-4.88-18.85-17.19v-20.68l17.14-.55v20.46c0,3.04,.43,4,1.81,4.01,1.39,.01,1.82-.95,1.82-4v-20.59l17.95-.58v22.11Z" />
            <path class="g"
              d="M274.79,200.93v6.55l.88,.02c2.77,.05,3.78-.8,3.78-3.23s-1-3.3-3.78-3.32h-.88Zm0-15v6.55h.88c2.77-.03,3.78-.9,3.78-3.33s-1-3.28-3.78-3.23l-.88,.02Zm6.9-9.59c14.44-.47,18.83,1.9,18.83,10.4,0,5.74-2.02,8.38-7.32,9.69v.3c6.48,1.2,8.81,3.84,8.81,9.95,0,8.51-4.47,10.83-19.54,10.34l-27.61-.89v-38.91l26.82-.87Z" />
            <polygon class="g"
              points="296.86 138.12 296.86 87.33 261.93 87.23 261.93 172.63 317.17 170.33 317.17 137.63 296.86 138.12" />
            <path class="g"
              d="M49.55,124.15l-1.88,.03v-15.47h1.88c5.86-.06,7.96,1.95,7.96,7.63s-2.1,7.73-7.96,7.82m0,35.39l-1.88,.06v-15.47l1.88-.05c5.86-.14,7.96,1.83,7.96,7.51s-2.1,7.77-7.96,7.95m35.69-26.05v-.67c10.17-3.11,13.99-9.01,13.99-21.72,0-18.8-8.32-24.39-37.07-24.47l-59.44-.18v97.01l61.07-2.55c29.82-1.25,38.24-7.02,38.24-25.8,0-13.49-4.37-19.22-16.79-21.62" />
            <polygon class="g"
              points="235.89 87.15 198.63 87.04 198.63 175.28 257.54 172.82 257.54 139.07 235.89 139.59 235.89 87.15" />
            <polygon class="g"
              points="16.31 73.07 12.9 72.96 12.82 82.26 3.55 82.19 3.63 72.67 0 72.56 .05 66.31 16.36 67.06 16.31 73.07" />
            <polygon class="g"
              points="35.95 82.46 27.71 82.39 27.75 77.7 26.04 77.66 26 82.37 17.33 82.3 17.45 67.11 26.12 67.51 26.08 72.23 27.8 72.29 27.84 67.59 36.07 67.97 35.95 82.46" />
            <polygon class="g"
              points="51.17 73.1 45.44 72.91 45.43 73.98 50.77 74.14 50.74 77.09 45.41 76.97 45.4 78.03 51.13 78.15 51.09 82.58 37.54 82.47 37.66 68.05 51.21 68.67 51.17 73.1" />
            <path class="g"
              d="M254.54,33.74c-.07,.17-.14,.35-.21,.52-.01,.04-.02,.07-.04,.1,0,.02-.02,.04-.03,.07-1.45,3.71-2.96,7.38-4.33,11.16-5.51,15.21-15.04,24.39-28.06,27.43-8.95,2.1-18.23,2.66-27.49,3.88-1.16,.15-2.33,.22-3.5,.28-1.43,.13-4.52,.01-5.1-.26-.39-.18-.34-.76,.09-.85,1.57-.34,6.74-1.12,7.25-1.26,.69-.2,.47-.35-.16-.47-.63-.12-12.4-.99-12.4-.99-.09,0-.18-.02-.26-.03-.33-.03-.58-.31-.57-.64h0c0-.34,.26-.6,.58-.63,1.04-.08,5.9-.1,9.03-.16,10-.19,19.95-.46,29.61-2.14,13.04-2.27,23.28-10.31,29.15-25.56,1.02-2.65,2.26-5.16,3.5-7.66h0v-.02c.12-.23,.23-.45,.34-.68,.08-.16,.17-.3,.26-.45,.59-1.11,1.44-2.68,1.68-3.02,.39-.53,.76-.39,.87-.34,.09,.05,.31,.18-.23,1.7h0M110.76,83c-2.52-5.08-8.29-6.94-13.54-7.59-.63-.08-1.27-.15-1.9-.21-8.44-.84-16.89-1.96-25.16-3.92-15.73-3.73-27.54-14.39-34.48-31.96-1.84-4.66-3.9-9.23-5.86-13.86,.28-.23,.56-.46,.85-.69,.83,1.09,1.81,2.08,2.45,3.29,1.71,3.21,3.45,6.42,4.87,9.78,7.37,17.59,19.98,27,35.64,29.9,11.32,2.09,22.77,2.13,33.98,3.07,1.16,.1,2.33,.21,3.49,.31,.34,.03,.6,.31,.61,.65,0,.37-.26,.67-.62,.69-2.37,.18-4.76,.35-7.14,.53-.2,.01-.23,.29-.05,.36,2.27,.85,4.32,2.16,5.93,3.99,1.46,1.66,1.71,3.56,2.34,5.58,.29,.94-.25,2.4-1.41,.07M271.01,13.24c-9.07-2-16.98,.85-23.16,9.7-3.89,5.57-7.43,11.56-11.33,17.2-6.69,9.68-14.88,15.06-25.8,13.96-9.5-.96-19.19-1.44-28.73,1.29h0c-.05,0-.1,.03-.15,.04-.21,.06-.43,.12-.64,.18-.49,.15-.97,.35-1.46,.5-26.24,7.93-25.59,30.88-25.59,30.88l.04,1.34v48.08c0,7.35-.96,9.69-4.04,9.77-3.1,.08-4.06-2.22-4.06-9.6v-49.19s.84-25.51-27.89-33.07c-.55-.14-1.06-.41-1.59-.58-.23-.08-.47-.14-.7-.22-.06-.02-.11-.04-.17-.06h0c-10.55-3.3-21.49-3.23-32.43-2.61-12.86,.73-22.69-5.65-30.86-16.87-4.81-6.61-9.23-13.66-14.11-20.31C30.48,2.99,20.28-1.11,8.35,.25c-1.6,.18-3.1,1.14-5.63,2.11,1.74,.91,2.28,1.3,2.85,1.47,8.39,2.49,14.49,8.47,18.72,16.67,3.67,7.13,6.76,14.62,9.96,21.99,7.55,17.38,19.46,28.32,35.45,32.31,8.3,2.07,16.71,3.16,25,4.55h0c.5,.08,.96,.17,1.42,.27h.04c11.76,1.93,13.99,12.95,13.99,12.95v.03h0c.82,3.61,1.83,8.87,2.39,14.88,.96,10.3-.6,2.29-4.93-6.73-.21-.38-.43-.82-.66-1.33-.21-.41-.42-.83-.64-1.24-.17-.31-.33-.6-.49-.89-.15-.24-.3-.46-.45-.69v42.96c0,31.42,11.52,41.75,44.57,40.33,31.69-1.37,42.07-11.93,42.07-42.29v-49.37c-1.28,1.19-3.06,3.1-5.23,6.08-4.44,6.09-6.08,12.58-5.44,6.49,0,0,.7-9.64,3.46-14.41,.17-.34,.39-.66,.63-.96,.04-.05,.07-.1,.11-.15,.02-.02,.05-.04,.07-.06,2.39-2.67,7.27-3.74,7.72-3.84,1.44-.27,2.88-.54,4.32-.8,8.28-1.47,16.58-2.34,24.62-4.36,13.22-3.32,22.82-12.76,28.8-27.79,2.51-6.31,4.92-12.71,7.77-18.72,3.26-6.87,7.92-11.64,14.25-13.23,.43-.11,.83-.41,2.13-1.07-1.89-1-3.02-1.92-4.22-2.18" />
          </g>
        </g>
      </g>
    </g>
  </g>
</svg>